<?xml version="1.0" encoding="utf-8"?>
<!-- Generator: Adobe Illustrator 21.0.0, SVG Export Plug-In . SVG Version: 6.00 Build 0)  -->
<svg version="1.1" xmlns="http://www.w3.org/2000/svg" xmlns:xlink="http://www.w3.org/1999/xlink" x="0px" y="0px"
	 viewBox="0 0 1920 1080" style="enable-background:new 0 0 1920 1080;" xml:space="preserve">
<style type="text/css">
	.st0{fill:none;}
	.st1{fill:#FFFEE1;}
	.st2{fill:none;stroke:#F4D3D3;stroke-width:3;stroke-linecap:round;stroke-miterlimit:10;}
	.st3{fill:none;stroke:#FFFFFF;stroke-width:3;stroke-linecap:round;stroke-miterlimit:10;}
	.st4{fill:url(#background_2_);}
	.st5{fill:#FFFFFF;stroke:#E0E0E0;stroke-miterlimit:10;}
	.st6{font-family:'Anton-Regular';}
	.st7{font-size:30.7471px;}
	.st8{font-family:'RobotoCondensed-Light';}
	.st9{font-size:26px;}
	.st10{fill:#F2B303;}
	.st11{fill:#D65600;}
	.st12{fill:#BCBCBC;}
	.st13{display:none;fill:#C1F4EE;}
	.st14{fill:#E7ECED;}
	.st15{fill:#BDCCD4;}
	.st16{fill:#FFFFFF;}
	.st17{fill:#E0E0E0;}
	.st18{fill:none;stroke:#BCBCBC;stroke-width:1.5;stroke-miterlimit:10;}
	.st19{opacity:0.3;stroke:#E0E0E0;stroke-miterlimit:10;enable-background:new    ;}
	.st20{opacity:0.3;enable-background:new    ;}
	.st21{font-family:'ArialMT';}
	.st22{font-size:15.2642px;}
	.st23{fill:none;stroke:#E0E0E0;stroke-miterlimit:10;}
	.st24{font-size:24px;}
	.st25{letter-spacing:1;}
	.st26{display:none;}
	.st27{display:inline;fill:#FFEAEA;}
	.st28{fill:none;stroke:#FFFFFF;stroke-width:1.5;stroke-miterlimit:10;}
	.st29{display:inline;fill:#FFFEE1;}
	.st30{display:inline;fill:none;stroke:#F4D3D3;stroke-width:3;stroke-linecap:round;stroke-miterlimit:10;}
	.st31{display:inline;fill:none;stroke:#FFFFFF;stroke-width:3;stroke-linecap:round;stroke-miterlimit:10;}
	.st32{display:inline;}
	.st33{fill:#808080;}
	.st34{font-size:12px;}
	.st35{font-size:14px;}
	.st36{font-size:12.0758px;}
	.st37{font-family:'RobotoCondensed-Regular';}
	.st38{font-size:18px;}
	.st39{font-size:20px;}
	.st40{font-size:16px;}
	.st41{font-size:23.7778px;}
	.st42{font-size:15.8519px;}
	.st43{fill:#010002;}
</style>
<pattern  width="206" height="206" patternUnits="userSpaceOnUse" id="Новый_образец_уз" viewBox="0 -206 206 206" style="overflow:visible;">
	<g>
		<rect y="-206" class="st0" width="206" height="206"/>
		<g>
			<rect y="-206" class="st0" width="206" height="206"/>
			<g>
				<rect y="-206" class="st1" width="206" height="206"/>
			</g>
			<g>
				<line class="st2" x1="13.5" y1="-12.5" x2="21" y2="-22"/>
			</g>
			<g>
				<line class="st2" x1="42" y1="-144" x2="32.5" y2="-138.5"/>
			</g>
			<g>
				<line class="st3" x1="31.4" y1="-83.9" x2="39.1" y2="-74.6"/>
			</g>
			<g>
				<line class="st2" x1="89.4" y1="-121.3" x2="85.1" y2="-111.2"/>
			</g>
			<g>
				<line class="st3" x1="106.4" y1="-67.9" x2="118.1" y2="-64.6"/>
			</g>
			<g>
				<line class="st3" x1="89.3" y1="-153.7" x2="99.2" y2="-146.8"/>
			</g>
			<g>
				<line class="st2" x1="82.6" y1="-37.3" x2="71.9" y2="-35.2"/>
			</g>
			<g>
				<line class="st3" x1="126.3" y1="-30.5" x2="120.2" y2="-20"/>
			</g>
			<g>
				<line class="st2" x1="158.4" y1="-115.9" x2="150.1" y2="-108.6"/>
			</g>
			<g>
				<line class="st3" x1="142.4" y1="-154.9" x2="150.1" y2="-145.6"/>
			</g>
			<g>
				<line class="st2" x1="186.4" y1="-66.3" x2="182.1" y2="-56.2"/>
			</g>
			<g>
				<line class="st2" x1="116.4" y1="-188.9" x2="108.1" y2="-181.6"/>
			</g>
			<g>
				<line class="st3" x1="197.3" y1="-141.5" x2="191.2" y2="-131"/>
			</g>
			<g>
				<line class="st2" x1="180.4" y1="-194.3" x2="176.1" y2="-184.2"/>
			</g>
			<g>
				<line class="st3" x1="36.4" y1="-195.9" x2="48.1" y2="-192.6"/>
			</g>
		</g>
	</g>
</pattern>
<g id="surroundings">
	
		<pattern  id="background_2_" xlink:href="#РќРѕРІС‹Р№_РѕР±СЂР°Р·РµС†_СѓР·" patternTransform="matrix(1 0 0 -1 1 -12731)">
	</pattern>
	<rect id="background_1_" x="1" y="99.1" class="st4" width="1920" height="1219.9"/>
	<g id="nav_bar">
		<rect x="0.5" y="0.5" class="st5" width="1921" height="101"/>
		<g id="logo">
			<g>
				<path d="M159.7,47.2l-27.4-15.6c-1.6-0.9-3.5-1.5-5.5-1.7V28c3.1-0.8,5.4-3.6,5.4-6.9c0-3.9-3.2-7.1-7.1-7.1s-7.1,3.2-7.1,7.1
					c0,0.9,0.7,1.7,1.7,1.7s1.7-0.7,1.7-1.7c0-2.1,1.7-3.7,3.7-3.7s3.7,1.7,3.7,3.7s-1.7,3.7-3.7,3.7c-0.9,0-1.7,0.7-1.7,1.7v3.4
					c-2,0.2-3.9,0.8-5.5,1.7L90.7,47.2c-1.9,1.1-3.2,3.1-3.2,5.4c0,3.4,2.7,6.1,6.1,6.1h63.1c3.4,0,6.1-2.7,6.1-6.1
					C162.9,50.3,161.7,48.3,159.7,47.2L159.7,47.2z M156.8,55.3H93.6c-1.5,0-2.8-1.2-2.8-2.8c0-1,0.5-1.9,1.5-2.4l27.4-15.6
					c0.6-0.3,2.6-1.4,5.5-1.4c2.9,0,5,1,5.5,1.4l27.4,15.6c0.9,0.5,1.4,1.4,1.4,2.4C159.5,54.1,158.3,55.3,156.8,55.3z"/>
				<text transform="matrix(1 0 0 1 85 87.9761)" class="st6 st7">SHMOT</text>
			</g>
		</g>
		<text transform="matrix(1 0 0 1 301 61)" class="st8 st9">ЖЕНСКОЕ</text>
		<text transform="matrix(1 0 0 1 445 61)" class="st8 st9">МУЖСКОЕ</text>
		<text transform="matrix(1 0 0 1 601 61)" class="st8 st9">АКСЕССУАРЫ</text>
		<text transform="matrix(1 0 0 1 795 61)" class="st8 st9">БРЕНДЫ</text>
		<text transform="matrix(1 0 0 1 933 61)" class="st8 st9">ХАЙП</text>
		<g>
			<path class="st10" d="M1009.1,47.5c0.3,1.2-0.1,4.5-1.9,6.5c0.4-2.1-0.6-3.4-0.6-3.4s-0.3,1.9-1.6,3.8c-1.2,1.7-2,3.6-0.5,6.8
				c0.4,0.3,0.9,0.6,1.6,0.9c0.9,0.4,1.8,0.6,2.4,0.7c0.6-0.1,1.2-0.2,2-0.5c0.9-0.3,1.6-0.7,2.1-1.1
				C1014.9,56.6,1013.2,50.4,1009.1,47.5z"/>
			<path class="st11" d="M1004.5,61.2c-1.6-3.2-0.7-5.1,0.5-6.8c1.3-1.9,1.6-3.8,1.6-3.8s1,1.3,0.6,3.4c1.8-2,2.2-5.3,1.9-6.5
				c4.1,2.9,5.9,9.1,3.5,13.7c12.6-7.1,3.1-17.8,1.5-19c0.5,1.2,0.7,3.2-0.5,4.2c-1.9-7.1-6.5-8.6-6.5-8.6c0.5,3.7-2,7.7-4.4,10.7
				c-0.1-1.5-0.2-2.5-0.9-3.9c-0.2,2.7-2.2,4.8-2.8,7.5C998.2,55.7,999.5,58.4,1004.5,61.2z"/>
		</g>
		<polygon class="st12" points="1664.9,30.7 1671.4,43.8 1685.9,45.9 1675.4,56.1 1677.9,70.5 1664.9,63.7 1652,70.5 1654.5,56.1 
			1644,45.9 1658.5,43.8 		"/>
		<polygon class="st13" points="1664.9,30.7 1671.4,43.8 1685.9,45.9 1675.4,56.1 1677.9,70.5 1664.9,63.7 1652,70.5 1654.5,56.1 
			1644,45.9 1658.5,43.8 		"/>
		<path class="st12" d="M1762.4,66.5l-9.1-9.5c2.3-2.8,3.6-6.3,3.6-10c0-8.5-6.9-15.5-15.5-15.5c-8.5,0-15.5,6.9-15.5,15.5
			s6.9,15.5,15.5,15.5c3.2,0,6.3-1,8.9-2.8l9.2,9.6c0.4,0.4,0.9,0.6,1.5,0.6c0.5,0,1-0.2,1.4-0.6
			C1763.2,68.6,1763.2,67.4,1762.4,66.5z M1741.5,35.7c6.3,0,11.4,5.1,11.4,11.4s-5.1,11.4-11.4,11.4s-11.4-5.1-11.4-11.4
			S1735.2,35.7,1741.5,35.7z"/>
		<path class="st13" d="M1762.4,66.5l-9.1-9.5c2.3-2.8,3.6-6.3,3.6-10c0-8.5-6.9-15.5-15.5-15.5c-8.5,0-15.5,6.9-15.5,15.5
			s6.9,15.5,15.5,15.5c3.2,0,6.3-1,8.9-2.8l9.2,9.6c0.4,0.4,0.9,0.6,1.5,0.6c0.5,0,1-0.2,1.4-0.6
			C1763.2,68.6,1763.2,67.4,1762.4,66.5z M1741.5,35.7c6.3,0,11.4,5.1,11.4,11.4s-5.1,11.4-11.4,11.4s-11.4-5.1-11.4-11.4
			S1735.2,35.7,1741.5,35.7z"/>
		<g>
			<path class="st12" d="M1832.5,27c-14.6,0-26.5,11.9-26.5,26.5c0,8,3.6,15.2,9.2,20.1c0.6-0.8,1.4-1.5,2.3-1.9l9.1-3.9
				c0.5-0.2,0.9-1,1.2-1.6c0.3-0.5-0.1-1.1-0.7-1.1h-6.4c0,0-2.3-0.2-4.1-1c-1.1-0.5-1.4-1-0.8-2c1.9-2.7,5.9-9.2,6-15.9
				c0,0,0.2-10.3,10.3-10.3c5.9,0,8.7,3.5,10,6.4c0.7,1.6,1,3.4,1.2,5.1c0.4,6.4,3.7,12.2,5.2,14.6c0.5,0.8,0.3,2-0.6,2.5
				c-1.4,0.8-3.1,0.5-3.1,0.5h-6.5c-0.6,0-0.9,0.9-0.4,1.3c0.4,0.3,0.8,0.6,1,0.7l7.6,4.6c1.1,0.6,2,1.5,2.5,2.5c0,0,0.1,0,0.1,0.1
				c6.1-4.9,9.9-12.3,9.9-20.7C1859,38.9,1847.1,27,1832.5,27z"/>
			<path class="st14" d="M1817.5,71.6l9.1-3.9c0.5-0.2,0.9-1,1.2-1.6c0.3-0.5-0.1-1.1-0.7-1.1h-6.4c0,0-2.3-0.2-4.1-1
				c-1.1-0.5-1.4-1-0.8-2c1.9-2.7,5.9-9.2,6-15.9c0,0,0.2-10.3,10.3-10.3c5.9,0,8.7,3.5,10,6.4c0.7,1.6,1,3.4,1.2,5.1
				c0.4,6.4,3.7,12.2,5.2,14.6c0.5,0.8,0.3,2-0.6,2.5c-1.4,0.8-3.1,0.5-3.1,0.5h-6.5c-0.6,0-0.9,0.9-0.4,1.3c0.4,0.3,0.8,0.6,1,0.7
				l7.6,4.6c1.1,0.6,2,1.5,2.6,2.5c-4.5,3.7-10.3,5.9-16.6,5.9c-6.6,0-12.6-2.4-17.2-6.4C1815.7,72.8,1816.5,72.1,1817.5,71.6z"/>
		</g>
	</g>
	<g id="footer_1_">
		<g id="footer">
			<rect x="2" y="1261.4" class="st15" width="1920" height="305"/>
		</g>
		<text transform="matrix(1 0 0 1 1543.8838 1324.0298)" class="st16 st21 st24">Поделиться</text>
		<path class="st16" d="M1637.7,1343c-14.4,0-26,11.6-26,26c0,14.4,11.6,26,26,26c14.4,0,26-11.6,26-26
			C1663.7,1354.7,1652,1343,1637.7,1343z M1644.2,1360.9h-3.4c-0.9,0-1.5,0.8-1.5,1.7v1.5h4.8l-0.8,4.8h-4v13h-4.9v-13h-3.2v-4.8
			h3.2v-2.5h0c0.1-2.8,1.1-5.5,5.8-5.7v0h3.9V1360.9z"/>
		<path class="st16" d="M1707.1,1343.4c-14.4,0-26,11.6-26,26s11.6,26,26,26c14.4,0,26-11.6,26-26S1721.5,1343.4,1707.1,1343.4z
			 M1720,1365.3c0,0.3,0,0.5,0,0.8c0,8.2-6.3,17.7-17.7,17.7c-3.5,0-6.8-1-9.5-2.8c0.5,0.1,1,0.1,1.5,0.1c2.9,0,5.6-1,7.7-2.7
			c-2.7-0.1-5-1.8-5.8-4.3c0.4,0.1,0.8,0.1,1.2,0.1c0.6,0,1.1-0.1,1.6-0.2c-2.8-0.6-5-3.1-5-6.1c0,0,0-0.1,0-0.1
			c0.8,0.5,1.8,0.7,2.8,0.8c-1.7-1.1-2.8-3-2.8-5.2c0-1.1,0.3-2.2,0.8-3.1c3.1,3.8,7.6,6.2,12.8,6.5c-0.1-0.5-0.2-0.9-0.2-1.4
			c0-3.4,2.8-6.2,6.2-6.2c1.8,0,3.4,0.8,4.5,2c1.4-0.3,2.7-0.8,3.9-1.5c-0.5,1.5-1.4,2.7-2.7,3.4c1.3-0.1,2.5-0.5,3.6-1
			C1722.2,1363.3,1721.2,1364.4,1720,1365.3z"/>
		<path class="st16" d="M1570.1,1341.5c-14.4,0-26,11.6-26,26c0,14.4,11.6,26,26,26c14.4,0,26-11.6,26-26
			C1596.1,1353.1,1584.5,1341.5,1570.1,1341.5z M1585,1378.9l-4.6,0.1c0,0-1,0.2-2.3-0.7c-1.7-1.2-3.3-4.2-4.6-3.8
			c-1.3,0.4-1.2,3.1-1.2,3.1s0,0.6-0.3,0.9c-0.3,0.3-0.9,0.4-0.9,0.4h-2c0,0-4.5,0.3-8.5-3.9c-4.3-4.5-8.1-13.4-8.1-13.4
			s-0.2-0.6,0-0.9c0.3-0.3,1-0.3,1-0.3l4.9,0c0,0,0.5,0.1,0.8,0.3c0.3,0.2,0.4,0.6,0.4,0.6s0.8,2,1.8,3.8c2,3.5,3,4.3,3.7,3.9
			c1-0.6,0.7-5,0.7-5s0-1.6-0.5-2.3c-0.4-0.6-1.2-0.7-1.5-0.8c-0.3,0,0.2-0.7,0.8-1c0.9-0.4,2.4-0.5,4.3-0.4c1.4,0,1.8,0.1,2.4,0.2
			c1.7,0.4,1.1,2,1.1,5.7c0,1.2-0.2,2.9,0.7,3.5c0.4,0.2,1.3,0,3.6-3.8c1.1-1.8,1.9-4,1.9-4s0.2-0.4,0.5-0.6
			c0.3-0.2,0.7-0.1,0.7-0.1l5.1,0c0,0,1.5-0.2,1.8,0.5c0.3,0.7-0.6,2.4-2.7,5.2c-3.4,4.6-3.8,4.2-1,6.8c2.7,2.5,3.3,3.8,3.4,3.9
			C1587.4,1378.7,1585,1378.9,1585,1378.9z"/>
		<path class="st16" d="M1778.1,1341.5c-14.4,0-26,11.6-26,26s11.6,26,26,26c14.4,0,26-11.6,26-26S1792.5,1341.5,1778.1,1341.5z
			 M1779.9,1375.7c-2.7,3.4-7.6,4.4-11.6,3.1c-3.4-1.1-6.1-4.2-7-7.7c-0.2-0.8-0.3-1.6-0.3-2.5c0-0.3,0-0.7,0-1
			c0.4-5.1,5-9.6,10.1-9.7c2.8-0.2,5.6,0.9,7.7,2.6l0,0l0,0c-0.9,1-1.8,1.9-2.7,2.8c-1.9-1.1-4.1-2-6.3-1.2c-3.5,1-5.7,5.2-4.4,8.7
			c0.3,0.9,0.8,1.7,1.4,2.4c1.9,2,5,2.8,7.6,1.7c1.8-0.6,3-2.3,3.5-4.1c-2,0-4.1,0-6.1-0.1v0h0c0-1.2,0-2.4,0-3.6
			c3.4,0,6.8,0,10.3,0v0c0,0,0,0,0,0C1782.3,1370.1,1781.9,1373.3,1779.9,1375.7z M1794.9,1367.1c0,1,0,2,0,3.1v0c-1,0-2,0-3.1,0
			c0,1,0,2,0,3.1c-1,0-2,0-3.1,0c0-1,0-2,0-3.1c-1,0-2,0-3.1,0v0c0-1,0-2,0-3.1v0c1,0,2,0,3.1,0c0-1,0-2,0-3.1c1,0,2,0,3,0
			c0,1,0,2,0,3.1C1792.8,1367.1,1793.9,1367.1,1794.9,1367.1L1794.9,1367.1z"/>
		<text transform="matrix(1 0 0 1 72.8838 1317.0298)" class="st16 st21 st24">О сайте</text>
		<text transform="matrix(1 0 0 1 72.8838 1364.0298)" class="st16 st21 st24">Помощь</text>
		<text transform="matrix(1 0 0 1 72.8838 1414.0298)" class="st16 st21 st24">Обратная связь</text>
		<text transform="matrix(1 0 0 1 291.8838 1528.0298)" class="st16 st21 st24">Политика конфиденциальности</text>
		<g>
			<text transform="matrix(1 0 0 1 73.1455 1527.71)" class="st16 st21 st24">© 2017</text>
		</g>
		
			<image style="overflow:visible;" width="96" height="96" xlink:href="icons8-Android OS-96.png"  transform="matrix(0.4583 0 0 0.4583 1784 1484.3818)">
		</image>
		<text transform="matrix(1 0 0 1 1542.8838 1518.0298)" class="st16 st21 st24">Скачать приложение</text>
	</g>
	<g id="ads_bar">
		<g id="ads">
			<rect x="2" y="794.6" class="st16" width="1920" height="432.8"/>
			<path class="st17" d="M1922,795v432H2V795H1922 M1923,794h-1H2H1v1v432v1h1h1920h1v-1V795V794L1923,794z"/>
		</g>
		<g>
			<text transform="matrix(1 0 0 1 69 839.9897)" class="st8 st9">ПОХОЖИЕ ОБЪЯВЛЕНИЯ</text>
		</g>
		<g id="back">
			<path class="st12" d="M52,1029.6c-9.5,0-17.3-7.8-17.3-17.3S42.5,995,52,995s17.3,7.8,17.3,17.3S61.5,1029.6,52,1029.6z"/>
			<path class="st16" d="M54.3,1003c-0.5,0-1,0.2-1.3,0.5l0,0l-8,7.3c-0.4,0.4-0.6,0.9-0.6,1.5s0.2,1.1,0.6,1.5l8,7.3l0,0
				c0.4,0.3,0.8,0.5,1.3,0.5c1.1,0,2-0.9,2-2c0-0.6-0.3-1.1-0.7-1.5l0,0l-6.4-5.9l6.4-5.9l0,0c0.4-0.4,0.7-0.9,0.7-1.5
				C56.3,1003.9,55.4,1003,54.3,1003z"/>
		</g>
		<g id="forward">
			<path class="st12" d="M1849.7,1013.3c0-9.5,7.8-17.3,17.3-17.3s17.3,7.8,17.3,17.3s-7.8,17.3-17.3,17.3
				S1849.7,1022.9,1849.7,1013.3z"/>
			<path class="st16" d="M1862.7,1006c0,0.6,0.3,1.1,0.7,1.5l0,0l6.4,5.9l-6.4,5.9l0,0c-0.4,0.4-0.7,0.9-0.7,1.5c0,1.1,0.9,2,2,2
				c0.5,0,1-0.2,1.3-0.5l0,0l8-7.3c0.4-0.4,0.6-0.9,0.6-1.5s-0.2-1.1-0.6-1.5l-8-7.3l0,0c-0.4-0.3-0.8-0.5-1.3-0.5
				C1863.6,1004,1862.7,1004.9,1862.7,1006z"/>
		</g>
		<g id="item">
			<g>
				<path id="text_holed_21_" class="st5" d="M124.5,1122.5h254.4v67.4c0,1.4-1.1,2.6-2.6,2.6H127.1c-1.4,0-2.6-1.1-2.6-2.6V1122.5z
					"/>
				<polygon id="star_21_" class="st18" points="353.7,1157.8 356.9,1164.2 363.9,1165.2 358.8,1170.2 360,1177.2 353.7,1173.9 
					347.4,1177.2 348.6,1170.2 343.5,1165.2 350.5,1164.2 				"/>
				<text transform="matrix(0.9998 0 0 1 138.9453 1173.2896)" class="st33 st21 st22">Zara</text>
				<text transform="matrix(0.9998 0 0 1 137.9453 1148.2285)" class="st21" style="font-size:17.8082px;">Бомбер</text>
				<text transform="matrix(0.9998 0 0 1 312.4028 1147.8726)" class="st21" style="font-size:17.8082px;">1500 ₽</text>
				
					<image style="overflow:visible;" width="963" height="963" xlink:href="8EB9BB16.jpg"  transform="matrix(0.2642 0 0 0.2642 124.5 867.5)">
				</image>
				<path id="cover_8_" class="st19" d="M379.5,1122.5H125.1V870.7c0-1.4,1.1-2.6,2.6-2.6H377c1.4,0,2.6,1.1,2.6,2.6v251.8H379.5z"
					/>
				<path class="st20" d="M368.3,1084.7h-52.1c-1.8,0-3.2,1.4-3.2,3.2v22.8c0,1.8,1.4,3.2,3.2,3.2h52.1c1.8,0,3.2-1.4,3.2-3.2v-22.8
					C371.6,1086.1,370.1,1084.7,368.3,1084.7z"/>
				<path id="like_1_" class="st11" d="M356.8,1090.1c-1.1,0-2.1,0.3-3,1c-0.8,0.7-1.4,1.5-1.7,2.1c-0.3-0.6-0.9-1.4-1.7-2.1
					c-0.9-0.7-1.9-1-3-1c-3.1,0-5.4,2.5-5.4,5.8c0,3.6,2.9,6,7.2,9.7c0.7,0.6,1.6,1.3,2.4,2.1c0.1,0.1,0.3,0.2,0.4,0.2
					s0.3-0.1,0.4-0.2c0.9-0.8,1.7-1.5,2.4-2.1c4.4-3.7,7.2-6.2,7.2-9.7C362.2,1092.6,359.9,1090.1,356.8,1090.1z"/>
				<text transform="matrix(0.9998 0 0 1 318.5391 1105.4541)" class="st16 st21" style="font-size:15.3606px;">20</text>
				<path id="location_1_" class="st16" d="M143,877.7c-4.4,0-8,3.6-8,8c0,1.1,0.2,2.2,0.7,3.2c2,4.4,5.8,9,6.9,10.3
					c0.1,0.1,0.2,0.2,0.3,0.2s0.3-0.1,0.3-0.2c1.1-1.3,4.9-5.9,6.9-10.3c0.5-1,0.7-2.1,0.7-3.2C151,881.2,147.4,877.7,143,877.7z
					 M143,889.8c-2.3,0-4.1-1.9-4.1-4.1c0-2.3,1.9-4.1,4.1-4.1s4.1,1.9,4.1,4.1C147.2,887.9,145.3,889.8,143,889.8z"/>
				<text transform="matrix(0.9998 0 0 1 159.9487 893.8809)" class="st16 st21 st22">Москва</text>
				<path id="send_1_" class="st16" d="M149.4,920.4h-4v-4c0-1-0.8-1.8-1.8-1.8s-1.8,0.8-1.8,1.8v4h-4c-1,0-1.8,0.8-1.8,1.8
					s0.8,1.8,1.8,1.8h4v4c0,1,0.8,1.8,1.8,1.8s1.8-0.8,1.8-1.8v-4h4c1,0,1.8-0.8,1.8-1.8C151.2,921.2,150.4,920.4,149.4,920.4z"/>
				<text transform="matrix(0.9998 0 0 1 159.9487 926.9526)" class="st16 st21 st22">Пересылка</text>
				<path id="photo_holer_21_" class="st23" d="M378.9,1122.5H124.5V870.7c0-1.4,1.1-2.6,2.6-2.6h249.3c1.4,0,2.6,1.1,2.6,2.6v251.8
					H378.9z"/>
				<text id="size_8_" transform="matrix(0.9998 0 0 1 352.3213 899.5571)" class="st16 st21 st24 st25">S</text>
				<g id="cam_8_" class="st26">
					<path class="st27" d="M168.4,911.5c-2.2-2.2-4.8-3.3-7.9-3.3h-9.7l-2.2-5.9c-0.6-1.4-1.6-2.6-3-3.7c-1.5-1-3-1.5-4.5-1.5h-22.3
						c-1.5,0-3,0.5-4.5,1.5s-2.5,2.3-3,3.7l-2.2,5.9h-9.7c-3.1,0-5.7,1.1-7.9,3.3c-2.2,2.2-3.3,4.8-3.3,7.9v39
						c0,3.1,1.1,5.7,3.3,7.9c2.2,2.2,4.8,3.3,7.9,3.3h61.2c3.1,0,5.7-1.1,7.9-3.3s3.3-4.8,3.3-7.9v-39
						C171.6,916.3,170.5,913.7,168.4,911.5z M143.6,952.7c-3.8,3.8-8.4,5.7-13.8,5.7c-5.4,0-10-1.9-13.8-5.7s-5.7-8.4-5.7-13.8
						s1.9-10,5.7-13.8c3.8-3.8,8.4-5.7,13.8-5.7c5.4,0,10,1.9,13.8,5.7s5.7,8.4,5.7,13.8C149.4,944.2,147.4,948.8,143.6,952.7z"/>
					<path class="st27" d="M129.9,926.4c-3.5,0-6.4,1.2-8.9,3.7s-3.7,5.4-3.7,8.9s1.2,6.4,3.7,8.9s5.4,3.7,8.9,3.7
						c3.5,0,6.4-1.2,8.9-3.7s3.7-5.4,3.7-8.9s-1.2-6.4-3.7-8.9S133.3,926.4,129.9,926.4z"/>
				</g>
			</g>
		</g>
		<g id="item_1_">
			<g>
				<path id="text_holed_19_" class="st5" d="M407.1,1120.9h254.7v67.5c0,1.4-1.1,2.6-2.6,2.6H409.6c-1.4,0-2.6-1.1-2.6-2.6v-67.5
					H407.1z"/>
				<polygon id="star_19_" class="st18" points="636.6,1156.2 639.7,1162.6 646.8,1163.6 641.7,1168.6 642.9,1175.6 636.6,1172.3 
					630.2,1175.6 631.4,1168.6 626.3,1163.6 633.4,1162.6 				"/>
				<text transform="matrix(1 0 0 1 420.5249 1171.6807)" class="st33 st21" style="font-size:15.2809px;">5th studio</text>
				<text transform="matrix(1 0 0 1 420.5244 1146.5928)" class="st21" style="font-size:17.8277px;">Укороченное пальто</text>
				<text transform="matrix(1 0 0 1 592.8813 1146.2363)" class="st21" style="font-size:17.8277px;">2700 ₽</text>
				
					<image style="overflow:visible;" width="1710" height="1704" xlink:href="8EB9BB17.jpg"  transform="matrix(0.1492 0 0 0.1492 407.1199 865.3495)">
				</image>
				<path class="st20" d="M651.2,1083h-52.1c-1.8,0-3.2,1.4-3.2,3.2v22.8c0,1.8,1.4,3.2,3.2,3.2h52.1c1.8,0,3.2-1.4,3.2-3.2v-22.8
					C654.4,1084.4,653,1083,651.2,1083z"/>
				<path id="like_20_" class="st28" d="M639.7,1088.4c-1.1,0-2.1,0.3-3,1c-0.8,0.7-1.4,1.5-1.7,2.1c-0.3-0.6-0.9-1.4-1.7-2.1
					c-0.9-0.7-1.9-1-3-1c-3.1,0-5.4,2.5-5.4,5.8c0,3.6,2.9,6,7.2,9.8c0.7,0.6,1.6,1.3,2.5,2.1c0.1,0.1,0.3,0.2,0.4,0.2
					s0.3-0.1,0.4-0.2c0.9-0.8,1.7-1.5,2.5-2.1c4.4-3.7,7.2-6.2,7.2-9.8C645,1090.9,642.7,1088.4,639.7,1088.4z"/>
				<text id="_x33__17_" transform="matrix(1 0 0 1 601.3438 1103.7715)" class="st16 st21" style="font-size:15.3774px;">13</text>
				<path id="photo_holer_19_" class="st23" d="M661.7,1120.9H407.1V868.7c0-1.4,1.1-2.6,2.6-2.6h249.6c1.4,0,2.6,1.1,2.6,2.6v252.2
					H661.7z"/>
			</g>
		</g>
		<g id="item_2_">
			<g>
				<path id="text_holed_17_" class="st5" d="M695.2,1120.6h254.3v67.4c0,1.4-1.1,2.6-2.6,2.6H697.8c-1.4,0-2.6-1.1-2.6-2.6V1120.6z
					"/>
				<polygon id="star_17_" class="st18" points="924.4,1155.8 927.5,1162.2 934.6,1163.3 929.5,1168.2 930.7,1175.3 924.4,1172 
					918,1175.3 919.2,1168.2 914.1,1163.3 921.2,1162.2 				"/>
				<text transform="matrix(1 0 0 1 708.6597 1171.3389)" class="st33 st21" style="font-size:15.2571px;">Weekday</text>
				<text transform="matrix(1 0 0 1 708.6597 1146.2896)" class="st21" style="font-size:17.7999px;">Пальто-кокон</text>
				<text transform="matrix(1 0 0 1 880.7476 1145.9336)" class="st21" style="font-size:17.7999px;">5800 ₽</text>
				
					<image style="overflow:visible;" width="498" height="496" xlink:href="8EB9BB12.jpg"  transform="matrix(0.5126 0 0 0.5106 695.4202 866.9231)">
				</image>
				<path class="st20" d="M939,1082.8h-52c-1.8,0-3.2,1.4-3.2,3.2v22.8c0,1.8,1.4,3.2,3.2,3.2h52c1.8,0,3.2-1.4,3.2-3.2V1086
					C942.2,1084.2,940.7,1082.8,939,1082.8z"/>
				<path id="like_18_" class="st28" d="M927.5,1088.2c-1.1,0-2.1,0.3-3,1c-0.8,0.7-1.4,1.5-1.7,2.1c-0.3-0.6-0.9-1.4-1.7-2.1
					c-0.9-0.7-1.9-1-3-1c-3.1,0-5.4,2.5-5.4,5.8c0,3.6,2.9,6,7.2,9.7c0.7,0.6,1.6,1.3,2.4,2.1c0.1,0.1,0.3,0.2,0.4,0.2
					s0.3-0.1,0.4-0.2c0.9-0.8,1.7-1.5,2.4-2.1c4.4-3.7,7.2-6.2,7.2-9.7C932.8,1090.7,930.5,1088.2,927.5,1088.2z"/>
				<text id="_x33__15_" transform="matrix(1 0 0 1 889.1973 1103.5361)" class="st16 st21" style="font-size:15.3535px;">10</text>
				<path id="photo_holer_17_" class="st23" d="M949.5,1120.6H695.2V868.9c0-1.4,1.1-2.6,2.6-2.6H947c1.4,0,2.6,1.1,2.6,2.6
					L949.5,1120.6L949.5,1120.6z"/>
			</g>
		</g>
		<g id="item_6_">
			<g>
				<path id="text_holed_16_" class="st5" d="M982.3,1120.7h254.4v67.4c0,1.4-1.1,2.6-2.6,2.6H984.8c-1.4,0-2.6-1.1-2.6-2.6
					L982.3,1120.7L982.3,1120.7z"/>
				<polygon id="star_16_" class="st18" points="1211.6,1155.9 1214.7,1162.3 1221.8,1163.3 1216.7,1168.3 1217.9,1175.4 
					1211.6,1172.1 1205.2,1175.4 1206.4,1168.3 1201.3,1163.3 1208.4,1162.3 				"/>
				
					<text transform="matrix(1 0 0 1 995.7241 1171.4287)" class="st21" style="display:none;fill:#808080;enable-background:new    ; font-size:15.2666px;">5th studio</text>
				<text transform="matrix(1 0 0 1 995.7246 1146.3633)" class="st21" style="font-size:17.811px;">Пиджак</text>
				<text transform="matrix(1 0 0 1 1167.9199 1146.0068)" class="st21" style="font-size:17.811px;">1100 ₽</text>
				
					<image style="overflow:visible;" width="516" height="514" xlink:href="8EB9BB1D.jpg"  transform="matrix(0.4985 0 0 0.4898 980.3467 867.6497)">
				</image>
				<path class="st20" d="M1226.2,1082.8h-52.1c-1.8,0-3.2,1.4-3.2,3.2v22.8c0,1.8,1.4,3.2,3.2,3.2h52.1c1.8,0,3.2-1.4,3.2-3.2V1086
					C1229.4,1084.3,1228,1082.8,1226.2,1082.8z"/>
				<path id="like_17_" class="st28" d="M1214.7,1088.2c-1.1,0-2.1,0.3-3,1c-0.8,0.7-1.4,1.5-1.7,2.1c-0.3-0.6-0.9-1.4-1.7-2.1
					c-0.9-0.7-1.9-1-3-1c-3.1,0-5.4,2.5-5.4,5.8c0,3.6,2.9,6,7.2,9.7c0.7,0.6,1.6,1.3,2.4,2.1c0.1,0.1,0.3,0.2,0.4,0.2
					s0.3-0.1,0.4-0.2c0.9-0.8,1.7-1.5,2.4-2.1c4.4-3.7,7.2-6.2,7.2-9.7C1220,1090.7,1217.7,1088.2,1214.7,1088.2z"/>
				<text id="_x33__16_" transform="matrix(1 0 0 1 1184.9189 1103.582)" class="st16 st21" style="font-size:15.363px;">7</text>
				<path id="photo_holer_16_" class="st23" d="M1236.7,1120.7H982.3V868.8c0-1.4,1.1-2.6,2.6-2.6h249.3c1.4,0,2.6,1.1,2.6,2.6
					L1236.7,1120.7L1236.7,1120.7z"/>
			</g>
		</g>
		<g id="item_9_">
			<g>
				<path id="text_holed_18_" class="st5" d="M1268.2,1120.7h254.3v67.4c0,1.4-1.1,2.6-2.6,2.6h-249.2c-1.4,0-2.6-1.1-2.6-2.6
					L1268.2,1120.7L1268.2,1120.7z"/>
				<polygon id="star_18_" class="st18" points="1497.4,1156 1500.5,1162.4 1507.6,1163.4 1502.5,1168.4 1503.7,1175.4 
					1497.4,1172.1 1491,1175.4 1492.2,1168.4 1487.1,1163.4 1494.2,1162.4 				"/>
				<text transform="matrix(1 0 0 1 1281.6602 1171.4658)" class="st33 st21" style="font-size:15.2571px;">Arny Praht</text>
				<text transform="matrix(1 0 0 1 1281.6602 1146.416)" class="st21" style="font-size:17.7999px;">Рюкзак-трансфор...</text>
				<text transform="matrix(1 0 0 1 1453.748 1146.0605)" class="st21" style="font-size:17.7999px;">3500 ₽</text>
				
					<image style="overflow:visible;" width="496" height="496" xlink:href="8EB9BB1E.jpg"  transform="matrix(0.5121 0 0 0.5131 1268.1284 865.8713)">
				</image>
				<path class="st20" d="M1512,1082.9h-52c-1.8,0-3.2,1.4-3.2,3.2v22.8c0,1.8,1.4,3.2,3.2,3.2h52c1.8,0,3.2-1.4,3.2-3.2v-22.8
					C1515.2,1084.4,1513.7,1082.9,1512,1082.9z"/>
				<path id="like_19_" class="st28" d="M1500.5,1088.3c-1.1,0-2.1,0.3-3,1c-0.8,0.7-1.4,1.5-1.7,2.1c-0.3-0.6-0.9-1.4-1.7-2.1
					c-0.9-0.7-1.9-1-3-1c-3.1,0-5.4,2.5-5.4,5.8c0,3.6,2.9,6,7.2,9.7c0.7,0.6,1.6,1.3,2.4,2.1c0.1,0.1,0.3,0.2,0.4,0.2
					s0.3-0.1,0.4-0.2c0.9-0.8,1.7-1.5,2.4-2.1c4.4-3.7,7.2-6.2,7.2-9.7C1505.8,1090.8,1503.5,1088.3,1500.5,1088.3z"/>
				<text id="_x33__18_" transform="matrix(1 0 0 1 1470.7354 1103.6631)" class="st16 st21" style="font-size:15.3535px;">3</text>
				<path id="photo_holer_18_" class="st23" d="M1522.5,1120.7h-254.3V869c0-1.4,1.1-2.6,2.6-2.6H1520c1.4,0,2.6,1.1,2.6,2.6
					L1522.5,1120.7L1522.5,1120.7z"/>
			</g>
		</g>
		<g id="item_11_">
			<g>
				<path id="text_holed_20_" class="st5" d="M1558.2,1119.6h254.3v67.4c0,1.4-1.1,2.6-2.6,2.6h-249.2c-1.4,0-2.6-1.1-2.6-2.6
					L1558.2,1119.6L1558.2,1119.6z"/>
				<polygon id="star_20_" class="st18" points="1787.4,1154.8 1790.5,1161.2 1797.6,1162.3 1792.5,1167.2 1793.7,1174.3 
					1787.4,1171 1781,1174.3 1782.2,1167.2 1777.1,1162.3 1784.2,1161.2 				"/>
				<text transform="matrix(1 0 0 1 1571.6602 1170.3389)" class="st33 st21" style="font-size:15.2571px;">Levi’s</text>
				<text transform="matrix(1 0 0 1 1571.6602 1145.2896)" class="st21" style="font-size:17.7999px;">Утепленная джин...</text>
				<text transform="matrix(1 0 0 1 1743.748 1144.9336)" class="st21" style="font-size:17.7999px;">6000 ₽</text>
				
					<image style="overflow:visible;" width="601" height="599" xlink:href="8EB9BB1F.jpg"  transform="matrix(0.4175 0 0 0.4304 1560.6309 863.6321)">
				</image>
				<path class="st20" d="M1802,1081.8h-52c-1.8,0-3.2,1.4-3.2,3.2v22.8c0,1.8,1.4,3.2,3.2,3.2h52c1.8,0,3.2-1.4,3.2-3.2V1085
					C1805.2,1083.2,1803.7,1081.8,1802,1081.8z"/>
				<path id="like_21_" class="st28" d="M1790.5,1087.2c-1.1,0-2.1,0.3-3,1c-0.8,0.7-1.4,1.5-1.7,2.1c-0.3-0.6-0.9-1.4-1.7-2.1
					c-0.9-0.7-1.9-1-3-1c-3.1,0-5.4,2.5-5.4,5.8c0,3.6,2.9,6,7.2,9.7c0.7,0.6,1.6,1.3,2.4,2.1c0.1,0.1,0.3,0.2,0.4,0.2
					s0.3-0.1,0.4-0.2c0.9-0.8,1.7-1.5,2.4-2.1c4.4-3.7,7.2-6.2,7.2-9.7C1795.8,1089.7,1793.5,1087.2,1790.5,1087.2z"/>
				<text id="_x33__19_" transform="matrix(1 0 0 1 1760.7354 1102.5361)" class="st16 st21" style="font-size:15.3535px;">3</text>
				<path id="photo_holer_20_" class="st23" d="M1812.5,1119.6h-254.3V867.9c0-1.4,1.1-2.6,2.6-2.6H1810c1.4,0,2.6,1.1,2.6,2.6
					L1812.5,1119.6L1812.5,1119.6z"/>
			</g>
		</g>
		<g id="Слой_5" class="st26">
			<rect x="2.5" y="774.5" class="st29" width="206" height="206"/>
			<line class="st30" x1="16" y1="787" x2="23.5" y2="796.5"/>
			<line class="st30" x1="44.5" y1="918.5" x2="35" y2="913"/>
			<line class="st31" x1="33.9" y1="858.4" x2="41.6" y2="849.1"/>
			<line class="st30" x1="91.9" y1="895.8" x2="87.6" y2="885.7"/>
			<line class="st31" x1="108.9" y1="842.4" x2="120.6" y2="839.1"/>
			<line class="st31" x1="91.8" y1="928.2" x2="101.7" y2="921.3"/>
			<line class="st30" x1="85.1" y1="811.8" x2="74.4" y2="809.7"/>
			<line class="st31" x1="128.8" y1="805" x2="122.7" y2="794.5"/>
			<line class="st30" x1="160.9" y1="890.4" x2="152.6" y2="883.1"/>
			<line class="st31" x1="144.9" y1="929.4" x2="152.6" y2="920.1"/>
			<line class="st30" x1="188.9" y1="840.8" x2="184.6" y2="830.7"/>
			<line class="st30" x1="118.9" y1="963.4" x2="110.6" y2="956.1"/>
			<line class="st31" x1="199.8" y1="916" x2="193.7" y2="905.5"/>
			<line class="st30" x1="182.9" y1="968.8" x2="178.6" y2="958.7"/>
			<line class="st31" x1="38.9" y1="970.4" x2="50.6" y2="967.1"/>
		</g>
	</g>
</g>
<g id="Слой_1">
	<g id="container">
		<g id="background">
			<rect x="0.5" y="130" class="st16" width="1919" height="627.3"/>
			<path class="st17" d="M1919,130.7v625.9H1V130.7H1919 M1920,129.2h-1H1H0v1.4v625.9v1.4h1h1918h1v-1.4V130.7V129.2L1920,129.2z"
				/>
		</g>
		<g id="item_4_" class="st26">
			<g class="st32">
				<path id="text_holed_22_" class="st5" d="M1277.4,625.9h200v52.4c0,1.4-1.1,2.6-2.6,2.6H1280c-1.4,0-2.6-1.1-2.6-2.6V625.9z"/>
				<text transform="matrix(1 0 0 1 1288.0088 665.8317)" class="st33 st21 st34">Il Granchio</text>
				<text transform="matrix(1 0 0 1 1288.0088 646.1295)" class="st21 st35">Свитер</text>
				<path class="st20" d="M1468.5,596.2h-39.6c-1.8,0-3.2,1.4-3.2,3.2V616c0,1.8,1.4,3.2,3.2,3.2h39.6c1.8,0,3.2-1.4,3.2-3.2v-16.6
					C1471.7,597.6,1470.2,596.2,1468.5,596.2z"/>
				<path id="like_23_" class="st28" d="M1460.1,600.4c-0.9,0-1.7,0.3-2.3,0.8c-0.7,0.5-1.1,1.2-1.4,1.7c-0.3-0.5-0.7-1.1-1.4-1.7
					c-0.7-0.5-1.5-0.8-2.3-0.8c-2.4,0-4.2,2-4.2,4.6c0,2.8,2.3,4.7,5.7,7.7c0.6,0.5,1.2,1.1,1.9,1.7c0.1,0.1,0.2,0.1,0.3,0.1
					s0.2,0,0.3-0.1c0.7-0.6,1.3-1.2,1.9-1.7c3.4-2.9,5.7-4.8,5.7-7.7C1464.3,602.4,1462.5,600.4,1460.1,600.4z"/>
				<text id="_x33__20_" transform="matrix(1 0 0 1 1430.0049 612.5026)" class="st16 st21 st36">11</text>
				<path id="photo_holer_22_" class="st23" d="M1477.4,625.9h-200V428.5c0-1.4,1.1-2.6,2.6-2.6h194.9c1.4,0,2.6,1.1,2.6,2.6
					L1477.4,625.9L1477.4,625.9z"/>
			</g>
		</g>
		
			<image style="overflow:visible;" width="658" height="658" xlink:href="8EB9BB14.jpg"  transform="matrix(0.7599 0 0 0.7599 72 192)">
		</image>
		<g>
			<text transform="matrix(1 0 0 1 627.7999 214.9807)" class="st37 st9 st25">СВИТЕР</text>
		</g>
		<g>
			<text transform="matrix(1 0 0 1 627.9998 254.7001)" class="st33 st21 st38">Il Granchio</text>
		</g>
		<text transform="matrix(1 0 0 1 628.02 303.5332)"><tspan x="0" y="0" class="st21 st39">ОписаниеОписаниеОписаниеОписаниеОписаниеОписаниеОписание</tspan><tspan x="0" y="24" class="st21 st39">ОписаниеОписаниеОписаниеОписаниеОписаниеОписаниеОписание</tspan><tspan x="0" y="48" class="st21 st39">ОписаниеОписаниеОписаниеОписаниеОписаниеОписаниеОписание</tspan></text>
		<g>
			<text transform="matrix(1 0 0 1 627.9998 412.7001)" class="st21 st39">Размер:     S  42EU </text>
		</g>
		<text transform="matrix(1 0 0 1 628.02 441.5332)" class="st21 st39">*Комментарии к размеру</text>
		<path id="like_22_" class="st12" d="M811.8,197.1c-1.1,0-2.1,0.3-3,1c-0.8,0.7-1.4,1.5-1.7,2.1c-0.3-0.6-0.9-1.4-1.7-2.1
			c-0.9-0.7-1.9-1-3-1c-3.1,0-5.4,2.5-5.4,5.8c0,3.6,2.9,6,7.2,9.7c0.7,0.6,1.6,1.3,2.4,2.1c0.1,0.1,0.3,0.2,0.4,0.2
			c0.1,0,0.3-0.1,0.4-0.2c0.9-0.8,1.7-1.5,2.4-2.1c4.4-3.7,7.2-6.2,7.2-9.7C817.2,199.6,814.9,197.1,811.8,197.1z"/>
		<g>
			<text transform="matrix(1 0 0 1 773.5391 212.4541)" class="st33 st21 st38">11</text>
		</g>
		<polygon id="star_22_" class="st10" points="1252.3,191.4 1256.8,200.9 1267.2,202.4 1259.8,209.7 1261.4,219.9 1252.3,215.1 
			1243,219.9 1244.7,209.7 1237.2,202.4 1247.7,200.9 		"/>
		<path id="location_8_" d="M636,473.7c-4.4,0-8,3.6-8,8c0,1.1,0.2,2.2,0.7,3.2c2,4.4,5.8,9,6.9,10.3c0.1,0.1,0.2,0.2,0.3,0.2
			c0.1,0,0.3-0.1,0.3-0.2c1.1-1.3,4.9-5.9,6.9-10.3c0.5-1,0.7-2.1,0.7-3.2C644,477.2,640.4,473.7,636,473.7z M636,485.8
			c-2.3,0-4.1-1.9-4.1-4.1c0-2.3,1.9-4.1,4.1-4.1s4.1,1.9,4.1,4.1C640.2,483.9,638.3,485.8,636,485.8z"/>
		<g>
			<text transform="matrix(1 0 0 1 652.9487 489.8809)" class="st21 st39">Москва</text>
		</g>
		<path id="send_8_" d="M642.4,516.4h-4v-4c0-1-0.8-1.8-1.8-1.8s-1.8,0.8-1.8,1.8v4h-4c-1,0-1.8,0.8-1.8,1.8s0.8,1.8,1.8,1.8h4v4
			c0,1,0.8,1.8,1.8,1.8s1.8-0.8,1.8-1.8v-4h4c1,0,1.8-0.8,1.8-1.8C644.2,517.2,643.4,516.4,642.4,516.4z"/>
		<g>
			<text transform="matrix(1 0 0 1 652.9487 522.9526)" class="st21 st39">Пересылка</text>
		</g>
		<g id="back_1_">
			<path class="st12" d="M108.5,458.6c-9.5,0-17.3-7.8-17.3-17.3S99,424,108.5,424s17.3,7.8,17.3,17.3S118.1,458.6,108.5,458.6z"/>
			<path class="st16" d="M110.9,432c-0.5,0-1,0.2-1.3,0.5l0,0l-8,7.3c-0.4,0.4-0.6,0.9-0.6,1.5s0.2,1.1,0.6,1.5l8,7.3l0,0
				c0.4,0.3,0.8,0.5,1.3,0.5c1.1,0,2-0.9,2-2c0-0.6-0.3-1.1-0.7-1.5l0,0l-6.4-5.9l6.4-5.9l0,0c0.4-0.4,0.7-0.9,0.7-1.5
				C112.9,432.9,112,432,110.9,432z"/>
		</g>
		<g id="forward_1_">
			<path class="st12" d="M516.2,441.3c0-9.5,7.8-17.3,17.3-17.3s17.3,7.8,17.3,17.3s-7.8,17.3-17.3,17.3S516.2,450.9,516.2,441.3z"
				/>
			<path class="st16" d="M529.2,434c0,0.6,0.3,1.1,0.7,1.5l0,0l6.4,5.9l-6.4,5.9l0,0c-0.4,0.4-0.7,0.9-0.7,1.5c0,1.1,0.9,2,2,2
				c0.5,0,1-0.2,1.3-0.5l0,0l8-7.3c0.4-0.4,0.6-0.9,0.6-1.5s-0.2-1.1-0.6-1.5l-8-7.3l0,0c-0.4-0.3-0.8-0.5-1.3-0.5
				C530.1,432,529.2,432.9,529.2,434z"/>
		</g>
		
			<image style="overflow:visible;" width="242" height="242" xlink:href="EA1FC19C.jpg"  transform="matrix(0.3181 0 0 0.3181 1326 212)">
		</image>
		<text transform="matrix(1 0 0 1 1436.02 233.5332)" class="st21 st39">Алена Куприянова</text>
		<text transform="matrix(1 0 0 1 704.3594 612.8498)" class="st21 st9">1000 ₽</text>
		<g>
			<text transform="matrix(1 0 0 1 627.9487 612.9526)" class="st21 st39">Цена:</text>
		</g>
		<g id="stats">
			<g>
				<text transform="matrix(1 0 0 1 1336.5137 362.4297)" class="st21 st40">продано</text>
			</g>
			<text transform="matrix(1 0 0 1 1362.5508 341.3413)" class="st37 st41 st25">0</text>
			<g>
				<text transform="matrix(1 0 0 1 1460.6719 362.4297)" class="st21 st42">всего</text>
			</g>
			<text transform="matrix(1 0 0 1 1474.0439 341.3413)" class="st37 st41 st25">3</text>
			<g>
				<text transform="matrix(1 0 0 1 1563.5342 362.4297)" class="st21 st42">рейтинг</text>
			</g>
			<text transform="matrix(1 0 0 1 1573.25 341.3413)" class="st37 st41 st25">0/5</text>
			<path d="M1394.4,330.2l-3.7-3.7c-0.2-0.2-0.4-0.2-0.6-0.2c0,0,0,0,0,0c0,0-0.1,0-0.1,0c0,0-0.1,0-0.1,0h-1
				c-0.3,0-0.5,0.1-0.7,0.4c-0.3,0.5-1.1,0.8-1.9,0.8c-0.8,0-1.5-0.3-1.9-0.8c-0.2-0.2-0.4-0.4-0.7-0.4h-1c0,0-0.1,0-0.1,0
				c-0.2,0-0.5,0.1-0.7,0.2l-3.7,3.7c-0.3,0.3-0.3,0.8,0,1.2l2,2c0.2,0.2,0.4,0.2,0.6,0.2c0.2,0,0.4-0.1,0.6-0.2l0.5-0.5v7.3
				c0,0.5,0.4,0.8,0.8,0.8h7.1c0.5,0,0.8-0.4,0.8-0.8v-7.3l0.5,0.5c0.2,0.2,0.4,0.2,0.6,0.2c0,0,0,0,0,0c0.2,0,0.4-0.1,0.6-0.2l2-2
				C1394.8,331,1394.8,330.5,1394.4,330.2z"/>
			<path d="M1505.1,329.5l-3.7-3.7c-0.2-0.2-0.4-0.2-0.6-0.2c0,0,0,0,0,0c0,0-0.1,0-0.1,0c0,0-0.1,0-0.1,0h-1
				c-0.3,0-0.5,0.1-0.7,0.4c-0.3,0.5-1.1,0.8-1.9,0.8c-0.8,0-1.5-0.3-1.9-0.8c-0.2-0.2-0.4-0.4-0.7-0.4h-1c0,0-0.1,0-0.1,0
				c-0.2,0-0.5,0.1-0.7,0.2l-3.7,3.7c-0.3,0.3-0.3,0.8,0,1.2l2,2c0.2,0.2,0.4,0.2,0.6,0.2c0.2,0,0.4-0.1,0.6-0.2l0.5-0.5v7.3
				c0,0.5,0.4,0.8,0.8,0.8h7.1c0.5,0,0.8-0.4,0.8-0.8v-7.3l0.5,0.5c0.2,0.2,0.4,0.2,0.6,0.2c0,0,0,0,0,0c0.2,0,0.4-0.1,0.6-0.2l2-2
				C1505.4,330.3,1505.4,329.8,1505.1,329.5z"/>
			<g>
				<text transform="matrix(1 0 0 1 1653.7373 362.4302)" class="st21 st42">подписчиков</text>
			</g>
			<text transform="matrix(1 0 0 1 1693.7891 341.3413)" class="st37 st41 st25">0</text>
			<g>
				<text transform="matrix(1 0 0 1 1782.8027 362.4302)" class="st21 st42">лайка</text>
			</g>
			<text transform="matrix(1 0 0 1 1797.1924 341.3413)" class="st37 st41 st25">4</text>
		</g>
		<g id="follow">
			<rect x="1432.5" y="252.5" class="st5" width="192" height="34"/>
			<g>
				<text transform="matrix(1 0 0 1 1468.5884 274.8345)" class="st21 st39">Подписаться</text>
			</g>
		</g>
		<g id="contact">
			<rect x="1394.5" y="407.5" class="st5" width="385" height="48"/>
			<g>
				<text transform="matrix(1 0 0 1 1496.5513 436.8345)" class="st21 st39">Написать продавцу</text>
			</g>
		</g>
		<text transform="matrix(1 0 0 1 659.9487 688.9526)" class="st12 st21 st39">Пожаловаться</text>
		<g id="contacts">
			<path d="M1419.6,502.4l-2.9,0c0,0-0.6,0.1-1.4-0.4c-1.1-0.7-2.1-2.7-2.9-2.4c-0.8,0.3-0.8,2-0.8,2s0,0.4-0.2,0.6
				c-0.2,0.2-0.6,0.3-0.6,0.3h-1.3c0,0-2.8,0.2-5.3-2.4c-2.7-2.8-5.1-8.5-5.1-8.5s-0.1-0.4,0-0.5c0.2-0.2,0.6-0.2,0.6-0.2l3.1,0
				c0,0,0.3,0,0.5,0.2c0.2,0.1,0.3,0.4,0.3,0.4s0.5,1.3,1.2,2.4c1.3,2.2,1.9,2.7,2.3,2.5c0.6-0.3,0.4-3.1,0.4-3.1s0-1-0.3-1.5
				c-0.3-0.4-0.7-0.5-1-0.5c-0.2,0,0.1-0.4,0.5-0.6c0.6-0.3,1.5-0.3,2.7-0.3c0.9,0,1.2,0.1,1.5,0.2c1.1,0.3,0.7,1.2,0.7,3.6
				c0,0.8-0.1,1.8,0.4,2.2c0.2,0.2,0.8,0,2.3-2.4c0.7-1.2,1.2-2.5,1.2-2.5s0.1-0.2,0.3-0.3c0.2-0.1,0.4-0.1,0.4-0.1l3.2,0
				c0,0,1-0.1,1.1,0.3c0.2,0.5-0.4,1.5-1.7,3.3c-2.2,2.9-2.4,2.6-0.6,4.3c1.7,1.6,2.1,2.4,2.1,2.5
				C1421.1,502.3,1419.6,502.4,1419.6,502.4z"/>
			<g>
				<g>
					<path class="st43" d="M1402.4,561.3l6.5,5.1c0.3,0.2,0.7,0.3,1.1,0.3c0.4,0,0.8-0.1,1.1-0.3l6.5-5.1c0.5-0.4,0.4-0.7-0.3-0.7
						h-7.3h-7.3C1402,560.5,1401.9,560.9,1402.4,561.3z"/>
					<path class="st43" d="M1418,563.5l-7.1,5.4c-0.3,0.2-0.6,0.3-1,0.3c-0.3,0-0.7-0.1-1-0.3l-7.1-5.4c-0.5-0.4-1-0.2-1,0.5v8.8
						c0,0.7,0.5,1.2,1.2,1.2h7.8h7.8c0.7,0,1.2-0.5,1.2-1.2v-8.8C1418.9,563.3,1418.5,563.1,1418,563.5z"/>
				</g>
			</g>
			<g>
				<g>
					<g>
						<path d="M1419.2,537.1l-3.1-3.1c-0.6-0.6-1.6-0.6-2.3,0l-1.6,1.6c-0.1-0.1-0.2-0.1-0.3-0.2c-1-0.5-2.3-1.3-3.7-2.7
							c-1.4-1.4-2.2-2.8-2.7-3.7c-0.1-0.1-0.1-0.2-0.2-0.3l1-1l0.5-0.5c0.6-0.6,0.7-1.7,0-2.3l-3.1-3.1c-0.6-0.6-1.6-0.6-2.3,0
							l-0.9,0.9l0,0c-0.3,0.4-0.5,0.8-0.7,1.3c-0.2,0.4-0.3,0.9-0.3,1.3c-0.4,3.4,1.1,6.5,5.3,10.7c5.8,5.8,10.5,5.4,10.7,5.3
							c0.4-0.1,0.9-0.2,1.3-0.3c0.5-0.2,0.9-0.4,1.3-0.7l0,0l0.9-0.9C1419.8,538.8,1419.8,537.7,1419.2,537.1z"/>
					</g>
				</g>
			</g>
			<g>
				<text transform="matrix(1 0 0 1 1444.5884 540.8345)" class="st21 st39">8 (919) 102-96-98</text>
			</g>
			<g>
				<text transform="matrix(1 0 0 1 1444.5884 502.8345)" class="st21 st39">Страница ВК</text>
			</g>
			<g>
				<text transform="matrix(1 0 0 1 1444.5884 573.8345)" class="st21 st39">akuprianova57@gmail.com</text>
			</g>
		</g>
		<line class="st23" x1="1306" y1="191" x2="1306" y2="691"/>
		<g>
			<path class="st12" d="M636.5,668.5c-5.5,0-10,4.5-10,10c0,5.5,4.5,10,10,10c5.5,0,10-4.5,10-10
				C646.5,673,642.1,668.5,636.5,668.5z M636.5,686.7c-4.5,0-8.1-3.6-8.1-8.1s3.6-8.1,8.1-8.1s8.1,3.6,8.1,8.1
				S641,686.7,636.5,686.7z M636.5,672.9c-0.7,0-1.3,0.4-1.3,1v5.5c0,0.6,0.5,1,1.3,1c0.7,0,1.3-0.4,1.3-1v-5.5
				C637.8,673.3,637.2,672.9,636.5,672.9z M636.5,681.7c-0.7,0-1.2,0.6-1.2,1.2c0,0.7,0.6,1.2,1.2,1.2c0.7,0,1.2-0.6,1.2-1.2
				C637.8,682.2,637.2,681.7,636.5,681.7z"/>
		</g>
		<g>
			<g>
				<path d="M330.4,714.1c-0.5-0.5-1.1-0.8-1.9-0.8h-2.3l-0.5-1.4c-0.1-0.3-0.4-0.6-0.7-0.9c-0.4-0.2-0.7-0.4-1.1-0.4h-5.3
					c-0.4,0-0.7,0.1-1.1,0.4c-0.4,0.2-0.6,0.5-0.7,0.9l-0.5,1.4h-2.3c-0.7,0-1.4,0.3-1.9,0.8c-0.5,0.5-0.8,1.1-0.8,1.9v9.3
					c0,0.7,0.3,1.4,0.8,1.9c0.5,0.5,1.1,0.8,1.9,0.8h14.7c0.7,0,1.4-0.3,1.9-0.8c0.5-0.5,0.8-1.1,0.8-1.9V716
					C331.2,715.2,330.9,714.6,330.4,714.1z M324.5,723.9c-0.9,0.9-2,1.4-3.3,1.4c-1.3,0-2.4-0.5-3.3-1.4c-0.9-0.9-1.4-2-1.4-3.3
					c0-1.3,0.5-2.4,1.4-3.3c0.9-0.9,2-1.4,3.3-1.4c1.3,0,2.4,0.5,3.3,1.4c0.9,0.9,1.4,2,1.4,3.3C325.9,721.9,325.4,723,324.5,723.9z
					"/>
			</g>
		</g>
		<g>
			<text transform="matrix(1 0 0 1 341.9487 727.8809)" class="st21 st39">3</text>
		</g>
	</g>
</g>
</svg>
