<?xml version="1.0" encoding="utf-8"?>
<!-- Generator: Adobe Illustrator 21.0.0, SVG Export Plug-In . SVG Version: 6.00 Build 0)  -->
<svg version="1.1" id="Слой_1" xmlns="http://www.w3.org/2000/svg" xmlns:xlink="http://www.w3.org/1999/xlink" x="0px" y="0px"
	 viewBox="0 0 1920 1080" style="enable-background:new 0 0 1920 1080;" xml:space="preserve">
<style type="text/css">
	.st0{fill:none;}
	.st1{fill:#FFEAEA;}
	.st2{fill:#FFFEE1;}
	.st3{fill:none;stroke:#F4D3D3;stroke-width:3;stroke-linecap:round;stroke-miterlimit:10;}
	.st4{fill:none;stroke:#FFFFFF;stroke-width:3;stroke-linecap:round;stroke-miterlimit:10;}
	.st5{fill:url(#Новый_образец_узора_1);}
	.st6{fill:url(#Unnamed_Pattern_2);}
	.st7{display:none;fill:#BCBCBC;}
	.st8{fill:#FFFFFF;}
	.st9{fill:#E0E0E0;}
	.st10{font-family:'Anton-Regular';}
	.st11{font-size:30.7471px;}
	.st12{font-family:'OpenSansCondensed-Light';}
	.st13{font-size:26px;}
	.st14{letter-spacing:2;}
	.st15{fill:#F2B303;}
	.st16{fill:#D65600;}
	.st17{fill:#BCBCBC;}
	.st18{display:none;fill:#C1F4EE;}
	.st19{fill:#E7ECED;}
	.st20{fill:#FFFFFF;stroke:#E0E0E0;stroke-miterlimit:10;}
	.st21{fill:none;stroke:#BCBCBC;stroke-width:1.5;stroke-miterlimit:10;}
	.st22{fill:#808080;}
	.st23{font-family:'ArialMT';}
	.st24{font-size:15.2642px;}
	.st25{font-size:17.8082px;}
	.st26{opacity:0.3;stroke:#E0E0E0;stroke-miterlimit:10;}
	.st27{opacity:0.3;}
	.st28{font-size:15.3606px;}
	.st29{fill:none;stroke:#E0E0E0;stroke-miterlimit:10;}
	.st30{font-size:24px;}
	.st31{display:none;}
	.st32{display:inline;fill:#FFEAEA;}
	.st33{font-size:15.2809px;}
	.st34{font-size:17.8277px;}
	.st35{fill:none;stroke:#FFFFFF;stroke-width:1.5;stroke-miterlimit:10;}
	.st36{font-size:15.3774px;}
	.st37{font-size:15.2571px;}
	.st38{font-size:17.7999px;}
	.st39{font-size:15.3535px;}
	.st40{display:none;fill:#808080;}
	.st41{font-size:15.2666px;}
	.st42{font-size:17.811px;}
	.st43{font-size:15.363px;}
	.st44{display:inline;}
	.st45{font-size:12px;}
	.st46{font-size:14px;}
	.st47{font-size:12.0758px;}
	.st48{display:inline;fill:#FFFEE1;}
	.st49{display:inline;fill:none;stroke:#F4D3D3;stroke-width:3;stroke-linecap:round;stroke-miterlimit:10;}
	.st50{display:inline;fill:none;stroke:#FFFFFF;stroke-width:3;stroke-linecap:round;stroke-miterlimit:10;}
	.st51{display:inline;fill:#999999;}
	.st52{display:inline;fill:#E0E0E0;}
	.st53{font-size:40px;}
	.st54{letter-spacing:4;}
	.st55{fill:#BDCCD4;}
</style>
<pattern  width="224" height="224" patternUnits="userSpaceOnUse" id="Unnamed_Pattern_2" viewBox="0 -224 224 224" style="overflow:visible;">
	<g>
		<rect x="0" y="-224" class="st0" width="224" height="224"/>
		<rect x="0" y="-224" class="st1" width="224" height="224"/>
	</g>
</pattern>
<pattern  width="206" height="206" patternUnits="userSpaceOnUse" id="Новый_образец_узора_1" viewBox="0 -206 206 206" style="overflow:visible;">
	<g>
		<rect x="0" y="-206" class="st0" width="206" height="206"/>
		<g>
			<rect x="0" y="-206" class="st2" width="206" height="206"/>
		</g>
		<g>
			<line class="st3" x1="13.5" y1="-193.5" x2="21" y2="-184"/>
		</g>
		<g>
			<line class="st3" x1="42" y1="-62" x2="32.5" y2="-67.5"/>
		</g>
		<g>
			<line class="st4" x1="31.4" y1="-122.1" x2="39.1" y2="-131.4"/>
		</g>
		<g>
			<line class="st3" x1="89.4" y1="-84.7" x2="85.1" y2="-94.8"/>
		</g>
		<g>
			<line class="st4" x1="106.4" y1="-138.1" x2="118.1" y2="-141.4"/>
		</g>
		<g>
			<line class="st4" x1="89.3" y1="-52.3" x2="99.2" y2="-59.2"/>
		</g>
		<g>
			<line class="st3" x1="82.6" y1="-168.7" x2="71.9" y2="-170.8"/>
		</g>
		<g>
			<line class="st4" x1="126.3" y1="-175.5" x2="120.2" y2="-186"/>
		</g>
		<g>
			<line class="st3" x1="158.4" y1="-90.1" x2="150.1" y2="-97.4"/>
		</g>
		<g>
			<line class="st4" x1="142.4" y1="-51.1" x2="150.1" y2="-60.4"/>
		</g>
		<g>
			<line class="st3" x1="186.4" y1="-139.7" x2="182.1" y2="-149.8"/>
		</g>
		<g>
			<line class="st3" x1="116.4" y1="-17.1" x2="108.1" y2="-24.4"/>
		</g>
		<g>
			<line class="st4" x1="197.3" y1="-64.5" x2="191.2" y2="-75"/>
		</g>
		<g>
			<line class="st3" x1="180.4" y1="-11.7" x2="176.1" y2="-21.8"/>
		</g>
		<g>
			<line class="st4" x1="36.4" y1="-10.1" x2="48.1" y2="-13.4"/>
		</g>
	</g>
</pattern>
<image style="display:none;overflow:visible;" width="1920" height="1080" xlink:href="8EB9BB11.jpg" >
</image>
<image style="display:none;overflow:visible;" width="1920" height="1080" xlink:href="8EB9BB13.jpg"  transform="matrix(1 0 0 1 -841 -418)">
</image>
<g>
	<rect y="101.4" class="st5" width="1920" height="1298.6"/>
	<path class="st6" d="M1919,102.4V1399H1V102.4H1919 M1920,101.4H0V1400h1920V101.4L1920,101.4z"/>
</g>
<g id="nav_bar">
	<rect x="-0.5" y="100" class="st7" width="1920" height="2"/>
	<g>
		<rect x="-0.5" y="-0.5" class="st8" width="1921" height="101"/>
		<path class="st9" d="M1920,0v100H0V0H1920 M1921-1h-1H0h-1v1v100v1h1h1920h1v-1V0V-1L1921-1z"/>
	</g>
	<g id="logo">
		<g>
			<path d="M158.7,46.2l-27.4-15.6c-1.6-0.9-3.5-1.5-5.5-1.7V27c3.1-0.8,5.4-3.6,5.4-6.9c0-3.9-3.2-7.1-7.1-7.1s-7.1,3.2-7.1,7.1
				c0,0.9,0.7,1.7,1.7,1.7s1.7-0.7,1.7-1.7c0-2.1,1.7-3.7,3.7-3.7s3.7,1.7,3.7,3.7s-1.7,3.7-3.7,3.7c-0.9,0-1.7,0.7-1.7,1.7v3.4
				c-2,0.2-3.9,0.8-5.5,1.7L89.7,46.2c-1.9,1.1-3.2,3.1-3.2,5.4c0,3.4,2.7,6.1,6.1,6.1h63.1c3.4,0,6.1-2.7,6.1-6.1
				C161.9,49.3,160.7,47.3,158.7,46.2L158.7,46.2z M155.8,54.3H92.6c-1.5,0-2.8-1.2-2.8-2.8c0-1,0.5-1.9,1.5-2.4l27.4-15.6
				c0.6-0.3,2.6-1.4,5.5-1.4c2.9,0,5,1,5.5,1.4l27.4,15.6c0.9,0.5,1.4,1.4,1.4,2.4C158.5,53.1,157.3,54.3,155.8,54.3z"/>
			<text transform="matrix(1 0 0 1 84 86.9761)" class="st10 st11">SHMOT</text>
		</g>
	</g>
	<text transform="matrix(1 0 0 1 300 60)" class="st12 st13 st14">ЖЕНСКОЕ</text>
	<text transform="matrix(1 0 0 1 444 60)" class="st12 st13 st14">МУЖСКОЕ</text>
	<text transform="matrix(1 0 0 1 600 60)" class="st12 st13 st14">АКСЕССУАРЫ</text>
	<text transform="matrix(1 0 0 1 794 60)" class="st12 st13 st14">БРЕНДЫ</text>
	<text transform="matrix(1 0 0 1 932 60)" class="st12 st13 st14">ХАЙП</text>
	<g>
		<path class="st15" d="M1008.1,46.5c0.3,1.2-0.1,4.5-1.9,6.5c0.4-2.1-0.6-3.4-0.6-3.4s-0.3,1.9-1.6,3.8c-1.2,1.7-2,3.6-0.5,6.8
			c0.4,0.3,0.9,0.6,1.6,0.9c0.9,0.4,1.8,0.6,2.4,0.7c0.6-0.1,1.2-0.2,2-0.5c0.9-0.3,1.6-0.7,2.1-1.1
			C1013.9,55.6,1012.2,49.4,1008.1,46.5z"/>
		<path class="st16" d="M1003.5,60.2c-1.6-3.2-0.7-5.1,0.5-6.8c1.3-1.9,1.6-3.8,1.6-3.8s1,1.3,0.6,3.4c1.8-2,2.2-5.3,1.9-6.5
			c4.1,2.9,5.9,9.1,3.5,13.7c12.6-7.1,3.1-17.8,1.5-19c0.5,1.2,0.7,3.2-0.5,4.2c-1.9-7.1-6.5-8.6-6.5-8.6c0.5,3.7-2,7.7-4.4,10.7
			c-0.1-1.5-0.2-2.5-0.9-3.9c-0.2,2.7-2.2,4.8-2.8,7.5C997.2,54.7,998.5,57.4,1003.5,60.2z"/>
	</g>
	<polygon class="st17" points="1663.9,29.7 1670.4,42.8 1684.9,44.9 1674.4,55.1 1676.9,69.5 1663.9,62.7 1651,69.5 1653.5,55.1 
		1643,44.9 1657.5,42.8 	"/>
	<polygon class="st18" points="1663.9,29.7 1670.4,42.8 1684.9,44.9 1674.4,55.1 1676.9,69.5 1663.9,62.7 1651,69.5 1653.5,55.1 
		1643,44.9 1657.5,42.8 	"/>
	<path class="st17" d="M1761.4,65.5l-9.1-9.5c2.3-2.8,3.6-6.3,3.6-10c0-8.5-6.9-15.5-15.5-15.5c-8.5,0-15.5,6.9-15.5,15.5
		s6.9,15.5,15.5,15.5c3.2,0,6.3-1,8.9-2.8l9.2,9.6c0.4,0.4,0.9,0.6,1.5,0.6c0.5,0,1-0.2,1.4-0.6
		C1762.2,67.6,1762.2,66.4,1761.4,65.5z M1740.5,34.7c6.3,0,11.4,5.1,11.4,11.4s-5.1,11.4-11.4,11.4s-11.4-5.1-11.4-11.4
		S1734.2,34.7,1740.5,34.7z"/>
	<path class="st18" d="M1761.4,65.5l-9.1-9.5c2.3-2.8,3.6-6.3,3.6-10c0-8.5-6.9-15.5-15.5-15.5c-8.5,0-15.5,6.9-15.5,15.5
		s6.9,15.5,15.5,15.5c3.2,0,6.3-1,8.9-2.8l9.2,9.6c0.4,0.4,0.9,0.6,1.5,0.6c0.5,0,1-0.2,1.4-0.6
		C1762.2,67.6,1762.2,66.4,1761.4,65.5z M1740.5,34.7c6.3,0,11.4,5.1,11.4,11.4s-5.1,11.4-11.4,11.4s-11.4-5.1-11.4-11.4
		S1734.2,34.7,1740.5,34.7z"/>
	<g>
		<path class="st17" d="M1831.5,26c-14.6,0-26.5,11.9-26.5,26.5c0,8,3.6,15.2,9.2,20.1c0.6-0.8,1.4-1.5,2.3-1.9l9.1-3.9
			c0.5-0.2,0.9-1,1.2-1.6c0.3-0.5-0.1-1.1-0.7-1.1h-6.4c0,0-2.3-0.2-4.1-1c-1.1-0.5-1.4-1-0.8-2c1.9-2.7,5.9-9.2,6-15.9
			c0,0,0.2-10.3,10.3-10.3c5.9,0,8.7,3.5,10,6.4c0.7,1.6,1,3.4,1.2,5.1c0.4,6.4,3.7,12.2,5.2,14.6c0.5,0.8,0.3,2-0.6,2.5
			c-1.4,0.8-3.1,0.5-3.1,0.5h-6.5c-0.6,0-0.9,0.9-0.4,1.3c0.4,0.3,0.8,0.6,1,0.7l7.6,4.6c1.1,0.6,2,1.5,2.5,2.5c0,0,0.1,0,0.1,0.1
			c6.1-4.9,9.9-12.3,9.9-20.7C1858,37.9,1846.1,26,1831.5,26z"/>
		<path class="st19" d="M1816.5,70.6l9.1-3.9c0.5-0.2,0.9-1,1.2-1.6c0.3-0.5-0.1-1.1-0.7-1.1h-6.4c0,0-2.3-0.2-4.1-1
			c-1.1-0.5-1.4-1-0.8-2c1.9-2.7,5.9-9.2,6-15.9c0,0,0.2-10.3,10.3-10.3c5.9,0,8.7,3.5,10,6.4c0.7,1.6,1,3.4,1.2,5.1
			c0.4,6.4,3.7,12.2,5.2,14.6c0.5,0.8,0.3,2-0.6,2.5c-1.4,0.8-3.1,0.5-3.1,0.5h-6.5c-0.6,0-0.9,0.9-0.4,1.3c0.4,0.3,0.8,0.6,1,0.7
			l7.6,4.6c1.1,0.6,2,1.5,2.6,2.5c-4.5,3.7-10.3,5.9-16.6,5.9c-6.6,0-12.6-2.4-17.2-6.4C1814.7,71.8,1815.5,71.1,1816.5,70.6z"/>
	</g>
</g>
<g id="ads_bar">
	<g id="ads">
		<rect x="-0.5" y="129.5" class="st8" width="1921" height="433"/>
		<path class="st9" d="M1920,130v432H0V130H1920 M1921,129h-1H0h-1v1v432v1h1h1920h1v-1V130V129L1921,129z"/>
	</g>
	<text transform="matrix(1 0 0 1 94 169)" class="st12 st13 st14">РЕКОМЕНДУЕМЫЕ ОБЪЯВЛЕНИЯ</text>
	<g id="back">
		<path class="st17" d="M50,364.6c-9.5,0-17.3-7.8-17.3-17.3S40.5,330,50,330s17.3,7.8,17.3,17.3S59.5,364.6,50,364.6z"/>
		<path class="st8" d="M52.3,338c-0.5,0-1,0.2-1.3,0.5l0,0l-8,7.3c-0.4,0.4-0.6,0.9-0.6,1.5s0.2,1.1,0.6,1.5l8,7.3l0,0
			c0.4,0.3,0.8,0.5,1.3,0.5c1.1,0,2-0.9,2-2c0-0.6-0.3-1.1-0.7-1.5l0,0l-6.4-5.9l6.4-5.9l0,0c0.4-0.4,0.7-0.9,0.7-1.5
			C54.3,338.9,53.4,338,52.3,338z"/>
	</g>
	<g id="forward">
		<path class="st17" d="M1847.7,348.3c0-9.5,7.8-17.3,17.3-17.3s17.3,7.8,17.3,17.3s-7.8,17.3-17.3,17.3S1847.7,357.9,1847.7,348.3z
			"/>
		<path class="st8" d="M1860.7,341c0,0.6,0.3,1.1,0.7,1.5l0,0l6.4,5.9l-6.4,5.9l0,0c-0.4,0.4-0.7,0.9-0.7,1.5c0,1.1,0.9,2,2,2
			c0.5,0,1-0.2,1.3-0.5l0,0l8-7.3c0.4-0.4,0.6-0.9,0.6-1.5s-0.2-1.1-0.6-1.5l-8-7.3l0,0c-0.4-0.3-0.8-0.5-1.3-0.5
			C1861.6,339,1860.7,339.9,1860.7,341z"/>
	</g>
	<g id="item">
		<g>
			<path id="text_holed_21_" class="st20" d="M122.5,457.5h254.4v67.4c0,1.4-1.1,2.6-2.6,2.6H125.1c-1.4,0-2.6-1.1-2.6-2.6V457.5z"
				/>
			<polygon id="star_21_" class="st21" points="351.7,492.8 354.9,499.2 361.9,500.2 356.8,505.2 358,512.2 351.7,508.9 
				345.4,512.2 346.6,505.2 341.5,500.2 348.5,499.2 			"/>
			<text transform="matrix(0.9998 0 0 1 136.9454 508.2896)" class="st22 st23 st24">Zara</text>
			<text transform="matrix(0.9998 0 0 1 135.9454 483.2285)" class="st23 st25">Бомбер</text>
			<text transform="matrix(0.9998 0 0 1 310.403 482.8726)" class="st23 st25">1500 ₽</text>
			
				<image style="overflow:visible;" width="960" height="960" xlink:href="8EB9BB16.jpg"  transform="matrix(0.265 0 0 0.265 122.5 202.5)">
			</image>
			<path id="cover_8_" class="st26" d="M377.5,457.5H123.1V205.7c0-1.4,1.1-2.6,2.6-2.6h249.3c1.4,0,2.6,1.1,2.6,2.6V457.5z"/>
			<path class="st27" d="M366.3,419.7h-52.1c-1.8,0-3.2,1.4-3.2,3.2v22.8c0,1.8,1.4,3.2,3.2,3.2h52.1c1.8,0,3.2-1.4,3.2-3.2v-22.8
				C369.6,421.1,368.1,419.7,366.3,419.7z"/>
			<path id="like_22_" class="st16" d="M354.8,425.1c-1.1,0-2.1,0.3-3,1c-0.8,0.7-1.4,1.5-1.7,2.1c-0.3-0.6-0.9-1.4-1.7-2.1
				c-0.9-0.7-1.9-1-3-1c-3.1,0-5.4,2.5-5.4,5.8c0,3.6,2.9,6,7.2,9.7c0.7,0.6,1.6,1.3,2.4,2.1c0.1,0.1,0.3,0.2,0.4,0.2
				s0.3-0.1,0.4-0.2c0.9-0.8,1.7-1.5,2.4-2.1c4.4-3.7,7.2-6.2,7.2-9.7C360.2,427.6,357.9,425.1,354.8,425.1z"/>
			<text transform="matrix(0.9998 0 0 1 316.5392 440.4541)" class="st8 st23 st28">20</text>
			<path id="location_8_" class="st8" d="M141,212.7c-4.4,0-8,3.6-8,8c0,1.1,0.2,2.2,0.7,3.2c2,4.4,5.8,9,6.9,10.3
				c0.1,0.1,0.2,0.2,0.3,0.2c0.1,0,0.3-0.1,0.3-0.2c1.1-1.3,4.9-5.9,6.9-10.3c0.5-1,0.7-2.1,0.7-3.2
				C149,216.2,145.4,212.7,141,212.7z M141,224.8c-2.3,0-4.1-1.9-4.1-4.1c0-2.3,1.9-4.1,4.1-4.1s4.1,1.9,4.1,4.1
				C145.2,222.9,143.3,224.8,141,224.8z"/>
			<text transform="matrix(0.9998 0 0 1 157.9489 228.8809)" class="st8 st23 st24">Москва</text>
			<path id="send_8_" class="st8" d="M147.4,255.4h-4v-4c0-1-0.8-1.8-1.8-1.8c-1,0-1.8,0.8-1.8,1.8v4h-4c-1,0-1.8,0.8-1.8,1.8
				c0,1,0.8,1.8,1.8,1.8h4v4c0,1,0.8,1.8,1.8,1.8c1,0,1.8-0.8,1.8-1.8v-4h4c1,0,1.8-0.8,1.8-1.8
				C149.2,256.2,148.4,255.4,147.4,255.4z"/>
			<text transform="matrix(0.9998 0 0 1 157.9489 261.9526)" class="st8 st23 st24">Пересылка</text>
			<path id="photo_holer_21_" class="st29" d="M376.9,457.5H122.5V205.7c0-1.4,1.1-2.6,2.6-2.6h249.3c1.4,0,2.6,1.1,2.6,2.6V457.5z"
				/>
			<text id="size_8_" transform="matrix(0.9998 0 0 1 350.3214 234.5571)" class="st8 st23 st30 st14">S</text>
			<g id="cam_8_" class="st31">
				<path class="st32" d="M166.4,239.5c-2.2-2.2-4.8-3.3-7.9-3.3h-9.7l-2.2-5.9c-0.6-1.4-1.6-2.6-3-3.7c-1.5-1-3-1.5-4.5-1.5h-22.3
					c-1.5,0-3,0.5-4.5,1.5c-1.5,1-2.5,2.3-3,3.7l-2.2,5.9h-9.7c-3.1,0-5.7,1.1-7.9,3.3c-2.2,2.2-3.3,4.8-3.3,7.9v39
					c0,3.1,1.1,5.7,3.3,7.9c2.2,2.2,4.8,3.3,7.9,3.3h61.2c3.1,0,5.7-1.1,7.9-3.3c2.2-2.2,3.3-4.8,3.3-7.9v-39
					C169.6,244.3,168.5,241.7,166.4,239.5z M141.6,280.7c-3.8,3.8-8.4,5.7-13.8,5.7c-5.4,0-10-1.9-13.8-5.7
					c-3.8-3.8-5.7-8.4-5.7-13.8c0-5.4,1.9-10,5.7-13.8c3.8-3.8,8.4-5.7,13.8-5.7c5.4,0,10,1.9,13.8,5.7c3.8,3.8,5.7,8.4,5.7,13.8
					C147.4,272.2,145.4,276.8,141.6,280.7z"/>
				<path class="st32" d="M127.9,254.4c-3.5,0-6.4,1.2-8.9,3.7c-2.5,2.5-3.7,5.4-3.7,8.9c0,3.5,1.2,6.4,3.7,8.9
					c2.5,2.5,5.4,3.7,8.9,3.7c3.5,0,6.4-1.2,8.9-3.7c2.5-2.5,3.7-5.4,3.7-8.9c0-3.5-1.2-6.4-3.7-8.9
					C134.3,255.6,131.3,254.4,127.9,254.4z"/>
			</g>
		</g>
	</g>
	<g id="item_1_">
		<g>
			<path id="text_holed_19_" class="st20" d="M405.1,455.9h254.7v67.5c0,1.4-1.1,2.6-2.6,2.6H407.6c-1.4,0-2.6-1.1-2.6-2.6V455.9z"
				/>
			<polygon id="star_19_" class="st21" points="634.6,491.2 637.7,497.6 644.8,498.6 639.7,503.6 640.9,510.6 634.6,507.3 
				628.2,510.6 629.4,503.6 624.3,498.6 631.4,497.6 			"/>
			<text transform="matrix(1 0 0 1 418.5249 506.6807)" class="st22 st23 st33">5th studio</text>
			<text transform="matrix(1 0 0 1 418.5244 481.5928)" class="st23 st34">Укороченное пальто</text>
			<text transform="matrix(1 0 0 1 590.8813 481.2363)" class="st23 st34">2700 ₽</text>
			
				<image style="overflow:visible;" width="1702" height="1703" xlink:href="8EB9BB17.jpg"  transform="matrix(0.1496 0 0 0.1496 405.3809 200.0881)">
			</image>
			<path class="st27" d="M649.2,418h-52.1c-1.8,0-3.2,1.4-3.2,3.2v22.8c0,1.8,1.4,3.2,3.2,3.2h52.1c1.8,0,3.2-1.4,3.2-3.2v-22.8
				C652.4,419.4,651,418,649.2,418z"/>
			<path id="like_20_" class="st35" d="M637.7,423.4c-1.1,0-2.1,0.3-3,1c-0.8,0.7-1.4,1.5-1.7,2.1c-0.3-0.6-0.9-1.4-1.7-2.1
				c-0.9-0.7-1.9-1-3-1c-3.1,0-5.4,2.5-5.4,5.8c0,3.6,2.9,6,7.2,9.8c0.7,0.6,1.6,1.3,2.5,2.1c0.1,0.1,0.3,0.2,0.4,0.2
				s0.3-0.1,0.4-0.2c0.9-0.8,1.7-1.5,2.5-2.1c4.4-3.7,7.2-6.2,7.2-9.8C643,425.9,640.7,423.4,637.7,423.4z"/>
			<text id="_x33__17_" transform="matrix(1 0 0 1 599.3438 438.7715)" class="st8 st23 st36">13</text>
			<path id="photo_holer_19_" class="st29" d="M659.7,455.9H405.1V203.7c0-1.4,1.1-2.6,2.6-2.6h249.6c1.4,0,2.6,1.1,2.6,2.6V455.9z"
				/>
		</g>
	</g>
	<g id="item_2_">
		<g>
			<path id="text_holed_17_" class="st20" d="M693.2,455.6h254.3V523c0,1.4-1.1,2.6-2.6,2.6H695.8c-1.4,0-2.6-1.1-2.6-2.6V455.6z"/>
			<polygon id="star_17_" class="st21" points="922.4,490.8 925.5,497.2 932.6,498.3 927.5,503.2 928.7,510.3 922.4,507 916,510.3 
				917.2,503.2 912.1,498.3 919.2,497.2 			"/>
			<text transform="matrix(1 0 0 1 706.6597 506.3389)" class="st22 st23 st37">Weekday</text>
			<text transform="matrix(1 0 0 1 706.6597 481.2896)" class="st23 st38">Пальто-кокон</text>
			<text transform="matrix(1 0 0 1 878.7476 480.9336)" class="st23 st38">5800 ₽</text>
			
				<image style="overflow:visible;" width="494" height="496" xlink:href="8EB9BB12.jpg"  transform="matrix(0.5147 0 0 0.5127 693.9339 201.4114)">
			</image>
			<path class="st27" d="M937,417.8h-52c-1.8,0-3.2,1.4-3.2,3.2v22.8c0,1.8,1.4,3.2,3.2,3.2h52c1.8,0,3.2-1.4,3.2-3.2V421
				C940.2,419.2,938.7,417.8,937,417.8z"/>
			<path id="like_18_" class="st35" d="M925.5,423.2c-1.1,0-2.1,0.3-3,1c-0.8,0.7-1.4,1.5-1.7,2.1c-0.3-0.6-0.9-1.4-1.7-2.1
				c-0.9-0.7-1.9-1-3-1c-3.1,0-5.4,2.5-5.4,5.8c0,3.6,2.9,6,7.2,9.7c0.7,0.6,1.6,1.3,2.4,2.1c0.1,0.1,0.3,0.2,0.4,0.2
				s0.3-0.1,0.4-0.2c0.9-0.8,1.7-1.5,2.4-2.1c4.4-3.7,7.2-6.2,7.2-9.7C930.8,425.7,928.5,423.2,925.5,423.2z"/>
			<text id="_x33__15_" transform="matrix(1 0 0 1 887.1973 438.5361)" class="st8 st23 st39">10</text>
			<path id="photo_holer_17_" class="st29" d="M947.5,455.6H693.2V203.9c0-1.4,1.1-2.6,2.6-2.6h249.2c1.4,0,2.6,1.1,2.6,2.6V455.6z"
				/>
		</g>
	</g>
	<g id="item_6_">
		<g>
			<path id="text_holed_16_" class="st20" d="M980.3,455.7h254.4v67.4c0,1.4-1.1,2.6-2.6,2.6H982.8c-1.4,0-2.6-1.1-2.6-2.6V455.7z"
				/>
			<polygon id="star_16_" class="st21" points="1209.6,490.9 1212.7,497.3 1219.8,498.3 1214.7,503.3 1215.9,510.4 1209.6,507.1 
				1203.2,510.4 1204.4,503.3 1199.3,498.3 1206.4,497.3 			"/>
			<text transform="matrix(1 0 0 1 993.7241 506.4287)" class="st40 st23 st41">5th studio</text>
			<text transform="matrix(1 0 0 1 993.7246 481.3633)" class="st23 st42">Пиджак</text>
			<text transform="matrix(1 0 0 1 1165.9199 481.0068)" class="st23 st42">1100 ₽</text>
			
				<image style="overflow:visible;" width="512" height="521" xlink:href="8EB9BB1D.jpg"  transform="matrix(0.497 0 0 0.4884 979.7188 201.3104)">
			</image>
			<path class="st27" d="M1224.2,417.8h-52.1c-1.8,0-3.2,1.4-3.2,3.2v22.8c0,1.8,1.4,3.2,3.2,3.2h52.1c1.8,0,3.2-1.4,3.2-3.2V421
				C1227.4,419.3,1226,417.8,1224.2,417.8z"/>
			<path id="like_17_" class="st35" d="M1212.7,423.2c-1.1,0-2.1,0.3-3,1c-0.8,0.7-1.4,1.5-1.7,2.1c-0.3-0.6-0.9-1.4-1.7-2.1
				c-0.9-0.7-1.9-1-3-1c-3.1,0-5.4,2.5-5.4,5.8c0,3.6,2.9,6,7.2,9.7c0.7,0.6,1.6,1.3,2.4,2.1c0.1,0.1,0.3,0.2,0.4,0.2
				s0.3-0.1,0.4-0.2c0.9-0.8,1.7-1.5,2.4-2.1c4.4-3.7,7.2-6.2,7.2-9.7C1218,425.7,1215.7,423.2,1212.7,423.2z"/>
			<text id="_x33__16_" transform="matrix(1 0 0 1 1182.9189 438.582)" class="st8 st23 st43">7</text>
			<path id="photo_holer_16_" class="st29" d="M1234.7,455.7H980.3V203.8c0-1.4,1.1-2.6,2.6-2.6h249.3c1.4,0,2.6,1.1,2.6,2.6V455.7z
				"/>
		</g>
	</g>
	<g id="item_9_">
		<g>
			<path id="text_holed_18_" class="st20" d="M1266.2,455.7h254.3v67.4c0,1.4-1.1,2.6-2.6,2.6h-249.2c-1.4,0-2.6-1.1-2.6-2.6V455.7z
				"/>
			<polygon id="star_18_" class="st21" points="1495.4,491 1498.5,497.4 1505.6,498.4 1500.5,503.4 1501.7,510.4 1495.4,507.1 
				1489,510.4 1490.2,503.4 1485.1,498.4 1492.2,497.4 			"/>
			<text transform="matrix(1 0 0 1 1279.6602 506.4658)" class="st22 st23 st37">Arny Praht</text>
			<text transform="matrix(1 0 0 1 1279.6602 481.416)" class="st23 st38">Рюкзак-трансфор...</text>
			<text transform="matrix(1 0 0 1 1451.748 481.0605)" class="st23 st38">3500 ₽</text>
			
				<image style="overflow:visible;" width="495" height="494" xlink:href="8EB9BB1E.jpg"  transform="matrix(0.5137 0 0 0.5147 1266 201)">
			</image>
			<path class="st27" d="M1510,417.9h-52c-1.8,0-3.2,1.4-3.2,3.2v22.8c0,1.8,1.4,3.2,3.2,3.2h52c1.8,0,3.2-1.4,3.2-3.2v-22.8
				C1513.2,419.4,1511.7,417.9,1510,417.9z"/>
			<path id="like_19_" class="st35" d="M1498.5,423.3c-1.1,0-2.1,0.3-3,1c-0.8,0.7-1.4,1.5-1.7,2.1c-0.3-0.6-0.9-1.4-1.7-2.1
				c-0.9-0.7-1.9-1-3-1c-3.1,0-5.4,2.5-5.4,5.8c0,3.6,2.9,6,7.2,9.7c0.7,0.6,1.6,1.3,2.4,2.1c0.1,0.1,0.3,0.2,0.4,0.2
				s0.3-0.1,0.4-0.2c0.9-0.8,1.7-1.5,2.4-2.1c4.4-3.7,7.2-6.2,7.2-9.7C1503.8,425.8,1501.5,423.3,1498.5,423.3z"/>
			<text id="_x33__18_" transform="matrix(1 0 0 1 1468.7354 438.6631)" class="st8 st23 st39">3</text>
			<path id="photo_holer_18_" class="st29" d="M1520.5,455.7h-254.3V204c0-1.4,1.1-2.6,2.6-2.6h249.2c1.4,0,2.6,1.1,2.6,2.6V455.7z"
				/>
		</g>
	</g>
	<g id="item_11_">
		<g>
			<path id="text_holed_20_" class="st20" d="M1556.2,454.6h254.3V522c0,1.4-1.1,2.6-2.6,2.6h-249.2c-1.4,0-2.6-1.1-2.6-2.6V454.6z"
				/>
			<polygon id="star_20_" class="st21" points="1785.4,489.8 1788.5,496.2 1795.6,497.3 1790.5,502.2 1791.7,509.3 1785.4,506 
				1779,509.3 1780.2,502.2 1775.1,497.3 1782.2,496.2 			"/>
			<text transform="matrix(1 0 0 1 1569.6602 505.3389)" class="st22 st23 st37">Levi’s</text>
			<text transform="matrix(1 0 0 1 1569.6602 480.2896)" class="st23 st38">Утепленная джин...</text>
			<text transform="matrix(1 0 0 1 1741.748 479.9336)" class="st23 st38">6000 ₽</text>
			
				<image style="overflow:visible;" width="596" height="578" xlink:href="8EB9BB1F.jpg"  transform="matrix(0.4267 0 0 0.4399 1556.934 200.4114)">
			</image>
			<path class="st27" d="M1800,416.8h-52c-1.8,0-3.2,1.4-3.2,3.2v22.8c0,1.8,1.4,3.2,3.2,3.2h52c1.8,0,3.2-1.4,3.2-3.2V420
				C1803.2,418.2,1801.7,416.8,1800,416.8z"/>
			<path id="like_21_" class="st35" d="M1788.5,422.2c-1.1,0-2.1,0.3-3,1c-0.8,0.7-1.4,1.5-1.7,2.1c-0.3-0.6-0.9-1.4-1.7-2.1
				c-0.9-0.7-1.9-1-3-1c-3.1,0-5.4,2.5-5.4,5.8c0,3.6,2.9,6,7.2,9.7c0.7,0.6,1.6,1.3,2.4,2.1c0.1,0.1,0.3,0.2,0.4,0.2
				s0.3-0.1,0.4-0.2c0.9-0.8,1.7-1.5,2.4-2.1c4.4-3.7,7.2-6.2,7.2-9.7C1793.8,424.7,1791.5,422.2,1788.5,422.2z"/>
			<text id="_x33__19_" transform="matrix(1 0 0 1 1758.7354 437.5361)" class="st8 st23 st39">3</text>
			<path id="photo_holer_20_" class="st29" d="M1810.5,454.6h-254.3V202.9c0-1.4,1.1-2.6,2.6-2.6h249.2c1.4,0,2.6,1.1,2.6,2.6V454.6
				z"/>
		</g>
	</g>
	<g id="item_4_" class="st31">
		<g class="st44">
			<path id="text_holed_22_" class="st20" d="M1647.4,392.9h200v52.4c0,1.4-1.1,2.6-2.6,2.6H1650c-1.4,0-2.6-1.1-2.6-2.6V392.9z"/>
			<polygon id="star_22_" class="st21" points="1827.7,420.6 1830.1,425.7 1835.7,426.5 1831.7,430.4 1832.6,435.9 1827.7,433.3 
				1822.7,435.9 1823.6,430.4 1819.6,426.5 1825.2,425.7 			"/>
			<text transform="matrix(1 0 0 1 1658.0088 432.8317)" class="st22 st23 st45">Il Granchio</text>
			<text transform="matrix(1 0 0 1 1658.0088 413.1295)" class="st23 st46">Свитер</text>
			<text transform="matrix(1 0 0 1 1793.3594 412.8498)" class="st23 st46">1000 ₽</text>
			
				<image style="overflow:visible;" width="657" height="622" xlink:href="8EB9BB14.jpg"  transform="matrix(0.3044 0 0 0.3215 1647 192)">
			</image>
			<path class="st27" d="M1838.5,363.2h-39.6c-1.8,0-3.2,1.4-3.2,3.2V383c0,1.8,1.4,3.2,3.2,3.2h39.6c1.8,0,3.2-1.4,3.2-3.2v-16.6
				C1841.7,364.6,1840.2,363.2,1838.5,363.2z"/>
			<path id="like_23_" class="st35" d="M1830.1,367.4c-0.9,0-1.7,0.3-2.3,0.8c-0.7,0.5-1.1,1.2-1.4,1.7c-0.3-0.5-0.7-1.1-1.4-1.7
				c-0.7-0.5-1.5-0.8-2.3-0.8c-2.4,0-4.2,2-4.2,4.6c0,2.8,2.3,4.7,5.7,7.7c0.6,0.5,1.2,1.1,1.9,1.7c0.1,0.1,0.2,0.1,0.3,0.1
				s0.2,0,0.3-0.1c0.7-0.6,1.3-1.2,1.9-1.7c3.4-2.9,5.7-4.8,5.7-7.7C1834.3,369.4,1832.5,367.4,1830.1,367.4z"/>
			<text id="_x33__20_" transform="matrix(1 0 0 1 1800.0049 379.5026)" class="st8 st23 st47">11</text>
			<path id="photo_holer_22_" class="st29" d="M1847.4,392.9h-200V195.5c0-1.4,1.1-2.6,2.6-2.6h194.9c1.4,0,2.6,1.1,2.6,2.6V392.9z"
				/>
		</g>
	</g>
	<g id="item_5_" class="st31">
		<g class="st44">
			<path id="text_holed_15_" class="st20" d="M747.4,392.9h200v52.4c0,1.4-1.1,2.6-2.6,2.6H750c-1.4,0-2.6-1.1-2.6-2.6V392.9z"/>
			<polygon id="star_15_" class="st21" points="927.7,420.6 930.1,425.7 935.7,426.5 931.7,430.4 932.6,435.9 927.7,433.3 
				922.7,435.9 923.6,430.4 919.6,426.5 925.2,425.7 			"/>
			<text transform="matrix(1 0 0 1 758.0088 432.8317)" class="st22 st23 st45">Mango</text>
			<text transform="matrix(1 0 0 1 758.0088 413.1295)" class="st23 st46">Джинсовая куртка</text>
			<text transform="matrix(1 0 0 1 901.1455 412.8498)" class="st23 st46">800 ₽</text>
			
				<image style="overflow:visible;" width="493" height="463" xlink:href="A0D8098A.jpg"  transform="matrix(0.4057 0 0 0.432 748 193)">
			</image>
			<path class="st27" d="M938.5,363.2h-39.6c-1.8,0-3.2,1.4-3.2,3.2V383c0,1.8,1.4,3.2,3.2,3.2h39.6c1.8,0,3.2-1.4,3.2-3.2v-16.6
				C941.7,364.6,940.2,363.2,938.5,363.2z"/>
			<path id="like_16_" class="st35" d="M930.1,367.4c-0.9,0-1.7,0.3-2.3,0.8c-0.7,0.5-1.1,1.2-1.4,1.7c-0.3-0.5-0.7-1.1-1.4-1.7
				c-0.7-0.5-1.5-0.8-2.3-0.8c-2.4,0-4.2,2-4.2,4.6c0,2.8,2.3,4.7,5.7,7.7c0.6,0.5,1.2,1.1,1.9,1.7c0.1,0.1,0.2,0.1,0.3,0.1
				s0.2,0,0.3-0.1c0.7-0.6,1.3-1.2,1.9-1.7c3.4-2.9,5.7-4.8,5.7-7.7C934.3,369.4,932.5,367.4,930.1,367.4z"/>
			<text id="_x33__14_" transform="matrix(1 0 0 1 906.7212 379.5026)" class="st8 st23 st47">3</text>
			<path id="photo_holer_15_" class="st29" d="M947.4,392.9h-200V195.5c0-1.4,1.1-2.6,2.6-2.6h194.9c1.4,0,2.6,1.1,2.6,2.6V392.9z"
				/>
		</g>
	</g>
	<g id="Слой_5" class="st31">
		<rect x="0.5" y="102.5" class="st48" width="206" height="206"/>
		<line class="st49" x1="14" y1="115" x2="21.5" y2="124.5"/>
		<line class="st49" x1="42.5" y1="246.5" x2="33" y2="241"/>
		<line class="st50" x1="31.9" y1="186.4" x2="39.6" y2="177.1"/>
		<line class="st49" x1="89.9" y1="223.8" x2="85.6" y2="213.7"/>
		<line class="st50" x1="106.9" y1="170.4" x2="118.6" y2="167.1"/>
		<line class="st50" x1="89.8" y1="256.2" x2="99.7" y2="249.3"/>
		<line class="st49" x1="83.1" y1="139.8" x2="72.4" y2="137.7"/>
		<line class="st50" x1="126.8" y1="133" x2="120.7" y2="122.5"/>
		<line class="st49" x1="158.9" y1="218.4" x2="150.6" y2="211.1"/>
		<line class="st50" x1="142.9" y1="257.4" x2="150.6" y2="248.1"/>
		<line class="st49" x1="186.9" y1="168.8" x2="182.6" y2="158.7"/>
		<line class="st49" x1="116.9" y1="291.4" x2="108.6" y2="284.1"/>
		<line class="st50" x1="197.8" y1="244" x2="191.7" y2="233.5"/>
		<line class="st49" x1="180.9" y1="296.8" x2="176.6" y2="286.7"/>
		<line class="st50" x1="36.9" y1="298.4" x2="48.6" y2="295.1"/>
	</g>
</g>
<g id="brands">
	<g id="holder">
		<rect x="1359" y="595" class="st8" width="518" height="554"/>
		<path class="st9" d="M1876.5,595.5v553h-517v-553H1876.5 M1877.5,594.5h-1h-517h-1v1v553v1h1h517h1v-1v-553V594.5L1877.5,594.5z"
			/>
	</g>
	<g id="back_1_">
		<path class="st17" d="M1389.5,907.6c-9.5,0-17.3-7.8-17.3-17.3s7.8-17.3,17.3-17.3s17.3,7.8,17.3,17.3S1399.1,907.6,1389.5,907.6z
			"/>
		<path class="st8" d="M1391.9,881c-0.5,0-1,0.2-1.3,0.5l0,0l-8,7.3c-0.4,0.4-0.6,0.9-0.6,1.5s0.2,1.1,0.6,1.5l8,7.3l0,0
			c0.4,0.3,0.8,0.5,1.3,0.5c1.1,0,2-0.9,2-2c0-0.6-0.3-1.1-0.7-1.5l0,0l-6.4-5.9l6.4-5.9l0,0c0.4-0.4,0.7-0.9,0.7-1.5
			C1393.9,881.9,1393,881,1391.9,881z"/>
	</g>
	<g id="forward_1_">
		<path class="st17" d="M1816.2,890.3c0-9.5,7.8-17.3,17.3-17.3s17.3,7.8,17.3,17.3s-7.8,17.3-17.3,17.3S1816.2,899.9,1816.2,890.3z
			"/>
		<path class="st8" d="M1829.2,883c0,0.6,0.3,1.1,0.7,1.5l0,0l6.4,5.9l-6.4,5.9l0,0c-0.4,0.4-0.7,0.9-0.7,1.5c0,1.1,0.9,2,2,2
			c0.5,0,1-0.2,1.3-0.5l0,0l8-7.3c0.4-0.4,0.6-0.9,0.6-1.5s-0.2-1.1-0.6-1.5l-8-7.3l0,0c-0.4-0.3-0.8-0.5-1.3-0.5
			C1830.1,881,1829.2,881.9,1829.2,883z"/>
	</g>
	<g>
		<g>
			<path d="M1784,817.3v78.4h-47.7c0,0-59.1-0.8-59.1-60.1c0,0-1.1-21.8,19.1-42c20.2-20.2,41-18.3,41-18.3s15.2-1.1,28.9,5.6
				c0,0,16.5,8.2,16.5,22.1c0,0-0.3,13.3-12.9,13.3s-13.1-12.7-13.1-12.7s0.2-13.3,13.1-13.3c0,0,2,0,2.7,0.3c0,0-2.3-3.7-11.4-3.7
				c-6.9,0-20.6,5.8-20.6,23c0,0,0.4,21.4,23.3,21.4C1763.8,831.6,1777.6,832.6,1784,817.3L1784,817.3z"/>
			<path d="M1785.9,915.7c1.6,0,3.1-0.6,4.2-1.7l0,0c1.1-1.1,1.7-2.5,1.7-4.2c0-1.6-0.6-3.1-1.7-4.2l0,0c-1.1-1.1-2.5-1.7-4.2-1.7
				c-1.6,0-3.1,0.6-4.2,1.7c-1.1,1.1-1.7,2.5-1.7,4.2c0,1.6,0.6,3.1,1.7,4.2l0,0C1782.8,915,1784.3,915.7,1785.9,915.7L1785.9,915.7
				z M1790.6,914.5c-1.2,1.2-2.8,1.9-4.6,1.9c-1.8,0-3.5-0.7-4.6-1.9l0,0c-1.2-1.2-1.9-2.8-1.9-4.6s0.7-3.5,1.9-4.6
				c1.2-1.2,2.8-1.9,4.6-1.9c1.8,0,3.5,0.7,4.6,1.9l0,0c1.2,1.2,1.9,2.8,1.9,4.6C1792.5,911.7,1791.8,913.3,1790.6,914.5
				L1790.6,914.5L1790.6,914.5z"/>
			<path d="M1784,906.8h2.4c0.5,0,1,0.1,1.2,0.4c0.3,0.3,0.4,0.5,0.4,0.9c0,0.3-0.1,0.4-0.2,0.7c-0.2,0.2-0.4,0.4-0.6,0.4
				c-0.3,0.1-0.6,0.2-1.1,0.2h-2.1V906.8L1784,906.8z M1784,913.5v-3.4h1.2c0.3,0,0.4,0,0.5,0c0.2,0,0.3,0.1,0.4,0.2
				c0.2,0.1,0.4,0.3,0.5,0.5s0.4,0.6,0.7,1.1l1,1.6h1.2l-1.3-2c-0.3-0.4-0.5-0.7-0.8-1c-0.2-0.1-0.4-0.3-0.6-0.4
				c0.7-0.1,1.2-0.4,1.6-0.7c0.4-0.4,0.5-0.8,0.5-1.3c0-0.4-0.1-0.8-0.4-1.2c-0.2-0.4-0.5-0.6-0.9-0.7c-0.4-0.2-0.9-0.2-1.5-0.2
				h-3.4v7.6h1.2V913.5z"/>
			<path d="M1477.4,958.5h-22.1c0,0.3-12.8-1.2-12.8-19.1c0-18,12.8-17.5,12.8-17.5l22-0.1c0,0,2.7,0.2,2.7,3.7
				c0,4.1-2.7,4.1-2.7,4.1h-20.2c0,0-6.1-0.4-6,8.9c0.1,5.7,0,2.9,0,2.9s0.7,8.9,6.5,9.4h19.8c0,0,2.5,0.1,2.5,4
				C1479.9,958.5,1477.4,958.5,1477.4,958.5L1477.4,958.5z"/>
			<path d="M1491.7,929.5h28.2c2,0.1,1.6,1.9,1.6,1.9s0,13.3,0,16.9c0,2.6-3.2,2.5-3.2,2.5s-14.6,0-20.9,0c-4.6,0-4.7-4.3-4.7-4.3
				c0-4.6,4.7-4.3,4.7-4.3h19.3c0,0,2.4,0,2.4-3.7c0-4-2.4-4.1-2.4-4.1s-15.4,0-23.5,0c-10.8,0.1-10.8,12-10.8,12
				c0,12,10.8,12.2,10.8,12.2s28.4,0,33.3,0c4.7,0,4.4-4.6,4.4-4.6s0-18.7,0-25.5c0-6.8-5.9-6.4-5.9-6.4h-33.3c0,0-2.9,0.1-2.9,3.8
				C1488.7,929.6,1491.7,929.5,1491.7,929.5L1491.7,929.5z"/>
			<path d="M1537.6,924.9c0,0,0.3-3.2,4.6-3.2c4.3,0,4.6,3,4.6,3v29.9c0,0,0,3.6-4.5,3.6c-4.6,0-4.7-3.6-4.7-3.6V924.9L1537.6,924.9
				z"/>
			<path d="M1548.9,923.8c0-0.3,0.2-0.3,0.2-0.3s4-1.7,10.5-1.7c6.6,0,14.4,2.1,14.5,12.1c0,0-0.3,5.2-1.7,7.1c0,0-0.1,0.3-0.3,0.2
				c-0.6-0.1-5.4-1.6-7.3-2.5c-0.3-0.1-0.1-0.3-0.1-0.4c0,0,1.9-4.6-0.7-8c-2.6-3.2-11.6-2.5-13.5-1.4c0,0-0.2,0.1-0.4-0.2
				C1550.1,928.3,1548.9,924.5,1548.9,923.8L1548.9,923.8z"/>
			<path d="M1580.1,916.8c0,0,0.1-3.1,4.8-3.1c4.5,0,4.7,3.1,4.7,3.1v38.5c0,0-0.1,3.3-4.6,3.3c-4.7,0-4.8-3.2-4.8-3.2L1580.1,916.8
				L1580.1,916.8z"/>
			<path d="M1591,924.4c0,0-0.1-0.1,0.6-0.5c0,0,2-1.5,10.9-1.9c9,0,17.7,3,17.7,17.1c0,0-0.6,10.3-4,18.2c0,0-0.3,1.1-1.6,1.1
				s-7.5,0-7.5,0s-1.9,0.4-1.2-1.2c0.7-1.6,4.9-11.3,4.9-16.8c0-5.2-1.5-11.3-12-11.3c0,0-3.5,0-6,1.2c0,0-1.1,0.6-1.3-0.4
				C1591.4,928.8,1590.7,925.7,1591,924.4L1591,924.4z"/>
			<path d="M1726.6,917.2c0,0,0-3.5,4.1-3.5c4,0,4.2,3.5,4.2,3.5v4.7h10.6c0,0,2.4,0.1,2.4,3.8c0,3.7-2.4,3.7-2.4,3.7h-10.7v25.3
				c0,0-0.2,3.7-4.2,3.7c-4.1,0-4.2-3.7-4.2-3.7v-25.3h-4.6c0,0-2.3,0-2.3-3.8c0-3.7,2.2-3.9,2.2-3.9l4.7,0.1v-4.6H1726.6z"/>
			<path d="M1760.6,917.2c0,0,0-3.5,4.1-3.5c4,0,4.2,3.5,4.2,3.5v4.7h11.7c0,0,3.2-0.1,3.2,3.8c0,3.7-3.1,3.8-3.1,3.8h-11.8v25.3
				c0,0-0.2,3.7-4.2,3.7c-4.1,0-4.2-3.7-4.2-3.7v-25.3h-4.6c0,0-2.3-0.1-2.3-3.9c0-3.7,2.2-3.8,2.2-3.8l4.7,0.1L1760.6,917.2
				L1760.6,917.2z"/>
			<path d="M1678.6,924.9c0,0,0.3-3.2,4.6-3.2s4.6,3,4.6,3v29.9c0,0,0,3.6-4.5,3.6c-4.6,0-4.7-3.6-4.7-3.6V924.9L1678.6,924.9z"/>
			<path d="M1690.1,923.8c0-0.3,0.2-0.3,0.2-0.3s4-1.7,10.5-1.7s14.4,2.1,14.5,12.1c0,0-0.3,5.2-1.7,7.1c0,0-0.1,0.3-0.3,0.2
				c-0.6-0.1-5.4-1.6-7.3-2.5c-0.3-0.1-0.1-0.3-0.1-0.4c0,0,1.9-4.6-0.7-8c-2.6-3.2-11.6-2.5-13.5-1.4c0,0-0.2,0.1-0.4-0.2
				C1691.1,928.3,1690.1,924.5,1690.1,923.8L1690.1,923.8z"/>
			<path d="M1632.7,929.5h28.2c2,0.1,1.6,1.9,1.6,1.9s0,13.3,0,16.9c0,2.6-3.2,2.5-3.2,2.5s-14.6,0-20.9,0c-4.6,0-4.7-4.3-4.7-4.3
				c0-4.6,4.7-4.3,4.7-4.3h19.3c0,0,2.4,0,2.4-3.7c0-4-2.4-4.1-2.4-4.1s-15.4,0-23.5,0c-10.9,0.1-10.9,11.9-10.9,11.9
				c0,11.9,10.8,12.1,10.8,12.1s28.4,0,33.3,0c4.7,0,4.4-4.6,4.4-4.6s0-18.7,0-25.5c0-6.8-5.9-6.4-5.9-6.4h-33.3
				c0,0-2.9,0.1-2.9,3.8C1629.7,929.6,1632.7,929.5,1632.7,929.5L1632.7,929.5z"/>
		</g>
	</g>
	<text transform="matrix(1 0 0 1 1402 637)" class="st12 st13 st14">БРЕНДЫ</text>
</g>
<g id="categories">
	<g id="background_1_">
		<rect x="35" y="595" class="st8" width="1284" height="554"/>
		<path class="st9" d="M1318.5,595.5v553H35.5v-553H1318.5 M1319.5,594.5h-1H35.5h-1v1v553v1h1h1283h1v-1v-553V594.5L1319.5,594.5z"
			/>
	</g>
	<text transform="matrix(1 0 0 1 115 637)" class="st12 st13 st14">АКТУАЛЬНЫЕ КАТЕГОРИИ</text>
	<g id="forward_3_">
		<path class="st17" d="M1258.2,890c0-9.5,7.8-17.3,17.3-17.3s17.3,7.8,17.3,17.3s-7.8,17.3-17.3,17.3S1258.2,899.5,1258.2,890z"/>
		<path class="st8" d="M1271.2,882.7c0,0.6,0.3,1.1,0.7,1.5l0,0l6.4,5.9l-6.4,5.9l0,0c-0.4,0.4-0.7,0.9-0.7,1.5c0,1.1,0.9,2,2,2
			c0.5,0,1-0.2,1.3-0.5l0,0l8-7.3c0.4-0.4,0.6-0.9,0.6-1.5s-0.2-1.1-0.6-1.5l-8-7.3l0,0c-0.4-0.3-0.8-0.5-1.3-0.5
			C1272.1,880.7,1271.2,881.6,1271.2,882.7z"/>
	</g>
	<g id="back_3_">
		<path class="st17" d="M70.5,907.3c-9.5,0-17.3-7.8-17.3-17.3s7.8-17.3,17.3-17.3s17.3,7.8,17.3,17.3S80.1,907.3,70.5,907.3z"/>
		<path class="st8" d="M72.9,880.7c-0.5,0-1,0.2-1.3,0.5l0,0l-8,7.3c-0.4,0.4-0.6,0.9-0.6,1.5s0.2,1.1,0.6,1.5l8,7.3l0,0
			c0.4,0.3,0.8,0.5,1.3,0.5c1.1,0,2-0.9,2-2c0-0.6-0.3-1.1-0.7-1.5l0,0l-6.4-5.9l6.4-5.9l0,0c0.4-0.4,0.7-0.9,0.7-1.5
			C74.9,881.6,74,880.7,72.9,880.7z"/>
	</g>
	<g class="st31">
		<rect x="118" y="674.5" class="st51" width="1101" height="431"/>
		<path class="st52" d="M1218.5,675v430h-1100V675H1218.5 M1219.5,674h-1h-1100h-1v1v430v1h1h1100h1v-1V675V674L1219.5,674z"/>
	</g>
	<g id="content_1_">
		
			<image style="overflow:visible;" width="773" height="303" xlink:href="A0D8098D.jpg"  transform="matrix(1.423 0 0 1.4191 120 680)">
		</image>
		<text transform="matrix(1 0 0 1 593.2205 906.7402)" class="st8 st23 st53 st54">ПЛАТЬЯ</text>
	</g>
</g>
<g id="footer_1_">
	<g id="footer">
		<rect y="1190" class="st55" width="1920" height="305"/>
	</g>
	<text transform="matrix(1 0 0 1 1582.8838 1446.6479)" class="st8 st23 st30">Скачать приложение</text>
</g>
</svg>
