<?xml version="1.0" encoding="utf-8"?>
<!-- Generator: Adobe Illustrator 21.0.0, SVG Export Plug-In . SVG Version: 6.00 Build 0)  -->
<svg version="1.1" id="Слой_1" xmlns="http://www.w3.org/2000/svg" xmlns:xlink="http://www.w3.org/1999/xlink" x="0px" y="0px"
	 viewBox="0 0 1920 1080" style="enable-background:new 0 0 1920 1080;" xml:space="preserve">
<style type="text/css">
	.st0{fill:none;}
	.st1{fill:#FFFFFF;}
	.st2{fill:none;stroke:#F4D3D3;stroke-width:3;stroke-linecap:round;stroke-miterlimit:10;}
	.st3{fill:none;stroke:#FFFFFF;stroke-width:3;stroke-linecap:round;stroke-miterlimit:10;}
	.st4{display:none;}
	.st5{display:inline;fill:#FFEAEA;}
	.st6{fill:url(#Новый_образец_узора_1);}
	.st7{display:inline;fill:#FFFFFF;}
	.st8{display:inline;fill:#FFFFFF;stroke:#F4D3D3;stroke-width:3;stroke-linecap:round;stroke-miterlimit:10;}
	.st9{display:inline;fill:#FFFFFF;stroke:#FBA4A2;stroke-width:3;stroke-linecap:round;stroke-miterlimit:10;}
	.st10{fill:#FFFFFF;stroke:#E0E0E0;stroke-miterlimit:10;}
	.st11{font-family:'Anton-Regular';}
	.st12{font-size:30.7471px;}
	.st13{font-family:'RobotoCondensed-Light';}
	.st14{font-size:26px;}
	.st15{fill:#F2B303;}
	.st16{fill:#D65600;}
	.st17{fill:#BCBCBC;}
	.st18{display:none;fill:#C1F4EE;}
	.st19{fill:#E7ECED;}
	.st20{fill:#E0E0E0;}
	.st21{fill:none;stroke:#BCBCBC;stroke-width:1.5;stroke-miterlimit:10;}
	.st22{fill:#808080;}
	.st23{font-family:'ArialMT';}
	.st24{font-size:15.2642px;}
	.st25{font-size:17.8082px;}
	.st26{opacity:0.3;stroke:#E0E0E0;stroke-miterlimit:10;enable-background:new    ;}
	.st27{opacity:0.3;enable-background:new    ;}
	.st28{font-size:15.3606px;}
	.st29{fill:none;stroke:#E0E0E0;stroke-miterlimit:10;}
	.st30{font-size:24px;}
	.st31{letter-spacing:1;}
	.st32{font-size:15.2809px;}
	.st33{font-size:17.8277px;}
	.st34{fill:none;stroke:#FFFFFF;stroke-width:1.5;stroke-miterlimit:10;}
	.st35{font-size:15.3774px;}
	.st36{font-size:15.2571px;}
	.st37{font-size:17.7999px;}
	.st38{font-size:15.3535px;}
	.st39{display:none;fill:#808080;enable-background:new    ;}
	.st40{font-size:15.2666px;}
	.st41{font-size:17.811px;}
	.st42{font-size:15.363px;}
	.st43{display:inline;fill:#999999;}
	.st44{display:inline;fill:#E0E0E0;}
	.st45{font-size:40px;}
	.st46{letter-spacing:4;}
	.st47{fill:#BDCCD4;}
	.st48{display:inline;fill:#FFFFFF;stroke:#E0E0E0;stroke-miterlimit:10;}
	.st49{display:inline;}
	.st50{font-family:'RobotoCondensed-Regular';}
	.st51{font-size:36px;}
	.st52{letter-spacing:2;}
	.st53{display:inline;fill:none;stroke:#3EC28F;stroke-miterlimit:10;}
	.st54{fill:#3EC28F;}
	.st55{display:inline;fill:#3EC28F;}
	.st56{display:inline;opacity:0.5;}
	.st57{display:inline;fill:#6086B0;}
	.st58{fill:#D5472F;}
	.st59{display:inline;fill:#D5472F;}
	.st60{fill:#39579A;}
	.st61{display:inline;fill:#39579A;}
	.st62{fill:#999999;}
	.st63{display:inline;fill:#E0E0E0;stroke:#FFFFFF;stroke-miterlimit:10;}
</style>
<pattern  y="1080" width="206" height="206" patternUnits="userSpaceOnUse" id="Новый_образец_узора_1" viewBox="0 -206 206 206" style="overflow:visible;">
	<g>
		<rect y="-206" class="st0" width="206" height="206"/>
		<g id="Слой_5_2_">
			<rect y="-206" class="st1" width="206" height="206"/>
			<line class="st2" x1="13.5" y1="-193.5" x2="21" y2="-184"/>
			<line class="st2" x1="42" y1="-62" x2="32.5" y2="-67.5"/>
			<line class="st3" x1="31.4" y1="-122.1" x2="39.1" y2="-131.4"/>
			<line class="st2" x1="89.4" y1="-84.7" x2="85.1" y2="-94.8"/>
			<line class="st3" x1="106.4" y1="-138.1" x2="118.1" y2="-141.4"/>
			<line class="st3" x1="89.3" y1="-52.3" x2="99.2" y2="-59.2"/>
			<line class="st2" x1="82.6" y1="-168.7" x2="71.9" y2="-170.8"/>
			<line class="st3" x1="126.3" y1="-175.5" x2="120.2" y2="-186"/>
			<line class="st2" x1="158.4" y1="-90.1" x2="150.1" y2="-97.4"/>
			<line class="st3" x1="142.4" y1="-51.1" x2="150.1" y2="-60.4"/>
			<line class="st2" x1="186.4" y1="-139.7" x2="182.1" y2="-149.8"/>
			<line class="st2" x1="116.4" y1="-17.1" x2="108.1" y2="-24.4"/>
			<line class="st3" x1="197.3" y1="-64.5" x2="191.2" y2="-75"/>
			<line class="st2" x1="180.4" y1="-11.7" x2="176.1" y2="-21.8"/>
			<line class="st3" x1="36.4" y1="-10.1" x2="48.1" y2="-13.4"/>
		</g>
	</g>
</pattern>
<image style="overflow:visible;" width="1920" height="1080" xlink:href="8EB9BB11.jpg" >
</image>
<image style="display:none;overflow:visible;" width="1920" height="1080" xlink:href="8EB9BB13.jpg"  transform="matrix(1 0 0 1 -841 -418)">
</image>
<g id="cam_8_" class="st4">
	<path class="st5" d="M166.4,239.5c-2.2-2.2-4.8-3.3-7.9-3.3h-9.7l-2.2-5.9c-0.6-1.4-1.6-2.6-3-3.7c-1.5-1-3-1.5-4.5-1.5h-22.3
		c-1.5,0-3,0.5-4.5,1.5s-2.5,2.3-3,3.7l-2.2,5.9h-9.7c-3.1,0-5.7,1.1-7.9,3.3c-2.2,2.2-3.3,4.8-3.3,7.9v39c0,3.1,1.1,5.7,3.3,7.9
		c2.2,2.2,4.8,3.3,7.9,3.3h61.2c3.1,0,5.7-1.1,7.9-3.3c2.2-2.2,3.3-4.8,3.3-7.9v-39C169.6,244.3,168.5,241.7,166.4,239.5z
		 M141.6,280.7c-3.8,3.8-8.4,5.7-13.8,5.7c-5.4,0-10-1.9-13.8-5.7c-3.8-3.8-5.7-8.4-5.7-13.8s1.9-10,5.7-13.8
		c3.8-3.8,8.4-5.7,13.8-5.7c5.4,0,10,1.9,13.8,5.7s5.7,8.4,5.7,13.8C147.4,272.2,145.4,276.8,141.6,280.7z"/>
	<path class="st5" d="M127.9,254.4c-3.5,0-6.4,1.2-8.9,3.7c-2.5,2.5-3.7,5.4-3.7,8.9s1.2,6.4,3.7,8.9s5.4,3.7,8.9,3.7
		c3.5,0,6.4-1.2,8.9-3.7s3.7-5.4,3.7-8.9s-1.2-6.4-3.7-8.9S131.3,254.4,127.9,254.4z"/>
</g>
<rect id="background" x="0" y="100.1" class="st6" width="1920" height="1233.3"/>
<g id="Слой_5" class="st4">
	<rect x="-226.1" y="105.7" class="st7" width="206" height="206"/>
	<line class="st8" x1="-212.6" y1="118.2" x2="-205.1" y2="127.7"/>
	<line class="st8" x1="-184.1" y1="249.7" x2="-193.6" y2="244.2"/>
	<line class="st9" x1="-194.7" y1="189.6" x2="-187" y2="180.3"/>
	<line class="st8" x1="-136.7" y1="227" x2="-141" y2="216.9"/>
	<line class="st8" x1="-119.7" y1="173.6" x2="-108" y2="170.3"/>
	<line class="st8" x1="-136.8" y1="259.4" x2="-126.9" y2="252.5"/>
	<line class="st8" x1="-143.5" y1="143" x2="-154.2" y2="140.9"/>
	<line class="st9" x1="-99.8" y1="136.2" x2="-105.9" y2="125.7"/>
	<line class="st8" x1="-67.7" y1="221.6" x2="-76" y2="214.3"/>
	<line class="st9" x1="-83.7" y1="260.6" x2="-76" y2="251.3"/>
	<line class="st8" x1="-39.7" y1="172" x2="-44" y2="161.9"/>
	<line class="st8" x1="-109.7" y1="294.6" x2="-118" y2="287.3"/>
	<line class="st8" x1="-28.8" y1="247.2" x2="-34.9" y2="236.7"/>
	<line class="st8" x1="-45.7" y1="300" x2="-50" y2="289.9"/>
	<line class="st8" x1="-189.7" y1="301.6" x2="-178" y2="298.3"/>
</g>
<g id="nav_bar">
	<rect x="-0.5" y="-0.5" class="st10" width="1921" height="101"/>
	<g id="logo">
		<g>
			<path d="M158.7,46.2l-27.4-15.6c-1.6-0.9-3.5-1.5-5.5-1.7V27c3.1-0.8,5.4-3.6,5.4-6.9c0-3.9-3.2-7.1-7.1-7.1s-7.1,3.2-7.1,7.1
				c0,0.9,0.7,1.7,1.7,1.7s1.7-0.7,1.7-1.7c0-2.1,1.7-3.7,3.7-3.7s3.7,1.7,3.7,3.7s-1.7,3.7-3.7,3.7c-0.9,0-1.7,0.7-1.7,1.7v3.4
				c-2,0.2-3.9,0.8-5.5,1.7L89.7,46.2c-1.9,1.1-3.2,3.1-3.2,5.4c0,3.4,2.7,6.1,6.1,6.1h63.1c3.4,0,6.1-2.7,6.1-6.1
				C161.9,49.3,160.7,47.3,158.7,46.2L158.7,46.2z M155.8,54.3H92.6c-1.5,0-2.8-1.2-2.8-2.8c0-1,0.5-1.9,1.5-2.4l27.4-15.6
				c0.6-0.3,2.6-1.4,5.5-1.4s5,1,5.5,1.4l27.4,15.6c0.9,0.5,1.4,1.4,1.4,2.4C158.5,53.1,157.3,54.3,155.8,54.3z"/>
			<text transform="matrix(1 0 0 1 84 86.9761)" class="st11 st12">SHMOT</text>
		</g>
	</g>
	<text transform="matrix(1 0 0 1 300 60)" class="st13 st14">ЖЕНСКОЕ</text>
	<text transform="matrix(1 0 0 1 444 60)" class="st13 st14">МУЖСКОЕ</text>
	<text transform="matrix(1 0 0 1 600 60)" class="st13 st14">АКСЕССУАРЫ</text>
	<text transform="matrix(1 0 0 1 794 60)" class="st13 st14">БРЕНДЫ</text>
	<text transform="matrix(1 0 0 1 932 60)" class="st13 st14">ХАЙП</text>
	<g>
		<path class="st15" d="M1008.1,46.5c0.3,1.2-0.1,4.5-1.9,6.5c0.4-2.1-0.6-3.4-0.6-3.4s-0.3,1.9-1.6,3.8c-1.2,1.7-2,3.6-0.5,6.8
			c0.4,0.3,0.9,0.6,1.6,0.9c0.9,0.4,1.8,0.6,2.4,0.7c0.6-0.1,1.2-0.2,2-0.5c0.9-0.3,1.6-0.7,2.1-1.1
			C1013.9,55.6,1012.2,49.4,1008.1,46.5z"/>
		<path class="st16" d="M1003.5,60.2c-1.6-3.2-0.7-5.1,0.5-6.8c1.3-1.9,1.6-3.8,1.6-3.8s1,1.3,0.6,3.4c1.8-2,2.2-5.3,1.9-6.5
			c4.1,2.9,5.9,9.1,3.5,13.7c12.6-7.1,3.1-17.8,1.5-19c0.5,1.2,0.7,3.2-0.5,4.2c-1.9-7.1-6.5-8.6-6.5-8.6c0.5,3.7-2,7.7-4.4,10.7
			c-0.1-1.5-0.2-2.5-0.9-3.9c-0.2,2.7-2.2,4.8-2.8,7.5C997.2,54.7,998.5,57.4,1003.5,60.2z"/>
	</g>
	<polygon class="st17" points="1663.9,29.7 1670.4,42.8 1684.9,44.9 1674.4,55.1 1676.9,69.5 1663.9,62.7 1651,69.5 1653.5,55.1 
		1643,44.9 1657.5,42.8 	"/>
	<polygon class="st18" points="1663.9,29.7 1670.4,42.8 1684.9,44.9 1674.4,55.1 1676.9,69.5 1663.9,62.7 1651,69.5 1653.5,55.1 
		1643,44.9 1657.5,42.8 	"/>
	<path class="st17" d="M1761.4,65.5l-9.1-9.5c2.3-2.8,3.6-6.3,3.6-10c0-8.5-6.9-15.5-15.5-15.5c-8.5,0-15.5,6.9-15.5,15.5
		s6.9,15.5,15.5,15.5c3.2,0,6.3-1,8.9-2.8l9.2,9.6c0.4,0.4,0.9,0.6,1.5,0.6c0.5,0,1-0.2,1.4-0.6
		C1762.2,67.6,1762.2,66.4,1761.4,65.5z M1740.5,34.7c6.3,0,11.4,5.1,11.4,11.4s-5.1,11.4-11.4,11.4s-11.4-5.1-11.4-11.4
		S1734.2,34.7,1740.5,34.7z"/>
	<path class="st18" d="M1761.4,65.5l-9.1-9.5c2.3-2.8,3.6-6.3,3.6-10c0-8.5-6.9-15.5-15.5-15.5c-8.5,0-15.5,6.9-15.5,15.5
		s6.9,15.5,15.5,15.5c3.2,0,6.3-1,8.9-2.8l9.2,9.6c0.4,0.4,0.9,0.6,1.5,0.6c0.5,0,1-0.2,1.4-0.6
		C1762.2,67.6,1762.2,66.4,1761.4,65.5z M1740.5,34.7c6.3,0,11.4,5.1,11.4,11.4s-5.1,11.4-11.4,11.4s-11.4-5.1-11.4-11.4
		S1734.2,34.7,1740.5,34.7z"/>
	<g>
		<path class="st17" d="M1831.5,26c-14.6,0-26.5,11.9-26.5,26.5c0,8,3.6,15.2,9.2,20.1c0.6-0.8,1.4-1.5,2.3-1.9l9.1-3.9
			c0.5-0.2,0.9-1,1.2-1.6c0.3-0.5-0.1-1.1-0.7-1.1h-6.4c0,0-2.3-0.2-4.1-1c-1.1-0.5-1.4-1-0.8-2c1.9-2.7,5.9-9.2,6-15.9
			c0,0,0.2-10.3,10.3-10.3c5.9,0,8.7,3.5,10,6.4c0.7,1.6,1,3.4,1.2,5.1c0.4,6.4,3.7,12.2,5.2,14.6c0.5,0.8,0.3,2-0.6,2.5
			c-1.4,0.8-3.1,0.5-3.1,0.5h-6.5c-0.6,0-0.9,0.9-0.4,1.3c0.4,0.3,0.8,0.6,1,0.7l7.6,4.6c1.1,0.6,2,1.5,2.5,2.5c0,0,0.1,0,0.1,0.1
			c6.1-4.9,9.9-12.3,9.9-20.7C1858,37.9,1846.1,26,1831.5,26z"/>
		<path class="st19" d="M1816.5,70.6l9.1-3.9c0.5-0.2,0.9-1,1.2-1.6c0.3-0.5-0.1-1.1-0.7-1.1h-6.4c0,0-2.3-0.2-4.1-1
			c-1.1-0.5-1.4-1-0.8-2c1.9-2.7,5.9-9.2,6-15.9c0,0,0.2-10.3,10.3-10.3c5.9,0,8.7,3.5,10,6.4c0.7,1.6,1,3.4,1.2,5.1
			c0.4,6.4,3.7,12.2,5.2,14.6c0.5,0.8,0.3,2-0.6,2.5c-1.4,0.8-3.1,0.5-3.1,0.5h-6.5c-0.6,0-0.9,0.9-0.4,1.3c0.4,0.3,0.8,0.6,1,0.7
			l7.6,4.6c1.1,0.6,2,1.5,2.6,2.5c-4.5,3.7-10.3,5.9-16.6,5.9c-6.6,0-12.6-2.4-17.2-6.4C1814.7,71.8,1815.5,71.1,1816.5,70.6z"/>
	</g>
</g>
<g id="ads_bar">
	<g id="ads">
		<rect y="129.6" class="st1" width="1920" height="432.8"/>
		<path class="st20" d="M1920,130v432H0V130H1920 M1921,129h-1H0h-1v1v432v1h1h1920h1v-1V130V129L1921,129z"/>
	</g>
	<g>
		<text transform="matrix(1 0 0 1 94 174.9897)" class="st13 st14">РЕКОМЕНДУЕМЫЕ ОБЪЯВЛЕНИЯ</text>
	</g>
	<g id="back">
		<path class="st17" d="M50,364.6c-9.5,0-17.3-7.8-17.3-17.3S40.5,330,50,330s17.3,7.8,17.3,17.3S59.5,364.6,50,364.6z"/>
		<path class="st1" d="M52.3,338c-0.5,0-1,0.2-1.3,0.5l0,0l-8,7.3c-0.4,0.4-0.6,0.9-0.6,1.5s0.2,1.1,0.6,1.5l8,7.3l0,0
			c0.4,0.3,0.8,0.5,1.3,0.5c1.1,0,2-0.9,2-2c0-0.6-0.3-1.1-0.7-1.5l0,0l-6.4-5.9l6.4-5.9l0,0c0.4-0.4,0.7-0.9,0.7-1.5
			C54.3,338.9,53.4,338,52.3,338z"/>
	</g>
	<g id="forward">
		<path class="st17" d="M1847.7,348.3c0-9.5,7.8-17.3,17.3-17.3s17.3,7.8,17.3,17.3s-7.8,17.3-17.3,17.3S1847.7,357.9,1847.7,348.3z
			"/>
		<path class="st1" d="M1860.7,341c0,0.6,0.3,1.1,0.7,1.5l0,0l6.4,5.9l-6.4,5.9l0,0c-0.4,0.4-0.7,0.9-0.7,1.5c0,1.1,0.9,2,2,2
			c0.5,0,1-0.2,1.3-0.5l0,0l8-7.3c0.4-0.4,0.6-0.9,0.6-1.5s-0.2-1.1-0.6-1.5l-8-7.3l0,0c-0.4-0.3-0.8-0.5-1.3-0.5
			C1861.6,339,1860.7,339.9,1860.7,341z"/>
	</g>
	<g id="item">
		<g>
			<path id="text_holed_21_" class="st10" d="M122.5,457.5h254.4v67.4c0,1.4-1.1,2.6-2.6,2.6H125.1c-1.4,0-2.6-1.1-2.6-2.6V457.5z"
				/>
			<polygon id="star_21_" class="st21" points="351.7,492.8 354.9,499.2 361.9,500.2 356.8,505.2 358,512.2 351.7,508.9 
				345.4,512.2 346.6,505.2 341.5,500.2 348.5,499.2 			"/>
			<text transform="matrix(0.9998 0 0 1 136.9453 508.2896)" class="st22 st23 st24">Zara</text>
			<text transform="matrix(0.9998 0 0 1 135.9453 483.2285)" class="st23 st25">Бомбер</text>
			<text transform="matrix(0.9998 0 0 1 310.4028 482.8726)" class="st23 st25">1500 ₽</text>
			
				<image style="overflow:visible;" width="963" height="963" xlink:href="8EB9BB16.jpg"  transform="matrix(0.2642 0 0 0.2642 122.5 202.5)">
			</image>
			<path id="cover_8_" class="st26" d="M377.5,457.5H123.1V205.7c0-1.4,1.1-2.6,2.6-2.6H375c1.4,0,2.6,1.1,2.6,2.6v251.8H377.5z"/>
			<path class="st27" d="M366.3,419.7h-52.1c-1.8,0-3.2,1.4-3.2,3.2v22.8c0,1.8,1.4,3.2,3.2,3.2h52.1c1.8,0,3.2-1.4,3.2-3.2v-22.8
				C369.6,421.1,368.1,419.7,366.3,419.7z"/>
			<path id="like_22_" class="st16" d="M354.8,425.1c-1.1,0-2.1,0.3-3,1c-0.8,0.7-1.4,1.5-1.7,2.1c-0.3-0.6-0.9-1.4-1.7-2.1
				c-0.9-0.7-1.9-1-3-1c-3.1,0-5.4,2.5-5.4,5.8c0,3.6,2.9,6,7.2,9.7c0.7,0.6,1.6,1.3,2.4,2.1c0.1,0.1,0.3,0.2,0.4,0.2
				s0.3-0.1,0.4-0.2c0.9-0.8,1.7-1.5,2.4-2.1c4.4-3.7,7.2-6.2,7.2-9.7C360.2,427.6,357.9,425.1,354.8,425.1z"/>
			<text transform="matrix(0.9998 0 0 1 316.5391 440.4541)" class="st1 st23 st28">20</text>
			<path id="location_8_" class="st1" d="M141,212.7c-4.4,0-8,3.6-8,8c0,1.1,0.2,2.2,0.7,3.2c2,4.4,5.8,9,6.9,10.3
				c0.1,0.1,0.2,0.2,0.3,0.2s0.3-0.1,0.3-0.2c1.1-1.3,4.9-5.9,6.9-10.3c0.5-1,0.7-2.1,0.7-3.2C149,216.2,145.4,212.7,141,212.7z
				 M141,224.8c-2.3,0-4.1-1.9-4.1-4.1c0-2.3,1.9-4.1,4.1-4.1s4.1,1.9,4.1,4.1C145.2,222.9,143.3,224.8,141,224.8z"/>
			<text transform="matrix(0.9998 0 0 1 157.9487 228.8809)" class="st1 st23 st24">Москва</text>
			<path id="send_8_" class="st1" d="M147.4,255.4h-4v-4c0-1-0.8-1.8-1.8-1.8s-1.8,0.8-1.8,1.8v4h-4c-1,0-1.8,0.8-1.8,1.8
				s0.8,1.8,1.8,1.8h4v4c0,1,0.8,1.8,1.8,1.8s1.8-0.8,1.8-1.8v-4h4c1,0,1.8-0.8,1.8-1.8C149.2,256.2,148.4,255.4,147.4,255.4z"/>
			<text transform="matrix(0.9998 0 0 1 157.9487 261.9526)" class="st1 st23 st24">Пересылка</text>
			<path id="photo_holer_21_" class="st29" d="M376.9,457.5H122.5V205.7c0-1.4,1.1-2.6,2.6-2.6h249.3c1.4,0,2.6,1.1,2.6,2.6v251.8
				H376.9z"/>
			<text id="size_8_" transform="matrix(0.9998 0 0 1 350.3213 234.5571)" class="st1 st23 st30 st31">S</text>
		</g>
	</g>
	<g id="item_1_">
		<g>
			<path id="text_holed_19_" class="st10" d="M405.1,455.9h254.7v67.5c0,1.4-1.1,2.6-2.6,2.6H407.6c-1.4,0-2.6-1.1-2.6-2.6v-67.5
				H405.1z"/>
			<polygon id="star_19_" class="st21" points="634.6,491.2 637.7,497.6 644.8,498.6 639.7,503.6 640.9,510.6 634.6,507.3 
				628.2,510.6 629.4,503.6 624.3,498.6 631.4,497.6 			"/>
			<text transform="matrix(1 0 0 1 418.5249 506.6807)" class="st22 st23 st32">5th studio</text>
			<text transform="matrix(1 0 0 1 418.5244 481.5928)" class="st23 st33">Укороченное пальто</text>
			<text transform="matrix(1 0 0 1 590.8813 481.2363)" class="st23 st33">2700 ₽</text>
			
				<image style="overflow:visible;" width="1710" height="1704" xlink:href="8EB9BB17.jpg"  transform="matrix(0.1492 0 0 0.1492 405.1199 200.3495)">
			</image>
			<path class="st27" d="M649.2,418h-52.1c-1.8,0-3.2,1.4-3.2,3.2V444c0,1.8,1.4,3.2,3.2,3.2h52.1c1.8,0,3.2-1.4,3.2-3.2v-22.8
				C652.4,419.4,651,418,649.2,418z"/>
			<path id="like_20_" class="st34" d="M637.7,423.4c-1.1,0-2.1,0.3-3,1c-0.8,0.7-1.4,1.5-1.7,2.1c-0.3-0.6-0.9-1.4-1.7-2.1
				c-0.9-0.7-1.9-1-3-1c-3.1,0-5.4,2.5-5.4,5.8c0,3.6,2.9,6,7.2,9.8c0.7,0.6,1.6,1.3,2.5,2.1c0.1,0.1,0.3,0.2,0.4,0.2
				s0.3-0.1,0.4-0.2c0.9-0.8,1.7-1.5,2.5-2.1c4.4-3.7,7.2-6.2,7.2-9.8C643,425.9,640.7,423.4,637.7,423.4z"/>
			<text id="_x33__17_" transform="matrix(1 0 0 1 599.3438 438.7715)" class="st1 st23 st35">13</text>
			<path id="photo_holer_19_" class="st29" d="M659.7,455.9H405.1V203.7c0-1.4,1.1-2.6,2.6-2.6h249.6c1.4,0,2.6,1.1,2.6,2.6v252.2
				H659.7z"/>
		</g>
	</g>
	<g id="item_2_">
		<g>
			<path id="text_holed_17_" class="st10" d="M693.2,455.6h254.3V523c0,1.4-1.1,2.6-2.6,2.6H695.8c-1.4,0-2.6-1.1-2.6-2.6V455.6z"/>
			<polygon id="star_17_" class="st21" points="922.4,490.8 925.5,497.2 932.6,498.3 927.5,503.2 928.7,510.3 922.4,507 916,510.3 
				917.2,503.2 912.1,498.3 919.2,497.2 			"/>
			<text transform="matrix(1 0 0 1 706.6597 506.3389)" class="st22 st23 st36">Weekday</text>
			<text transform="matrix(1 0 0 1 706.6597 481.2896)" class="st23 st37">Пальто-кокон</text>
			<text transform="matrix(1 0 0 1 878.7476 480.9336)" class="st23 st37">5800 ₽</text>
			
				<image style="overflow:visible;" width="498" height="496" xlink:href="8EB9BB12.jpg"  transform="matrix(0.5126 0 0 0.5106 693.4202 201.9231)">
			</image>
			<path class="st27" d="M937,417.8h-52c-1.8,0-3.2,1.4-3.2,3.2v22.8c0,1.8,1.4,3.2,3.2,3.2h52c1.8,0,3.2-1.4,3.2-3.2V421
				C940.2,419.2,938.7,417.8,937,417.8z"/>
			<path id="like_18_" class="st34" d="M925.5,423.2c-1.1,0-2.1,0.3-3,1c-0.8,0.7-1.4,1.5-1.7,2.1c-0.3-0.6-0.9-1.4-1.7-2.1
				c-0.9-0.7-1.9-1-3-1c-3.1,0-5.4,2.5-5.4,5.8c0,3.6,2.9,6,7.2,9.7c0.7,0.6,1.6,1.3,2.4,2.1c0.1,0.1,0.3,0.2,0.4,0.2
				s0.3-0.1,0.4-0.2c0.9-0.8,1.7-1.5,2.4-2.1c4.4-3.7,7.2-6.2,7.2-9.7C930.8,425.7,928.5,423.2,925.5,423.2z"/>
			<text id="_x33__15_" transform="matrix(1 0 0 1 887.1973 438.5361)" class="st1 st23 st38">10</text>
			<path id="photo_holer_17_" class="st29" d="M947.5,455.6H693.2V203.9c0-1.4,1.1-2.6,2.6-2.6H945c1.4,0,2.6,1.1,2.6,2.6
				L947.5,455.6L947.5,455.6z"/>
		</g>
	</g>
	<g id="item_6_">
		<g>
			<path id="text_holed_16_" class="st10" d="M980.3,455.7h254.4v67.4c0,1.4-1.1,2.6-2.6,2.6H982.8c-1.4,0-2.6-1.1-2.6-2.6
				L980.3,455.7L980.3,455.7z"/>
			<polygon id="star_16_" class="st21" points="1209.6,490.9 1212.7,497.3 1219.8,498.3 1214.7,503.3 1215.9,510.4 1209.6,507.1 
				1203.2,510.4 1204.4,503.3 1199.3,498.3 1206.4,497.3 			"/>
			<text transform="matrix(1 0 0 1 993.7241 506.4287)" class="st39 st23 st40">5th studio</text>
			<text transform="matrix(1 0 0 1 993.7246 481.3633)" class="st23 st41">Пиджак</text>
			<text transform="matrix(1 0 0 1 1165.9199 481.0068)" class="st23 st41">1100 ₽</text>
			
				<image style="overflow:visible;" width="516" height="514" xlink:href="8EB9BB1D.jpg"  transform="matrix(0.4985 0 0 0.4898 978.3467 202.6497)">
			</image>
			<path class="st27" d="M1224.2,417.8h-52.1c-1.8,0-3.2,1.4-3.2,3.2v22.8c0,1.8,1.4,3.2,3.2,3.2h52.1c1.8,0,3.2-1.4,3.2-3.2V421
				C1227.4,419.3,1226,417.8,1224.2,417.8z"/>
			<path id="like_17_" class="st34" d="M1212.7,423.2c-1.1,0-2.1,0.3-3,1c-0.8,0.7-1.4,1.5-1.7,2.1c-0.3-0.6-0.9-1.4-1.7-2.1
				c-0.9-0.7-1.9-1-3-1c-3.1,0-5.4,2.5-5.4,5.8c0,3.6,2.9,6,7.2,9.7c0.7,0.6,1.6,1.3,2.4,2.1c0.1,0.1,0.3,0.2,0.4,0.2
				s0.3-0.1,0.4-0.2c0.9-0.8,1.7-1.5,2.4-2.1c4.4-3.7,7.2-6.2,7.2-9.7C1218,425.7,1215.7,423.2,1212.7,423.2z"/>
			<text id="_x33__16_" transform="matrix(1 0 0 1 1182.9189 438.582)" class="st1 st23 st42">7</text>
			<path id="photo_holer_16_" class="st29" d="M1234.7,455.7H980.3V203.8c0-1.4,1.1-2.6,2.6-2.6h249.3c1.4,0,2.6,1.1,2.6,2.6
				L1234.7,455.7L1234.7,455.7z"/>
		</g>
	</g>
	<g id="item_9_">
		<g>
			<path id="text_holed_18_" class="st10" d="M1266.2,455.7h254.3v67.4c0,1.4-1.1,2.6-2.6,2.6h-249.2c-1.4,0-2.6-1.1-2.6-2.6
				L1266.2,455.7L1266.2,455.7z"/>
			<polygon id="star_18_" class="st21" points="1495.4,491 1498.5,497.4 1505.6,498.4 1500.5,503.4 1501.7,510.4 1495.4,507.1 
				1489,510.4 1490.2,503.4 1485.1,498.4 1492.2,497.4 			"/>
			<text transform="matrix(1 0 0 1 1279.6602 506.4658)" class="st22 st23 st36">Arny Praht</text>
			<text transform="matrix(1 0 0 1 1279.6602 481.416)" class="st23 st37">Рюкзак-трансфор...</text>
			<text transform="matrix(1 0 0 1 1451.748 481.0605)" class="st23 st37">3500 ₽</text>
			
				<image style="overflow:visible;" width="496" height="496" xlink:href="8EB9BB1E.jpg"  transform="matrix(0.5121 0 0 0.5131 1266.1284 200.8713)">
			</image>
			<path class="st27" d="M1510,417.9h-52c-1.8,0-3.2,1.4-3.2,3.2v22.8c0,1.8,1.4,3.2,3.2,3.2h52c1.8,0,3.2-1.4,3.2-3.2v-22.8
				C1513.2,419.4,1511.7,417.9,1510,417.9z"/>
			<path id="like_19_" class="st34" d="M1498.5,423.3c-1.1,0-2.1,0.3-3,1c-0.8,0.7-1.4,1.5-1.7,2.1c-0.3-0.6-0.9-1.4-1.7-2.1
				c-0.9-0.7-1.9-1-3-1c-3.1,0-5.4,2.5-5.4,5.8c0,3.6,2.9,6,7.2,9.7c0.7,0.6,1.6,1.3,2.4,2.1c0.1,0.1,0.3,0.2,0.4,0.2
				s0.3-0.1,0.4-0.2c0.9-0.8,1.7-1.5,2.4-2.1c4.4-3.7,7.2-6.2,7.2-9.7C1503.8,425.8,1501.5,423.3,1498.5,423.3z"/>
			<text id="_x33__18_" transform="matrix(1 0 0 1 1468.7354 438.6631)" class="st1 st23 st38">3</text>
			<path id="photo_holer_18_" class="st29" d="M1520.5,455.7h-254.3V204c0-1.4,1.1-2.6,2.6-2.6H1518c1.4,0,2.6,1.1,2.6,2.6
				L1520.5,455.7L1520.5,455.7z"/>
		</g>
	</g>
	<g id="item_11_">
		<g>
			<path id="text_holed_20_" class="st10" d="M1556.2,454.6h254.3V522c0,1.4-1.1,2.6-2.6,2.6h-249.2c-1.4,0-2.6-1.1-2.6-2.6
				L1556.2,454.6L1556.2,454.6z"/>
			<polygon id="star_20_" class="st21" points="1785.4,489.8 1788.5,496.2 1795.6,497.3 1790.5,502.2 1791.7,509.3 1785.4,506 
				1779,509.3 1780.2,502.2 1775.1,497.3 1782.2,496.2 			"/>
			<text transform="matrix(1 0 0 1 1569.6602 505.3389)" class="st22 st23 st36">Levi’s</text>
			<text transform="matrix(1 0 0 1 1569.6602 480.2896)" class="st23 st37">Утепленная джин...</text>
			<text transform="matrix(1 0 0 1 1741.748 479.9336)" class="st23 st37">6000 ₽</text>
			
				<image style="overflow:visible;" width="601" height="599" xlink:href="8EB9BB1F.jpg"  transform="matrix(0.4175 0 0 0.4304 1558.6309 198.6321)">
			</image>
			<path class="st27" d="M1800,416.8h-52c-1.8,0-3.2,1.4-3.2,3.2v22.8c0,1.8,1.4,3.2,3.2,3.2h52c1.8,0,3.2-1.4,3.2-3.2V420
				C1803.2,418.2,1801.7,416.8,1800,416.8z"/>
			<path id="like_21_" class="st34" d="M1788.5,422.2c-1.1,0-2.1,0.3-3,1c-0.8,0.7-1.4,1.5-1.7,2.1c-0.3-0.6-0.9-1.4-1.7-2.1
				c-0.9-0.7-1.9-1-3-1c-3.1,0-5.4,2.5-5.4,5.8c0,3.6,2.9,6,7.2,9.7c0.7,0.6,1.6,1.3,2.4,2.1c0.1,0.1,0.3,0.2,0.4,0.2
				s0.3-0.1,0.4-0.2c0.9-0.8,1.7-1.5,2.4-2.1c4.4-3.7,7.2-6.2,7.2-9.7C1793.8,424.7,1791.5,422.2,1788.5,422.2z"/>
			<text id="_x33__19_" transform="matrix(1 0 0 1 1758.7354 437.5361)" class="st1 st23 st38">3</text>
			<path id="photo_holer_20_" class="st29" d="M1810.5,454.6h-254.3V202.9c0-1.4,1.1-2.6,2.6-2.6H1808c1.4,0,2.6,1.1,2.6,2.6
				L1810.5,454.6L1810.5,454.6z"/>
		</g>
	</g>
</g>
<g id="brands">
	<g id="holder">
		<rect x="1359" y="595" class="st1" width="518" height="554"/>
		<path class="st20" d="M1876.5,595.5v553h-517v-553H1876.5 M1877.5,594.5h-1h-517h-1v1v553v1h1h517h1v-1v-553V594.5L1877.5,594.5z"
			/>
	</g>
	<g id="back_1_">
		<path class="st17" d="M1389.5,907.6c-9.5,0-17.3-7.8-17.3-17.3s7.8-17.3,17.3-17.3s17.3,7.8,17.3,17.3S1399.1,907.6,1389.5,907.6z
			"/>
		<path class="st1" d="M1391.9,881c-0.5,0-1,0.2-1.3,0.5l0,0l-8,7.3c-0.4,0.4-0.6,0.9-0.6,1.5s0.2,1.1,0.6,1.5l8,7.3l0,0
			c0.4,0.3,0.8,0.5,1.3,0.5c1.1,0,2-0.9,2-2c0-0.6-0.3-1.1-0.7-1.5l0,0l-6.4-5.9l6.4-5.9l0,0c0.4-0.4,0.7-0.9,0.7-1.5
			C1393.9,881.9,1393,881,1391.9,881z"/>
	</g>
	<g id="forward_1_">
		<path class="st17" d="M1816.2,890.3c0-9.5,7.8-17.3,17.3-17.3s17.3,7.8,17.3,17.3s-7.8,17.3-17.3,17.3S1816.2,899.9,1816.2,890.3z
			"/>
		<path class="st1" d="M1829.2,883c0,0.6,0.3,1.1,0.7,1.5l0,0l6.4,5.9l-6.4,5.9l0,0c-0.4,0.4-0.7,0.9-0.7,1.5c0,1.1,0.9,2,2,2
			c0.5,0,1-0.2,1.3-0.5l0,0l8-7.3c0.4-0.4,0.6-0.9,0.6-1.5s-0.2-1.1-0.6-1.5l-8-7.3l0,0c-0.4-0.3-0.8-0.5-1.3-0.5
			C1830.1,881,1829.2,881.9,1829.2,883z"/>
	</g>
	<g>
		<g>
			<path d="M1784,817.3v78.4h-47.7c0,0-59.1-0.8-59.1-60.1c0,0-1.1-21.8,19.1-42s41-18.3,41-18.3s15.2-1.1,28.9,5.6
				c0,0,16.5,8.2,16.5,22.1c0,0-0.3,13.3-12.9,13.3s-13.1-12.7-13.1-12.7s0.2-13.3,13.1-13.3c0,0,2,0,2.7,0.3c0,0-2.3-3.7-11.4-3.7
				c-6.9,0-20.6,5.8-20.6,23c0,0,0.4,21.4,23.3,21.4C1763.8,831.6,1777.6,832.6,1784,817.3L1784,817.3z"/>
			<path d="M1785.9,915.7c1.6,0,3.1-0.6,4.2-1.7l0,0c1.1-1.1,1.7-2.5,1.7-4.2c0-1.6-0.6-3.1-1.7-4.2l0,0c-1.1-1.1-2.5-1.7-4.2-1.7
				c-1.6,0-3.1,0.6-4.2,1.7c-1.1,1.1-1.7,2.5-1.7,4.2c0,1.6,0.6,3.1,1.7,4.2l0,0C1782.8,915,1784.3,915.7,1785.9,915.7L1785.9,915.7
				z M1790.6,914.5c-1.2,1.2-2.8,1.9-4.6,1.9c-1.8,0-3.5-0.7-4.6-1.9l0,0c-1.2-1.2-1.9-2.8-1.9-4.6s0.7-3.5,1.9-4.6
				c1.2-1.2,2.8-1.9,4.6-1.9c1.8,0,3.5,0.7,4.6,1.9l0,0c1.2,1.2,1.9,2.8,1.9,4.6S1791.8,913.3,1790.6,914.5L1790.6,914.5
				L1790.6,914.5z"/>
			<path d="M1784,906.8h2.4c0.5,0,1,0.1,1.2,0.4c0.3,0.3,0.4,0.5,0.4,0.9c0,0.3-0.1,0.4-0.2,0.7c-0.2,0.2-0.4,0.4-0.6,0.4
				c-0.3,0.1-0.6,0.2-1.1,0.2h-2.1L1784,906.8L1784,906.8z M1784,913.5v-3.4h1.2c0.3,0,0.4,0,0.5,0c0.2,0,0.3,0.1,0.4,0.2
				c0.2,0.1,0.4,0.3,0.5,0.5s0.4,0.6,0.7,1.1l1,1.6h1.2l-1.3-2c-0.3-0.4-0.5-0.7-0.8-1c-0.2-0.1-0.4-0.3-0.6-0.4
				c0.7-0.1,1.2-0.4,1.6-0.7c0.4-0.4,0.5-0.8,0.5-1.3c0-0.4-0.1-0.8-0.4-1.2c-0.2-0.4-0.5-0.6-0.9-0.7c-0.4-0.2-0.9-0.2-1.5-0.2
				h-3.4v7.6h1.2v-0.1H1784z"/>
			<path d="M1477.4,958.5h-22.1c0,0.3-12.8-1.2-12.8-19.1c0-18,12.8-17.5,12.8-17.5l22-0.1c0,0,2.7,0.2,2.7,3.7
				c0,4.1-2.7,4.1-2.7,4.1h-20.2c0,0-6.1-0.4-6,8.9c0.1,5.7,0,2.9,0,2.9s0.7,8.9,6.5,9.4h19.8c0,0,2.5,0.1,2.5,4
				C1479.9,958.5,1477.4,958.5,1477.4,958.5L1477.4,958.5z"/>
			<path d="M1491.7,929.5h28.2c2,0.1,1.6,1.9,1.6,1.9s0,13.3,0,16.9c0,2.6-3.2,2.5-3.2,2.5s-14.6,0-20.9,0c-4.6,0-4.7-4.3-4.7-4.3
				c0-4.6,4.7-4.3,4.7-4.3h19.3c0,0,2.4,0,2.4-3.7c0-4-2.4-4.1-2.4-4.1s-15.4,0-23.5,0c-10.8,0.1-10.8,12-10.8,12
				c0,12,10.8,12.2,10.8,12.2s28.4,0,33.3,0c4.7,0,4.4-4.6,4.4-4.6s0-18.7,0-25.5s-5.9-6.4-5.9-6.4h-33.3c0,0-2.9,0.1-2.9,3.8
				C1488.7,929.6,1491.7,929.5,1491.7,929.5L1491.7,929.5z"/>
			<path d="M1537.6,924.9c0,0,0.3-3.2,4.6-3.2c4.3,0,4.6,3,4.6,3v29.9c0,0,0,3.6-4.5,3.6c-4.6,0-4.7-3.6-4.7-3.6V924.9L1537.6,924.9
				z"/>
			<path d="M1548.9,923.8c0-0.3,0.2-0.3,0.2-0.3s4-1.7,10.5-1.7c6.6,0,14.4,2.1,14.5,12.1c0,0-0.3,5.2-1.7,7.1c0,0-0.1,0.3-0.3,0.2
				c-0.6-0.1-5.4-1.6-7.3-2.5c-0.3-0.1-0.1-0.3-0.1-0.4c0,0,1.9-4.6-0.7-8c-2.6-3.2-11.6-2.5-13.5-1.4c0,0-0.2,0.1-0.4-0.2
				C1550.1,928.3,1548.9,924.5,1548.9,923.8L1548.9,923.8z"/>
			<path d="M1580.1,916.8c0,0,0.1-3.1,4.8-3.1c4.5,0,4.7,3.1,4.7,3.1v38.5c0,0-0.1,3.3-4.6,3.3c-4.7,0-4.8-3.2-4.8-3.2L1580.1,916.8
				L1580.1,916.8z"/>
			<path d="M1591,924.4c0,0-0.1-0.1,0.6-0.5c0,0,2-1.5,10.9-1.9c9,0,17.7,3,17.7,17.1c0,0-0.6,10.3-4,18.2c0,0-0.3,1.1-1.6,1.1
				s-7.5,0-7.5,0s-1.9,0.4-1.2-1.2c0.7-1.6,4.9-11.3,4.9-16.8c0-5.2-1.5-11.3-12-11.3c0,0-3.5,0-6,1.2c0,0-1.1,0.6-1.3-0.4
				C1591.4,928.8,1590.7,925.7,1591,924.4L1591,924.4z"/>
			<path d="M1726.6,917.2c0,0,0-3.5,4.1-3.5c4,0,4.2,3.5,4.2,3.5v4.7h10.6c0,0,2.4,0.1,2.4,3.8s-2.4,3.7-2.4,3.7h-10.7v25.3
				c0,0-0.2,3.7-4.2,3.7c-4.1,0-4.2-3.7-4.2-3.7v-25.3h-4.6c0,0-2.3,0-2.3-3.8c0-3.7,2.2-3.9,2.2-3.9l4.7,0.1v-4.6H1726.6z"/>
			<path d="M1760.6,917.2c0,0,0-3.5,4.1-3.5c4,0,4.2,3.5,4.2,3.5v4.7h11.7c0,0,3.2-0.1,3.2,3.8c0,3.7-3.1,3.8-3.1,3.8h-11.8v25.3
				c0,0-0.2,3.7-4.2,3.7c-4.1,0-4.2-3.7-4.2-3.7v-25.3h-4.6c0,0-2.3-0.1-2.3-3.9c0-3.7,2.2-3.8,2.2-3.8l4.7,0.1L1760.6,917.2
				L1760.6,917.2z"/>
			<path d="M1678.6,924.9c0,0,0.3-3.2,4.6-3.2s4.6,3,4.6,3v29.9c0,0,0,3.6-4.5,3.6c-4.6,0-4.7-3.6-4.7-3.6V924.9L1678.6,924.9z"/>
			<path d="M1690.1,923.8c0-0.3,0.2-0.3,0.2-0.3s4-1.7,10.5-1.7s14.4,2.1,14.5,12.1c0,0-0.3,5.2-1.7,7.1c0,0-0.1,0.3-0.3,0.2
				c-0.6-0.1-5.4-1.6-7.3-2.5c-0.3-0.1-0.1-0.3-0.1-0.4c0,0,1.9-4.6-0.7-8c-2.6-3.2-11.6-2.5-13.5-1.4c0,0-0.2,0.1-0.4-0.2
				C1691.1,928.3,1690.1,924.5,1690.1,923.8L1690.1,923.8z"/>
			<path d="M1632.7,929.5h28.2c2,0.1,1.6,1.9,1.6,1.9s0,13.3,0,16.9c0,2.6-3.2,2.5-3.2,2.5s-14.6,0-20.9,0c-4.6,0-4.7-4.3-4.7-4.3
				c0-4.6,4.7-4.3,4.7-4.3h19.3c0,0,2.4,0,2.4-3.7c0-4-2.4-4.1-2.4-4.1s-15.4,0-23.5,0c-10.9,0.1-10.9,11.9-10.9,11.9
				c0,11.9,10.8,12.1,10.8,12.1s28.4,0,33.3,0c4.7,0,4.4-4.6,4.4-4.6s0-18.7,0-25.5s-5.9-6.4-5.9-6.4h-33.3c0,0-2.9,0.1-2.9,3.8
				C1629.7,929.6,1632.7,929.5,1632.7,929.5L1632.7,929.5z"/>
		</g>
	</g>
	<g>
		<text transform="matrix(1 0 0 1 1402 651.3752)" class="st13 st14">БРЕНДЫ</text>
	</g>
</g>
<g id="categories">
	<g id="background_1_">
		<rect x="35" y="595" class="st1" width="1284" height="554"/>
		<path class="st20" d="M1318.5,595.5v553H35.5v-553H1318.5 M1319.5,594.5h-1H35.5h-1v1v553v1h1h1283h1v-1v-553V594.5L1319.5,594.5z
			"/>
	</g>
	<g>
		<text transform="matrix(1 0 0 1 115 651.3752)" class="st13 st14">АКТУАЛЬНЫЕ КАТЕГОРИИ</text>
	</g>
	<g id="forward_3_">
		<path class="st17" d="M1258.2,890c0-9.5,7.8-17.3,17.3-17.3s17.3,7.8,17.3,17.3s-7.8,17.3-17.3,17.3S1258.2,899.5,1258.2,890z"/>
		<path class="st1" d="M1271.2,882.7c0,0.6,0.3,1.1,0.7,1.5l0,0l6.4,5.9l-6.4,5.9l0,0c-0.4,0.4-0.7,0.9-0.7,1.5c0,1.1,0.9,2,2,2
			c0.5,0,1-0.2,1.3-0.5l0,0l8-7.3c0.4-0.4,0.6-0.9,0.6-1.5s-0.2-1.1-0.6-1.5l-8-7.3l0,0c-0.4-0.3-0.8-0.5-1.3-0.5
			C1272.1,880.7,1271.2,881.6,1271.2,882.7z"/>
	</g>
	<g id="back_3_">
		<path class="st17" d="M70.5,907.3c-9.5,0-17.3-7.8-17.3-17.3s7.8-17.3,17.3-17.3s17.3,7.8,17.3,17.3S80.1,907.3,70.5,907.3z"/>
		<path class="st1" d="M72.9,880.7c-0.5,0-1,0.2-1.3,0.5l0,0l-8,7.3c-0.4,0.4-0.6,0.9-0.6,1.5s0.2,1.1,0.6,1.5l8,7.3l0,0
			c0.4,0.3,0.8,0.5,1.3,0.5c1.1,0,2-0.9,2-2c0-0.6-0.3-1.1-0.7-1.5l0,0l-6.4-5.9l6.4-5.9l0,0c0.4-0.4,0.7-0.9,0.7-1.5
			C74.9,881.6,74,880.7,72.9,880.7z"/>
	</g>
	<g class="st4">
		<rect x="118" y="674.5" class="st43" width="1101" height="431"/>
		<path class="st44" d="M1218.5,675v430h-1100V675H1218.5 M1219.5,674h-1h-1100h-1v1v430v1h1h1100h1v-1V675V674L1219.5,674z"/>
	</g>
	<g id="content_1_">
		
			<image style="overflow:visible;" width="779" height="305" xlink:href="A0D8098D.jpg"  transform="matrix(1.4123 0 0 1.4084 119.9156 680.2148)">
		</image>
		<text transform="matrix(1 0 0 1 593.2205 906.7402)" class="st1 st23 st45 st46">ПЛАТЬЯ</text>
	</g>
</g>
<g id="footer_1_">
	<g id="footer">
		<rect y="1197.4" class="st47" width="1920" height="305"/>
	</g>
	<text transform="matrix(1 0 0 1 1541.8838 1260.0298)" class="st1 st23 st30">Поделиться</text>
	<path class="st1" d="M1635.7,1279c-14.4,0-26,11.6-26,26c0,14.4,11.6,26,26,26c14.4,0,26-11.6,26-26
		C1661.7,1290.7,1650,1279,1635.7,1279z M1642.2,1296.9h-3.4c-0.9,0-1.5,0.8-1.5,1.7v1.5h4.8l-0.8,4.8h-4v13h-4.9v-13h-3.2v-4.8h3.2
		v-2.5h0c0.1-2.8,1.1-5.5,5.8-5.7v0h3.9V1296.9z"/>
	<path class="st1" d="M1705.1,1279.4c-14.4,0-26,11.6-26,26s11.6,26,26,26c14.4,0,26-11.6,26-26S1719.5,1279.4,1705.1,1279.4z
		 M1718,1301.3c0,0.3,0,0.5,0,0.8c0,8.2-6.3,17.7-17.7,17.7c-3.5,0-6.8-1-9.5-2.8c0.5,0.1,1,0.1,1.5,0.1c2.9,0,5.6-1,7.7-2.7
		c-2.7-0.1-5-1.8-5.8-4.3c0.4,0.1,0.8,0.1,1.2,0.1c0.6,0,1.1-0.1,1.6-0.2c-2.8-0.6-5-3.1-5-6.1c0,0,0-0.1,0-0.1
		c0.8,0.5,1.8,0.7,2.8,0.8c-1.7-1.1-2.8-3-2.8-5.2c0-1.1,0.3-2.2,0.8-3.1c3.1,3.8,7.6,6.2,12.8,6.5c-0.1-0.5-0.2-0.9-0.2-1.4
		c0-3.4,2.8-6.2,6.2-6.2c1.8,0,3.4,0.8,4.5,2c1.4-0.3,2.7-0.8,3.9-1.5c-0.5,1.5-1.4,2.7-2.7,3.4c1.3-0.1,2.5-0.5,3.6-1
		C1720.2,1299.3,1719.2,1300.4,1718,1301.3z"/>
	<path class="st1" d="M1568.1,1277.5c-14.4,0-26,11.6-26,26c0,14.4,11.6,26,26,26c14.4,0,26-11.6,26-26
		C1594.1,1289.1,1582.5,1277.5,1568.1,1277.5z M1583,1314.9l-4.6,0.1c0,0-1,0.2-2.3-0.7c-1.7-1.2-3.3-4.2-4.6-3.8
		c-1.3,0.4-1.2,3.1-1.2,3.1s0,0.6-0.3,0.9c-0.3,0.3-0.9,0.4-0.9,0.4h-2c0,0-4.5,0.3-8.5-3.9c-4.3-4.5-8.1-13.4-8.1-13.4
		s-0.2-0.6,0-0.9c0.3-0.3,1-0.3,1-0.3l4.9,0c0,0,0.5,0.1,0.8,0.3c0.3,0.2,0.4,0.6,0.4,0.6s0.8,2,1.8,3.8c2,3.5,3,4.3,3.7,3.9
		c1-0.6,0.7-5,0.7-5s0-1.6-0.5-2.3c-0.4-0.6-1.2-0.7-1.5-0.8c-0.3,0,0.2-0.7,0.8-1c0.9-0.4,2.4-0.5,4.3-0.4c1.4,0,1.8,0.1,2.4,0.2
		c1.7,0.4,1.1,2,1.1,5.7c0,1.2-0.2,2.9,0.7,3.5c0.4,0.2,1.3,0,3.6-3.8c1.1-1.8,1.9-4,1.9-4s0.2-0.4,0.5-0.6c0.3-0.2,0.7-0.1,0.7-0.1
		l5.1,0c0,0,1.5-0.2,1.8,0.5c0.3,0.7-0.6,2.4-2.7,5.2c-3.4,4.6-3.8,4.2-1,6.8c2.7,2.5,3.3,3.8,3.4,3.9
		C1585.4,1314.7,1583,1314.9,1583,1314.9z"/>
	<path class="st1" d="M1776.1,1277.5c-14.4,0-26,11.6-26,26s11.6,26,26,26c14.4,0,26-11.6,26-26S1790.5,1277.5,1776.1,1277.5z
		 M1777.9,1311.7c-2.7,3.4-7.6,4.4-11.6,3.1c-3.4-1.1-6.1-4.2-7-7.7c-0.2-0.8-0.3-1.6-0.3-2.5c0-0.3,0-0.7,0-1
		c0.4-5.1,5-9.6,10.1-9.7c2.8-0.2,5.6,0.9,7.7,2.6l0,0l0,0c-0.9,1-1.8,1.9-2.7,2.8c-1.9-1.1-4.1-2-6.3-1.2c-3.5,1-5.7,5.2-4.4,8.7
		c0.3,0.9,0.8,1.7,1.4,2.4c1.9,2,5,2.8,7.6,1.7c1.8-0.6,3-2.3,3.5-4.1c-2,0-4.1,0-6.1-0.1v0h0c0-1.2,0-2.4,0-3.6c3.4,0,6.8,0,10.3,0
		v0c0,0,0,0,0,0C1780.3,1306.1,1779.9,1309.3,1777.9,1311.7z M1792.9,1303.1c0,1,0,2,0,3.1v0c-1,0-2,0-3.1,0c0,1,0,2,0,3.1
		c-1,0-2,0-3.1,0c0-1,0-2,0-3.1c-1,0-2,0-3.1,0v0c0-1,0-2,0-3.1v0c1,0,2,0,3.1,0c0-1,0-2,0-3.1c1,0,2,0,3,0c0,1,0,2,0,3.1
		C1790.8,1303.1,1791.9,1303.1,1792.9,1303.1L1792.9,1303.1z"/>
	<text transform="matrix(1 0 0 1 70.8838 1253.0298)" class="st1 st23 st30">О сайте</text>
	<text transform="matrix(1 0 0 1 70.8838 1300.0298)" class="st1 st23 st30">Помощь</text>
	<text transform="matrix(1 0 0 1 70.8838 1350.0298)" class="st1 st23 st30">Обратная связь</text>
	<text transform="matrix(1 0 0 1 289.8838 1464.0298)" class="st1 st23 st30">Политика конфиденциальности</text>
	<g>
		<text transform="matrix(1 0 0 1 71.1455 1463.71)" class="st1 st23 st30">© 2017</text>
	</g>
	
		<image style="overflow:visible;" width="96" height="96" xlink:href="icons8-Android OS-96.png"  transform="matrix(0.4583 0 0 0.4583 1782 1420.3818)">
	</image>
	<text transform="matrix(1 0 0 1 1540.8838 1454.0298)" class="st1 st23 st30">Скачать приложение</text>
</g>
<g id="w_categories" class="st4">
	<rect x="-0.5" y="100.5" class="st48" width="1921" height="658.8"/>
	<g class="st49">
		<text transform="matrix(1 0 0 1 87.7999 154.9807)" class="st50 st14 st31">ОДЕЖДА</text>
	</g>
	<g class="st49">
		<text transform="matrix(1 0 0 1 83.9998 255.4)" class="st23 st30">Платья и сарафаны</text>
	</g>
	<g class="st49">
		<text transform="matrix(1 0 0 1 83.9998 212.7001)" class="st23 st30">Толстовки и свитшоты</text>
	</g>
	<g class="st49">
		<text transform="matrix(1 0 0 1 83.9996 297.5272)" class="st23 st30">Свитера</text>
	</g>
	<g class="st49">
		<text transform="matrix(1 0 0 1 83.9992 383.8004)" class="st23 st30">Топы и футболки</text>
	</g>
	<g class="st49">
		<text transform="matrix(1 0 0 1 83.9994 429.6006)" class="st23 st30">Блузы и рубашки</text>
	</g>
	<g class="st49">
		<text transform="matrix(1 0 0 1 83.9996 475.6929)" class="st23 st30">Пиджаки и костюмы</text>
	</g>
	<g class="st49">
		<text transform="matrix(1 0 0 1 83.9998 518.636)" class="st23 st30">Юбки</text>
	</g>
	<g class="st49">
		<text transform="matrix(1 0 0 1 83.9994 562.4883)" class="st23 st30">Брюки</text>
	</g>
	<g class="st49">
		<text transform="matrix(1 0 0 1 83.999 608.3004)" class="st23 st30">Джинсы</text>
	</g>
	<g class="st49">
		<text transform="matrix(1 0 0 1 83.9989 651.2783)" class="st23 st30">Шорты</text>
	</g>
	<g class="st49">
		<text transform="matrix(1 0 0 1 83.9988 692.551)" class="st23 st30">Комбинезоны</text>
	</g>
	<g class="st49">
		<text transform="matrix(1 0 0 1 83.9993 338.0001)" class="st23 st30">Лонгсливы и кардиганы</text>
	</g>
	<g class="st49">
		<text transform="matrix(1 0 0 1 452.7934 154.9805)" class="st50 st14 st31">ВЕРХНЯЯ ОДЕЖДА</text>
	</g>
	<g class="st49">
		<text transform="matrix(1 0 0 1 452.7932 212.6996)" class="st23 st30">Пальто</text>
	</g>
	<g class="st49">
		<text transform="matrix(1 0 0 1 452.793 255.3997)" class="st23 st30">Пуховики</text>
	</g>
	<g class="st49">
		<text transform="matrix(1 0 0 1 452.7928 297.5269)" class="st23 st30">Парки</text>
	</g>
	<g class="st49">
		<text transform="matrix(1 0 0 1 452.7926 337.9996)" class="st23 st30">Джинсовки</text>
	</g>
	<g class="st49">
		<text transform="matrix(1 0 0 1 452.7932 383.8)" class="st23 st30">Бомберы</text>
	</g>
	<g class="st49">
		<text transform="matrix(1 0 0 1 452.7932 429.6006)" class="st23 st30">Куртки</text>
	</g>
	<g class="st49">
		<text transform="matrix(1 0 0 1 452.7936 475.6929)" class="st23 st30">Олимпийки</text>
	</g>
	<g class="st49">
		<text transform="matrix(1 0 0 1 821.0653 154.9805)" class="st50 st14 st31">ОБУВЬ</text>
	</g>
	<g class="st49">
		<text transform="matrix(1 0 0 1 821.0651 212.6996)" class="st23 st30">Кеды</text>
	</g>
	<g class="st49">
		<text transform="matrix(1 0 0 1 820.7085 297.5274)" class="st23 st30">Кросовки</text>
	</g>
	<g class="st49">
		<text transform="matrix(1 0 0 1 821.4238 339.655)" class="st23 st30">Туфли</text>
	</g>
	<g class="st49">
		<text transform="matrix(1 0 0 1 820.7585 380.1274)" class="st23 st30">Ботинки</text>
	</g>
	<g class="st49">
		<text transform="matrix(1 0 0 1 821.4241 425.9278)" class="st23 st30">Сапоги</text>
	</g>
	<g class="st49">
		<text transform="matrix(1 0 0 1 821.4243 471.7283)" class="st23 st30">Полусапоги</text>
	</g>
	<g class="st49">
		<text transform="matrix(1 0 0 1 820.7079 517.8207)" class="st23 st30">Балетки</text>
	</g>
	<g class="st49">
		<text transform="matrix(1 0 0 1 821.424 255.4)" class="st23 st30">Слипоны</text>
	</g>
	<g class="st49">
		<text transform="matrix(1 0 0 1 452.7939 518.6365)" class="st23 st30">Плащи</text>
	</g>
	<g class="st49">
		<text transform="matrix(1 0 0 1 452.7941 562.4888)" class="st23 st30">Жилеты</text>
	</g>
	<g class="st49">
		<text transform="matrix(1 0 0 1 1057.0713 154.9805)" class="st50 st14 st31">АКСЕССУАРЫ</text>
	</g>
	<g class="st49">
		<text transform="matrix(1 0 0 1 1057.0714 212.7)" class="st23 st30">Рюкзаки</text>
	</g>
	<g class="st49">
		<text transform="matrix(1 0 0 1 1057.0715 255.3995)" class="st23 st30">Сумки</text>
	</g>
	<g class="st49">
		<text transform="matrix(1 0 0 1 1057.0717 297.5272)" class="st23 st30">Поясные сумки</text>
	</g>
	<g class="st49">
		<text transform="matrix(1 0 0 1 1057.0719 339.655)" class="st23 st30">Наручные часы</text>
	</g>
	<g class="st49">
		<text transform="matrix(1 0 0 1 1057.0715 383.7999)" class="st23 st30">Кепки</text>
	</g>
	<g class="st49">
		<text transform="matrix(1 0 0 1 1057.0721 432.4999)" class="st23 st30">Ремни</text>
	</g>
	<g class="st49">
		<text transform="matrix(1 0 0 1 1057.0715 475.6928)" class="st23 st30">Очки</text>
	</g>
	<g class="st49">
		<text transform="matrix(1 0 0 1 1057.0715 517.8205)" class="st23 st30">Украшения</text>
	</g>
	<g class="st49">
		<text transform="matrix(1 0 0 1 1057.0723 562.3871)" class="st23 st30">Шапки</text>
	</g>
	<g class="st49">
		<text transform="matrix(1 0 0 1 1057.0715 608.3002)" class="st23 st30">Шляпы</text>
	</g>
</g>
<g id="m_categories" class="st4">
	<rect x="-0.5" y="100.5" class="st48" width="1921" height="518.4"/>
	<g class="st49">
		<text transform="matrix(1 0 0 1 87.7999 154.9807)" class="st50 st14 st31">ОДЕЖДА</text>
	</g>
	<g class="st49">
		<text transform="matrix(1 0 0 1 83.9998 212.7001)" class="st23 st30">Толстовки и свитшоты</text>
	</g>
	<g class="st49">
		<text transform="matrix(1 0 0 1 86.5001 249.5999)" class="st23 st30">Свитера</text>
	</g>
	<g class="st49">
		<text transform="matrix(1 0 0 1 83.9992 339.6551)" class="st23 st30">Футболки</text>
	</g>
	<g class="st49">
		<text transform="matrix(1 0 0 1 83.9993 383.8)" class="st23 st30">Рубашки</text>
	</g>
	<g class="st49">
		<text transform="matrix(1 0 0 1 83.9989 429.8925)" class="st23 st30">Пиджаки и костюмы</text>
	</g>
	<g class="st49">
		<text transform="matrix(1 0 0 1 83.9994 475.693)" class="st23 st30">Брюки</text>
	</g>
	<g class="st49">
		<text transform="matrix(1 0 0 1 83.9991 517.8205)" class="st23 st30">Джинсы</text>
	</g>
	<g class="st49">
		<text transform="matrix(1 0 0 1 83.999 562.4886)" class="st23 st30">Шорты</text>
	</g>
	<g class="st49">
		<text transform="matrix(1 0 0 1 83.9992 297.5269)" class="st23 st30">Лонгсливы и кардиганы</text>
	</g>
	<g class="st49">
		<text transform="matrix(1 0 0 1 452.7933 154.9805)" class="st50 st14 st31">ВЕРХНЯЯ ОДЕЖДА</text>
	</g>
	<g class="st49">
		<text transform="matrix(1 0 0 1 452.7932 212.6996)" class="st23 st30">Пальто</text>
	</g>
	<g class="st49">
		<text transform="matrix(1 0 0 1 452.793 255.3997)" class="st23 st30">Пуховики</text>
	</g>
	<g class="st49">
		<text transform="matrix(1 0 0 1 452.7928 297.5269)" class="st23 st30">Парки</text>
	</g>
	<g class="st49">
		<text transform="matrix(1 0 0 1 452.7926 337.9996)" class="st23 st30">Джинсовки</text>
	</g>
	<g class="st49">
		<text transform="matrix(1 0 0 1 452.7932 383.8)" class="st23 st30">Бомберы</text>
	</g>
	<g class="st49">
		<text transform="matrix(1 0 0 1 452.7932 429.6006)" class="st23 st30">Куртки</text>
	</g>
	<g class="st49">
		<text transform="matrix(1 0 0 1 452.7936 475.6929)" class="st23 st30">Олимпийки</text>
	</g>
	<g class="st49">
		<text transform="matrix(1 0 0 1 821.0653 154.9805)" class="st50 st14 st31">ОБУВЬ</text>
	</g>
	<g class="st49">
		<text transform="matrix(1 0 0 1 821.0651 212.6996)" class="st23 st30">Кеды</text>
	</g>
	<g class="st49">
		<text transform="matrix(1 0 0 1 820.7085 297.5274)" class="st23 st30">Кросовки</text>
	</g>
	<g class="st49">
		<text transform="matrix(1 0 0 1 821.4238 339.655)" class="st23 st30">Туфли</text>
	</g>
	<g class="st49">
		<text transform="matrix(1 0 0 1 820.7585 380.1274)" class="st23 st30">Ботинки</text>
	</g>
	<g class="st49">
		<text transform="matrix(1 0 0 1 821.424 255.4)" class="st23 st30">Слипоны</text>
	</g>
	<g class="st49">
		<text transform="matrix(1 0 0 1 452.7927 562.4889)" class="st23 st30">Жилетки</text>
	</g>
	<g class="st49">
		<text transform="matrix(1 0 0 1 452.7932 517.8206)" class="st23 st30">Плащи</text>
	</g>
	<g class="st49">
		<text transform="matrix(1 0 0 1 1057.0712 154.9806)" class="st50 st14 st31">АКСЕССУАРЫ</text>
	</g>
	<g class="st49">
		<text transform="matrix(1 0 0 1 1057.0713 212.7)" class="st23 st30">Рюкзаки</text>
	</g>
	<g class="st49">
		<text transform="matrix(1 0 0 1 1057.0714 255.3995)" class="st23 st30">Сумки</text>
	</g>
	<g class="st49">
		<text transform="matrix(1 0 0 1 1057.0715 297.5273)" class="st23 st30">Поясные сумки</text>
	</g>
	<g class="st49">
		<text transform="matrix(1 0 0 1 1057.0718 339.655)" class="st23 st30">Наручные часы</text>
	</g>
	<g class="st49">
		<text transform="matrix(1 0 0 1 1057.0714 383.8)" class="st23 st30">Кепки</text>
	</g>
	<g class="st49">
		<text transform="matrix(1 0 0 1 1057.072 432.4999)" class="st23 st30">Ремни</text>
	</g>
	<g class="st49">
		<text transform="matrix(1 0 0 1 1057.0714 475.6929)" class="st23 st30">Очки</text>
	</g>
	<g class="st49">
		<text transform="matrix(1 0 0 1 1057.0713 517.82)" class="st23 st30">Галстуки</text>
	</g>
</g>
<g id="accessories" class="st4">
	<rect x="-0.5" y="100.5" class="st48" width="1921" height="102.6"/>
	<g class="st49">
		<text transform="matrix(1 0 0 1 86.4995 159.3157)" class="st23 st30">Рюкзаки</text>
	</g>
	<g class="st49">
		<text transform="matrix(1 0 0 1 249.7001 159.3159)" class="st23 st30">Сумки</text>
	</g>
	<g class="st49">
		<text transform="matrix(1 0 0 1 394.51 159.3158)" class="st23 st30">Поясные сумки</text>
	</g>
	<g class="st49">
		<text transform="matrix(1 0 0 1 652.4 159.316)" class="st23 st30">Наручные часы</text>
	</g>
	<g class="st49">
		<text transform="matrix(1 0 0 1 912.1001 159.3155)" class="st23 st30">Кепки</text>
	</g>
	<g class="st49">
		<text transform="matrix(1 0 0 1 1067.1045 159.3161)" class="st23 st30">Ремни</text>
	</g>
	<g class="st49">
		<text transform="matrix(1 0 0 1 1227.4 159.3155)" class="st23 st30">Очки</text>
	</g>
</g>
<g id="profile" class="st4">
	<rect x="1" y="100.5" class="st48" width="1919" height="289"/>
	<g class="st49">
		<text transform="matrix(1 0 0 1 1761.3945 158.3069)" class="st23 st30">Профиль</text>
	</g>
	<g class="st49">
		<text transform="matrix(1 0 0 1 1736.1262 245.0012)" class="st23 st30">Сообщения</text>
	</g>
	<g class="st49">
		<text transform="matrix(1 0 0 1 1759.7397 293.5186)" class="st23 st30">Подписки</text>
	</g>
	<g class="st49">
		<text transform="matrix(1 0 0 1 1747.3198 338.0002)" class="st23 st30">Настройки</text>
	</g>
	<g class="st49">
		<text transform="matrix(1 0 0 1 87.8 164.7083)" class="st50 st14 st31">ВАЛЕРИЯ МОРОЗОВА</text>
	</g>
	<g class="st49">
		<text transform="matrix(1 0 0 1 103.0547 300.784)" class="st23 st30">продано</text>
	</g>
	<text transform="matrix(1 0 0 1 141.5999 268.8557)" class="st49 st50 st51 st52">0</text>
	<g class="st49">
		<text transform="matrix(1 0 0 1 290.1583 300.7841)" class="st23 st30">всего</text>
	</g>
	<text transform="matrix(1 0 0 1 310.4028 268.8558)" class="st49 st50 st51 st52">3</text>
	<g class="st49">
		<text transform="matrix(1 0 0 1 445.8922 300.7842)" class="st23 st30">рейтинг</text>
	</g>
	<text transform="matrix(1 0 0 1 460.6028 268.8559)" class="st49 st50 st51 st52">0/5</text>
	<path class="st49" d="M189.9,251.9l-5.5-5.5c-0.2-0.2-0.6-0.4-0.9-0.4c0,0,0,0,0,0c-0.1,0-0.1,0-0.2,0c-0.1,0-0.1,0-0.2,0h-1.5
		c-0.4,0-0.8,0.2-1,0.6c-0.5,0.8-1.6,1.2-2.8,1.2c-1.2,0-2.3-0.5-2.8-1.2c-0.2-0.4-0.6-0.6-1-0.6h-1.5c-0.1,0-0.1,0-0.2,0
		c-0.4,0-0.8,0.1-1,0.4l-5.5,5.5c-0.5,0.5-0.5,1.3,0,1.8l3,3c0.2,0.2,0.6,0.4,0.9,0.4c0.3,0,0.6-0.1,0.9-0.4l0.7-0.7v11.1
		c0,0.7,0.6,1.2,1.2,1.2h10.8c0.7,0,1.2-0.6,1.2-1.2V256l0.7,0.7c0.2,0.2,0.6,0.4,0.9,0.4c0,0,0,0,0,0c0.3,0,0.6-0.1,0.9-0.4l3-3
		C190.4,253.2,190.4,252.4,189.9,251.9z"/>
	<path class="st49" d="M357.4,250.9l-5.5-5.5c-0.2-0.2-0.6-0.4-0.9-0.4c0,0,0,0,0,0c-0.1,0-0.1,0-0.2,0c-0.1,0-0.1,0-0.2,0h-1.5
		c-0.4,0-0.8,0.2-1,0.6c-0.5,0.8-1.6,1.2-2.8,1.2s-2.3-0.5-2.8-1.2c-0.2-0.4-0.6-0.6-1-0.6h-1.5c-0.1,0-0.1,0-0.2,0
		c-0.4,0-0.8,0.1-1,0.4l-5.5,5.5c-0.5,0.5-0.5,1.3,0,1.8l3,3c0.2,0.2,0.6,0.4,0.9,0.4c0.3,0,0.6-0.1,0.9-0.4l0.7-0.7v11.1
		c0,0.7,0.6,1.2,1.2,1.2h10.8c0.7,0,1.2-0.6,1.2-1.2V255l0.7,0.7c0.2,0.2,0.6,0.4,0.9,0.4c0,0,0,0,0,0c0.3,0,0.6-0.1,0.9-0.4l3-3
		C357.9,252.2,357.9,251.4,357.4,250.9z"/>
	<g class="st49">
		<text transform="matrix(1 0 0 1 1724.8315 202.4998)" class="st23 st30">Объявления</text>
	</g>
	<g class="st49">
		<text transform="matrix(1 0 0 1 582.4612 300.7842)" class="st23 st30">подписчиков</text>
	</g>
	<text transform="matrix(1 0 0 1 643.0999 268.856)" class="st49 st50 st51 st52">0</text>
	<g class="st49">
		<text transform="matrix(1 0 0 1 777.8693 300.7842)" class="st23 st30">лайка</text>
	</g>
	<text transform="matrix(1 0 0 1 799.6547 268.8559)" class="st49 st50 st51 st52">4</text>
	<path class="st53" d="M761,186.8H407.4c-1.3,0-2.3-1-2.3-2.3v-52.5c0-1.3,1-2.3,2.3-2.3H761c1.3,0,2.3,1,2.3,2.3v52.5
		C763.3,185.8,762.3,186.8,761,186.8z"/>
	<g class="st49">
		<text transform="matrix(1 0 0 1 463.6649 164.7083)" class="st54 st23 st30">Подать объявление</text>
	</g>
	<path id="send_1_" class="st55" d="M715.9,155.4h-6.4v-6.4c0-1.6-1.3-2.9-2.9-2.9s-2.9,1.3-2.9,2.9v6.4h-6.4
		c-1.6,0-2.9,1.3-2.9,2.9s1.3,2.9,2.9,2.9h6.4v6.4c0,1.6,1.3,2.9,2.9,2.9s2.9-1.3,2.9-2.9v-6.4h6.4c1.6,0,2.9-1.3,2.9-2.9
		C718.8,156.7,717.5,155.4,715.9,155.4z"/>
</g>
<g id="sign_in" class="st4">
	<rect x="-0.5" y="-0.5" class="st56" width="1920.5" height="1502.9"/>
	<rect id="container" x="685" y="165" class="st48" width="550" height="750"/>
	<g class="st49">
		<text transform="matrix(1 0 0 1 930.5595 229.0167)" class="st13 st14">ВХОД</text>
	</g>
	<path class="st48" d="M1165,339H754.6c-1.3,0-2.3-1-2.3-2.3v-62.9c0-1.3,1-2.3,2.3-2.3H1165c1.3,0,2.3,1,2.3,2.3v62.9
		C1167.3,338,1166.3,339,1165,339z"/>
	<path class="st57" d="M900.8,314.9l-4.6,0.1c0,0-1,0.2-2.3-0.7c-1.7-1.2-3.3-4.2-4.6-3.8c-1.3,0.4-1.2,3.1-1.2,3.1s0,0.6-0.3,0.9
		c-0.3,0.3-0.9,0.4-0.9,0.4h-2c0,0-4.5,0.3-8.5-3.9c-4.3-4.5-8.1-13.4-8.1-13.4s-0.2-0.6,0-0.9c0.3-0.3,1-0.3,1-0.3l4.9,0
		c0,0,0.5,0.1,0.8,0.3c0.3,0.2,0.4,0.6,0.4,0.6s0.8,2,1.8,3.8c2,3.5,3,4.3,3.7,3.9c1-0.6,0.7-5,0.7-5s0-1.6-0.5-2.3
		c-0.4-0.6-1.2-0.7-1.5-0.8c-0.3,0,0.2-0.7,0.8-1c0.9-0.4,2.4-0.5,4.3-0.4c1.4,0,1.8,0.1,2.4,0.2c1.7,0.4,1.1,2,1.1,5.7
		c0,1.2-0.2,2.9,0.7,3.5c0.4,0.2,1.3,0,3.6-3.8c1.1-1.8,1.9-4,1.9-4s0.2-0.4,0.5-0.6c0.3-0.2,0.7-0.1,0.7-0.1l5.1,0
		c0,0,1.5-0.2,1.8,0.5c0.3,0.7-0.6,2.4-2.7,5.2c-3.4,4.6-3.8,4.2-1,6.8c2.7,2.5,3.3,3.8,3.4,3.9
		C903.2,314.7,900.8,314.9,900.8,314.9z"/>
	<text transform="matrix(1 0 0 1 920.6636 311.6297)" class="st57 st23 st30">Вконтакте</text>
	<path class="st48" d="M1165,425H754.6c-1.3,0-2.3-1-2.3-2.3v-62.9c0-1.3,1-2.3,2.3-2.3H1165c1.3,0,2.3,1,2.3,2.3v62.9
		C1167.3,424,1166.3,425,1165,425z"/>
	<g class="st49">
		<text transform="matrix(1 0 0 1 921.6636 402.6297)" class="st58 st23 st30">Google </text>
	</g>
	<path class="st59" d="M891.7,398.7c-2.7,3.4-7.6,4.4-11.6,3.1c-3.4-1.1-6.1-4.2-7-7.7c-0.2-0.8-0.3-1.6-0.3-2.5c0-0.3,0-0.7,0-1
		c0.4-5.1,5-9.6,10.1-9.7c2.8-0.2,5.6,0.9,7.7,2.6l0,0l0,0c-0.9,1-1.8,1.9-2.7,2.8c-1.9-1.1-4.1-2-6.3-1.2c-3.5,1-5.7,5.2-4.4,8.7
		c0.3,0.9,0.8,1.7,1.4,2.4c1.9,2,5,2.8,7.6,1.7c1.8-0.6,3-2.3,3.5-4.1c-2,0-4.1,0-6.1-0.1v0h0c0-1.2,0-2.4,0-3.6c3.4,0,6.8,0,10.3,0
		v0c0,0,0,0,0,0C894.1,393.1,893.7,396.3,891.7,398.7z"/>
	<path class="st59" d="M906.7,390.1c0,1,0,2,0,3.1v0c-1,0-2,0-3.1,0c0,1,0,2,0,3.1c-1,0-2,0-3.1,0c0-1,0-2,0-3.1c-1,0-2,0-3.1,0v0
		c0-1,0-2,0-3.1v0c1,0,2,0,3.1,0c0-1,0-2,0-3.1c1,0,2,0,3,0c0,1,0,2,0,3.1C904.6,390.1,905.6,390.1,906.7,390.1L906.7,390.1z"/>
	<path class="st48" d="M1166,511H755.6c-1.3,0-2.3-1-2.3-2.3v-62.9c0-1.3,1-2.3,2.3-2.3H1166c1.3,0,2.3,1,2.3,2.3v62.9
		C1168.3,510,1167.3,511,1166,511z"/>
	<g class="st49">
		<text transform="matrix(1 0 0 1 921.6636 483.6297)" class="st60 st23 st30">Facebook</text>
	</g>
	<path class="st61" d="M892,467h-3.4c-0.9,0-1.5,0.8-1.5,1.7v1.5h4.8l-0.8,4.8h-4v13h-4.9v-13h-3.2v-4.8h3.2v-2.5h0
		c0.1-2.8,1.1-5.5,5.8-5.7v0h3.9V467z"/>
	<text transform="matrix(1 0 0 1 872.6636 570.6297)" class="st49 st13 st14">ЕСТЬ АККАУНТ?</text>
	<path class="st48" d="M1126,744.5H792.6c-1.3,0-2.3-1-2.3-2.3v-52.5c0-1.3,1-2.3,2.3-2.3H1126c1.3,0,2.3,1,2.3,2.3v52.5
		C1128.3,743.5,1127.3,744.5,1126,744.5z"/>
	<path class="st48" d="M1126,673.1H792.6c-1.3,0-2.3-1-2.3-2.3v-52.5c0-1.3,1-2.3,2.3-2.3H1126c1.3,0,2.3,1,2.3,2.3v52.5
		C1128.3,672.1,1127.3,673.1,1126,673.1z"/>
	<g class="st49">
		<text transform="matrix(1 0 0 1 813.6636 653.6297)" class="st62 st23 st30">Логин</text>
	</g>
	<g class="st49">
		<text transform="matrix(1 0 0 1 813.6636 722.6298)" class="st62 st23 st30">Пароль</text>
	</g>
	<path class="st63" d="M1127,816.1H793.6c-1.3,0-2.3-1-2.3-2.3v-52.5c0-1.3,1-2.3,2.3-2.3H1127c1.3,0,2.3,1,2.3,2.3v52.5
		C1129.3,815,1128.3,816.1,1127,816.1z"/>
	<g class="st49">
		<text transform="matrix(1 0 0 1 930.6636 793.6298)" class="st1 st23 st30">Вход</text>
	</g>
	<g class="st49">
		<text transform="matrix(1 0 0 1 897.6636 869.6298)" class="st62 st23 st30">Регистрация</text>
	</g>
</g>
</svg>
