<?xml version="1.0" encoding="utf-8"?>
<!-- Generator: Adobe Illustrator 21.0.0, SVG Export Plug-In . SVG Version: 6.00 Build 0)  -->
<svg version="1.1" id="Capa_1" xmlns="http://www.w3.org/2000/svg" xmlns:xlink="http://www.w3.org/1999/xlink" x="0px" y="0px"
	 viewBox="0 0 512 512" style="enable-background:new 0 0 512 512;" xml:space="preserve">
<style type="text/css">
	.st0{stroke:#000000;stroke-width:7;stroke-miterlimit:10;}
	.st1{stroke:#000000;stroke-width:4;stroke-miterlimit:10;}
</style>
<g>
	<g>
		<path d="M288.9,465.1c-0.6-4.1-4.3-7-8.4-6.4c-7.6,1-15.3,1.6-23,1.6c-34.7,0-67.9-10.4-96.3-30.1c-22.6-15.7-40.8-36.3-53.3-60.4
			l18.8,12.5c3.4,2.3,8.1,1.4,10.4-2.1c2.3-3.4,1.4-8.1-2.1-10.4l-38.9-26c-2.2-1.5-5-1.7-7.4-0.5c-2.4,1.1-4,3.4-4.3,6l-4.6,46.5
			c-0.4,4.1,2.6,7.8,6.7,8.2c0.3,0,0.5,0,0.8,0c3.8,0,7.1-2.9,7.5-6.8l1.7-17.1c13.6,24.7,32.7,45.9,56.1,62.2
			c30.9,21.5,67.1,32.8,104.9,32.8c8.4,0,16.8-0.6,25.1-1.7C286.6,473,289.5,469.2,288.9,465.1z"/>
	</g>
</g>
<g>
	<g>
		<path d="M398,171.4l-14.8-44.3c-1.3-3.9-5.6-6-9.5-4.7c-3.9,1.3-6,5.6-4.7,9.5l6.1,18.2c-13-10.9-27.4-19.8-43-26.8
			c-23.5-10.5-48.6-15.8-74.6-15.8c-20,0-39.7,3.2-58.5,9.5c-3.9,1.3-6,5.6-4.7,9.5c1.3,3.9,5.6,6,9.5,4.7
			c17.3-5.8,35.3-8.7,53.7-8.7c39.7,0,78.2,14.2,108.4,39.5l-19.8-3.3c-4.1-0.7-8,2.1-8.6,6.1c-0.7,4.1,2.1,8,6.1,8.6l46.1,7.8
			c0.4,0.1,0.8,0.1,1.2,0.1c2.2,0,4.3-0.9,5.7-2.6C398.3,176.7,398.9,173.9,398,171.4z"/>
	</g>
</g>
<g>
	<path d="M49.6,293.2c0,4.1,3.4,7.5,7.5,7.5c4.1,0,7.5-3.4,7.5-7.5v-25.8h-15V293.2z"/>
	<path d="M161.8,290.1c0,4.1,3.4,7.5,7.5,7.5c4.1,0,7.5-3.4,7.5-7.5v-25.8h-15V290.1z"/>
	<path d="M105.7,293.2c0,4.1,3.4,7.5,7.5,7.5c4.1,0,7.5-3.4,7.5-7.5v-25.8h-15V293.2z"/>
	<path d="M17.5,293.2c0,4.1,3.4,7.5,7.5,7.5s7.5-3.4,7.5-7.5v-25.8h-15V293.2z"/>
	<path d="M193.9,290.1c0,4.1,3.4,7.5,7.5,7.5c4.1,0,7.5-3.4,7.5-7.5v-25.8h-15V290.1z"/>
	<path d="M32.5,249.5c0-1.3,0.1-2.6,0.3-3.8l11.9,11.9c3.1,3.1,4.8,7.3,4.8,11.7v4.4h15v-4.4c0-8.4-3.3-16.3-9.2-22.3l-15.2-15.2
		c2.4-2.3,5.2-4.1,8.3-5.3l27.1-10.2l30.1,30.1v27.2h15v-27.2l30.1-30.1l27.1,10.2c3.2,1.2,6,3,8.3,5.3L171,247
		c-6,6-9.2,13.9-9.2,22.3v4.4h15v-4.4c0-4.4,1.7-8.6,4.8-11.7l11.9-11.9c0.2,1.2,0.3,2.5,0.3,3.8v24.2h15v-24.2
		c0-16.4-10.3-31.3-25.7-37l-32.9-12.3c-3.3-1.2-5.5-4.5-5.5-8v-5.8c19.1-11,32.1-31.6,32.1-55.2v-24c0-20.3-9.6-38.5-24.5-50.1
		c0.3-2,0.5-4,0.5-6c0-21.8-17.7-39.6-39.6-39.6c-21.8,0-39.6,17.8-39.6,39.6c0,2,0.2,4,0.5,6C59.2,68.5,49.6,86.7,49.6,107v24
		c0,23.6,12.9,44.2,32.1,55.2v5.8c0,3.5-2.2,6.7-5.5,8l-32.9,12.3c-15.4,5.8-25.7,20.6-25.7,37v24.2h15V249.5z M113.2,232.7
		L89.5,209c4.4-4.3,7.1-10.2,7.2-16.5c5.3,1.4,10.8,2.2,16.6,2.2s11.3-0.8,16.6-2.2c0.1,6.3,2.8,12.2,7.2,16.5L113.2,232.7z
		 M113.2,26.3c12.7,0,23.1,9.6,24.4,21.9c-7.5-3.1-15.8-4.9-24.4-4.9c-8.6,0-16.9,1.7-24.4,4.9C90.1,36,100.5,26.3,113.2,26.3z
		 M64.6,107c0-26.8,21.8-48.6,48.6-48.6s48.6,21.8,48.6,48.6v8.2c-34.9-2.6-68.4-22.5-68.8-22.7c-1.8-1.1-3.9-1.4-6-0.8
		c-2,0.6-3.7,2-4.6,3.8c-3.4,6.8-11.1,12.2-17.9,15.9V107z M64.6,131.1v-2.9c6.9-3,19.1-9.3,27-19.2c12.2,6.4,40.3,19.4,70.2,21.4
		v0.8c0,26.8-21.8,48.6-48.6,48.6C86.4,179.7,64.6,157.9,64.6,131.1z"/>
</g>
<g>
	<path d="M321.1,463.3v-46.8c0-0.9,0.1-1.7,0.2-2.6l20.1,20.1c3.1,3.1,4.8,7.3,4.8,11.7v17.6h15v-17.6c0-8.4-3.3-16.4-9.2-22.3
		L328,399.4c2.2-2.2,4.7-4.1,7.7-5.4l42.8-19l31.8,31.8v56.5h15v-56.5l31.8-31.8l42.8,19c2.9,1.3,5.5,3.2,7.7,5.4l-23.9,23.9
		c-6,6-9.2,13.9-9.2,22.3v17.6h15v-17.6c0-4.4,1.7-8.6,4.8-11.7l20.1-20.1c0.1,0.9,0.2,1.7,0.2,2.6v46.8h15v-46.8
		c0-15.6-9.2-29.8-23.5-36.2l-43.6-19.4c-3.1-1.4-5.1-4.4-5.1-7.8v-12c14.6-11.7,24-29.6,24-49.8v-16.8c4.8-2.7,8-7.8,8-13.6v-1.6
		c0-35.1-28.5-63.6-63.6-63.6h-16c-35.1,0-63.6,28.5-63.6,63.6v14.8c0,5.1,2.2,9.7,6,12.6c0.6,0.5,1.3,0.9,2,1.3v3.3
		c0,20.1,9.4,38.1,24,49.8v12c0,3.4-2,6.4-5.1,7.8l-43.6,19.4c-14.3,6.3-23.5,20.5-23.5,36.2v46.8H321.1z M417.8,393l-27.9-27.9
		c2.1-3.6,3.3-7.7,3.3-12v-3.1c7.6,3.2,15.9,4.9,24.6,4.9s17-1.8,24.6-4.9v3.1c0,4.3,1.2,8.4,3.3,12L417.8,393z M369.2,291.4V288
		c4.7-1.9,9.2-4.8,13.6-8.8c3-2.8,3.2-7.6,0.4-10.6c-2.8-3-7.6-3.2-10.6-0.4c-3.8,3.5-7.5,5.7-11.1,6.6c-0.1,0-0.2,0-0.2,0
		c-0.1-0.1-0.1-0.3-0.1-0.7v-14.8c0-26.8,21.8-48.6,48.6-48.6h16c26.8,0,48.6,21.8,48.6,48.6v1.6c0,0.2-0.1,0.5-0.3,0.5
		c-44.9,8.9-67.4-7.8-75-15.4c-2.9-2.9-7.7-2.9-10.6,0c-2.9,2.9-2.9,7.7,0,10.6c23.3,23.3,57.3,23.7,78,21.2v13.6
		c0,26.8-21.8,48.6-48.6,48.6S369.2,318.2,369.2,291.4z"/>
	<path d="M306.1,439.1v28.6c0,4.1,3.4,7.5,7.5,7.5c4.1,0,7.5-3.4,7.5-7.5v-28.6H306.1z"/>
	<path d="M474.4,439.1v28.6c0,4.1,3.4,7.5,7.5,7.5c4.1,0,7.5-3.4,7.5-7.5v-28.6H474.4z"/>
	<path d="M346.2,439.1v28.6c0,4.1,3.4,7.5,7.5,7.5c4.1,0,7.5-3.4,7.5-7.5v-28.6H346.2z"/>
	<path d="M514.5,439.1v28.6c0,4.1,3.4,7.5,7.5,7.5c4.1,0,7.5-3.4,7.5-7.5v-28.6H514.5z"/>
	<path d="M410.3,439.1v28.6c0,4.1,3.4,7.5,7.5,7.5c4.1,0,7.5-3.4,7.5-7.5v-28.6H410.3z"/>
</g>
<path class="st0" d="M312.2,342.1l-31.6-26.3c-0.7-0.6-1.5-0.9-2.4-0.9h-83.5c-0.9,0-1.8,0.3-2.4,0.9l-31.6,26.3
	c-1.5,1.3-1.8,3.5-0.7,5.1l18.1,25.6c0.7,1,1.9,1.6,3.1,1.6c0.6,0,1.1-0.1,1.7-0.4l8.1-4v59.8c0,2.1,1.7,3.8,3.8,3.8
	c26.5,0,53.1,0,79.6,0h3.7c2.1,0,3.8-1.7,3.8-3.8c0-2.1-1.7-3.8-3.8-3.8c-26.5,0-53.1,0-79.6,0V322.4h14.2
	c1.8,11.5,11.8,20.3,23.8,20.3c12,0,22-8.8,23.8-20.3h14.2c-0.3,34.1-0.6,68.2-0.9,102.3c2.7,0.1,5.5,0.2,8.2,0.2
	c0.1-18.4,0.1-36.7,0.2-55.1l8.1,4c0.5,0.3,1.1,0.4,1.7,0.4c1.2,0,2.3-0.6,3.1-1.6l18.1-25.6C314,345.6,313.7,343.4,312.2,342.1z
	 M191,361.5l-8.6,4.3l-14.2-20.1l22.8-19V361.5z M236.5,335.2c-7.8,0-14.4-5.5-16.1-12.8h32.2C250.9,329.8,244.3,335.2,236.5,335.2z
	 M290.6,365.8l-8.6-4.3v-34.8l22.8,19L290.6,365.8z"/>
<g>
	<path class="st1" d="M278.3,144.4c-31.1,0-56.3,25.2-56.3,56.3s25.2,56.3,56.3,56.3s56.3-25.2,56.3-56.3S309.4,144.4,278.3,144.4z
		 M278.3,246.7c-25.4,0-45.9-20.6-45.9-45.9c0-25.4,20.6-45.9,45.9-45.9s45.9,20.6,45.9,45.9C324.2,226.1,303.7,246.7,278.3,246.7z"
		/>
	<path class="st1" d="M278.3,179.2c5.5,0,10,3.9,10,8.6c0,2.5,2,4.5,4.5,4.5c2.5,0,4.5-2,4.5-4.5c0-8.3-6.2-15.3-14.5-17.2v-2.4
		c0-2.5-2-4.5-4.5-4.5s-4.5,2-4.5,4.5v2.4c-8.3,1.9-14.5,8.9-14.5,17.2c0,9.7,8.5,17.7,19,17.7c5.5,0,10,3.9,10,8.6
		c0,4.8-4.5,8.6-10,8.6s-10-3.9-10-8.6c0-2.5-2-4.5-4.5-4.5s-4.5,2-4.5,4.5c0,8.3,6.2,15.3,14.5,17.2v2c0,2.5,2,4.5,4.5,4.5
		s4.5-2,4.5-4.5v-2c8.3-1.9,14.5-8.9,14.5-17.2c0-9.7-8.5-17.7-19-17.7c-5.5,0-10-3.9-10-8.6C268.4,183.1,272.8,179.2,278.3,179.2z"
		/>
</g>
</svg>
