<?xml version="1.0" encoding="utf-8"?>
<!-- Generator: Adobe Illustrator 21.0.0, SVG Export Plug-In . SVG Version: 6.00 Build 0)  -->
<svg version="1.1" id="Scheme" xmlns="http://www.w3.org/2000/svg" xmlns:xlink="http://www.w3.org/1999/xlink" x="0px" y="0px"
	 viewBox="0 0 60 60" style="enable-background:new 0 0 60 60;" xml:space="preserve">
<style type="text/css">
	.st0{fill:none;stroke:#000000;stroke-width:2;stroke-linecap:round;stroke-miterlimit:10;}
	.st1{fill:#83A0A5;}
	.st2{fill:none;stroke:#000000;stroke-width:2;stroke-miterlimit:10;}
</style>
<g id="server">
	<g>
		<path class="st0" d="M55.4,20.5H4.6c-2,0-3.6-1.6-3.6-3.6V5.1c0-2,1.6-3.6,3.6-3.6h50.8c2,0,3.6,1.6,3.6,3.6v11.8
			C59,18.9,57.4,20.5,55.4,20.5z"/>
		<circle class="st0" cx="10.5" cy="11" r="3.5"/>
		<g>
			<circle cx="50" cy="9.5" r="1"/>
			<circle cx="46" cy="9.5" r="1"/>
			<circle cx="52" cy="12.5" r="1"/>
			<circle cx="48" cy="12.5" r="1"/>
			<circle cx="42" cy="9.5" r="1"/>
			<circle cx="44" cy="12.5" r="1"/>
			<circle cx="38" cy="9.5" r="1"/>
			<circle cx="40" cy="12.5" r="1"/>
			<circle cx="34" cy="9.5" r="1"/>
			<circle cx="36" cy="12.5" r="1"/>
		</g>
	</g>
	<g>
		<path class="st0" d="M55.4,39.5H4.6c-2,0-3.6-1.6-3.6-3.6V24.1c0-2,1.6-3.6,3.6-3.6h50.8c2,0,3.6,1.6,3.6,3.6v11.8
			C59,37.9,57.4,39.5,55.4,39.5z"/>
		<circle class="st0" cx="10.5" cy="30" r="3.5"/>
		<g>
			<circle cx="50" cy="28.5" r="1"/>
			<circle cx="46" cy="28.5" r="1"/>
			<circle cx="52" cy="31.5" r="1"/>
			<circle cx="48" cy="31.5" r="1"/>
			<circle cx="42" cy="28.5" r="1"/>
			<circle cx="44" cy="31.5" r="1"/>
			<circle cx="38" cy="28.5" r="1"/>
			<circle cx="40" cy="31.5" r="1"/>
			<circle cx="34" cy="28.5" r="1"/>
			<circle cx="36" cy="31.5" r="1"/>
		</g>
	</g>
	<g>
		<path class="st0" d="M55.4,1.5H4.6C2.6,1.5,1-0.1,1-2.1v-11.8c0-2,1.6-3.6,3.6-3.6h50.8c2,0,3.6,1.6,3.6,3.6v11.8
			C59-0.1,57.4,1.5,55.4,1.5z"/>
		<circle class="st0" cx="10.5" cy="-8" r="3.5"/>
		<g>
			<circle cx="50" cy="-9.5" r="1"/>
			<circle cx="46" cy="-9.5" r="1"/>
			<circle cx="52" cy="-6.5" r="1"/>
			<circle cx="48" cy="-6.5" r="1"/>
			<circle cx="42" cy="-9.5" r="1"/>
			<circle cx="44" cy="-6.5" r="1"/>
			<circle cx="38" cy="-9.5" r="1"/>
			<circle cx="40" cy="-6.5" r="1"/>
			<circle cx="34" cy="-9.5" r="1"/>
			<circle cx="36" cy="-6.5" r="1"/>
		</g>
	</g>
</g>
<g id="python">
	<path id="path1948" class="st1" d="M29.8-67.8c-1.7,0-3.3,0.2-4.7,0.4c-4.2,0.7-5,2.3-5,5.2v3.8H30v1.3h-9.9h-3.7
		c-2.9,0-5.4,1.7-6.2,5c-0.9,3.8-1,6.1,0,10.1c0.7,2.9,2.4,5,5.3,5h3.4v-4.5c0-3.3,2.8-6.2,6.2-6.2h9.9c2.8,0,5-2.3,5-5v-9.4
		c0-2.7-2.3-4.7-5-5.2C33.2-67.7,31.4-67.8,29.8-67.8z M24.4-64.8c1,0,1.9,0.8,1.9,1.9c0,1-0.8,1.9-1.9,1.9c-1,0-1.9-0.8-1.9-1.9
		C22.5-63.9,23.4-64.8,24.4-64.8z"/>
	<path id="path1950" class="st1" d="M41.1-57.2v4.4c0,3.4-2.9,6.3-6.2,6.3H25c-2.7,0-5,2.3-5,5v9.4c0,2.7,2.3,4.3,5,5
		c3.1,0.9,6.1,1.1,9.9,0c2.5-0.7,5-2.2,5-5v-3.8H30v-1.3h9.9h5c2.9,0,4-2,5-5c1-3.1,1-6.1,0-10.1c-0.7-2.9-2.1-5-5-5H41.1z
		 M35.5-33.3c1,0,1.9,0.8,1.9,1.9c0,1-0.8,1.9-1.9,1.9c-1,0-1.9-0.8-1.9-1.9C33.7-32.5,34.5-33.3,35.5-33.3z"/>
</g>
<g id="mysql">
	<path class="st1" d="M164.8-40.3c-2.2-0.1-4,0.2-5.4,0.8c-0.4,0.2-1.1,0.2-1.1,0.7c0.2,0.2,0.2,0.6,0.4,0.9
		c0.3,0.6,0.9,1.3,1.4,1.7c0.6,0.4,1.2,0.9,1.8,1.3c1.1,0.7,2.3,1.1,3.4,1.7c0.6,0.4,1.2,0.9,1.8,1.3c0.3,0.2,0.5,0.6,0.9,0.7v-0.1
		c-0.2-0.2-0.3-0.6-0.4-0.9c-0.3-0.3-0.6-0.5-0.8-0.8c-0.8-1.1-1.8-2-2.9-2.8c-0.9-0.6-2.8-1.4-3.2-2.5l-0.1-0.1
		c0.6-0.1,1.3-0.3,1.9-0.4c0.9-0.2,1.8-0.2,2.8-0.4c0.4-0.1,0.9-0.3,1.3-0.4v-0.3c-0.5-0.5-0.9-1.2-1.4-1.6c-1.4-1.2-3-2.4-4.6-3.4
		c-0.9-0.6-2-0.9-2.9-1.4c-0.3-0.2-0.9-0.3-1.1-0.5c-0.5-0.6-0.8-1.4-1.1-2.1c-0.8-1.5-1.6-3.2-2.3-4.8c-0.5-1.1-0.8-2.2-1.4-3.2
		c-2.9-4.7-6-7.6-10.8-10.4c-1-0.6-2.3-0.8-3.6-1.1c-0.7,0-1.4-0.1-2.1-0.1c-0.4-0.2-0.9-0.7-1.3-1c-1.6-1-5.7-3.2-6.9-0.3
		c-0.8,1.8,1.1,3.6,1.8,4.5c0.5,0.6,1.1,1.4,1.4,2.1c0.2,0.5,0.2,1,0.4,1.5c0.4,1.2,0.9,2.6,1.4,3.7c0.3,0.6,0.6,1.2,1,1.7
		c0.2,0.3,0.6,0.4,0.7,0.9c-0.4,0.6-0.4,1.4-0.6,2.1c-1,3.1-0.6,7,0.8,9.4c0.4,0.7,1.5,2.2,2.9,1.6c1.3-0.5,1-2.1,1.3-3.5
		c0.1-0.3,0-0.6,0.2-0.8v0.1c0.4,0.8,0.8,1.5,1.1,2.3c0.9,1.4,2.4,2.8,3.6,3.7c0.7,0.5,1.2,1.4,2,1.7v-0.1h-0.1
		c-0.2-0.2-0.4-0.4-0.6-0.6c-0.5-0.5-1.1-1.1-1.4-1.7c-1.2-1.6-2.2-3.3-3.1-5.1c-0.4-0.9-0.8-1.8-1.2-2.7c-0.2-0.3-0.2-0.8-0.4-1
		c-0.4,0.6-1,1.1-1.3,1.9c-0.5,1.2-0.6,2.7-0.8,4.2c-0.1,0-0.1,0-0.1,0.1c-0.9-0.2-1.2-1.1-1.5-1.9c-0.8-2-1-5.2-0.3-7.4
		c0.2-0.6,1-2.4,0.7-3c-0.2-0.5-0.7-0.8-1-1.3c-0.4-0.5-0.8-1.2-1-1.8c-0.7-1.6-1-3.3-1.7-4.8c-0.3-0.7-0.9-1.5-1.4-2.1
		c-0.5-0.8-1.1-1.3-1.5-2.2c-0.1-0.3-0.3-0.8-0.1-1.1c0.1-0.2,0.2-0.3,0.4-0.4c0.4-0.3,1.4,0.1,1.8,0.3c1,0.4,1.9,0.8,2.8,1.4
		c0.4,0.3,0.8,0.8,1.3,0.9h0.6c0.9,0.2,1.9,0.1,2.7,0.3c1.5,0.5,2.8,1.2,4,1.9c3.6,2.3,6.7,5.6,8.7,9.5c0.3,0.6,0.5,1.2,0.8,1.9
		c0.6,1.4,1.3,2.8,1.9,4.1c0.6,1.3,1.1,2.6,2,3.7c0.4,0.6,2.1,0.9,2.8,1.2c0.6,0.3,1.4,0.5,1.9,0.8c0.9,0.6,1.9,1.3,2.8,1.9
		C163.3-41.5,164.7-40.8,164.8-40.3L164.8-40.3z"/>
	<path class="st1" d="M136.3-64.5c-0.5,0-0.8,0.1-1.1,0.1v0.1h0.1c0.2,0.4,0.6,0.8,0.9,1.1c0.2,0.4,0.4,0.9,0.6,1.3l0.1-0.1
		c0.4-0.3,0.6-0.7,0.6-1.4c-0.2-0.2-0.2-0.4-0.3-0.6C136.9-64.1,136.6-64.3,136.3-64.5L136.3-64.5z"/>
</g>
<g id="database">
	<path class="st0" d="M171.5-8.6L171.5-8.6c-0.7-4.5-11.2-8-24-8c-12.8,0-23.2,3.5-24,8l0,0h0v0.5V3.4v0.5v0.5v11v0.5v0.5v12h0
		c0.7,4.5,11.2,8,24,8s23.2-3.5,24-8h0v-12v-0.5v-0.5v-11V3.9V3.4V-8.1L171.5-8.6L171.5-8.6z"/>
	<g>
		<path class="st0" d="M147.5,24.4c-13.3,0-24-3.8-24-8.5v12.5h0c0.7,4.5,11.2,8,24,8s23.2-3.5,24-8h0V15.9
			C171.5,20.6,160.8,24.4,147.5,24.4z"/>
		<path class="st0" d="M123.5,15.4v0.5C123.5,15.7,123.5,15.5,123.5,15.4L123.5,15.4z"/>
		<path class="st0" d="M171.5,15.4c0,0.2,0,0.3,0,0.5L171.5,15.4L171.5,15.4z"/>
	</g>
	<g>
		<path class="st0" d="M147.5,12.4c-13.3,0-24-3.8-24-8.5v12.5h0c0.7,4.5,11.2,8,24,8s23.2-3.5,24-8h0V3.9
			C171.5,8.6,160.8,12.4,147.5,12.4z"/>
		<path class="st0" d="M123.5,3.4v0.5C123.5,3.7,123.5,3.5,123.5,3.4L123.5,3.4z"/>
		<path class="st0" d="M171.5,3.4c0,0.2,0,0.3,0,0.5L171.5,3.4L171.5,3.4z"/>
	</g>
	<ellipse class="st0" cx="147.5" cy="-8.1" rx="24" ry="8.5"/>
	<g>
		<path class="st0" d="M147.5,0.4c-13.3,0-24-3.8-24-8.5V4.4h0c0.7,4.5,11.2,8,24,8s23.2-3.5,24-8h0V-8.1
			C171.5-3.4,160.8,0.4,147.5,0.4z"/>
		<path class="st0" d="M123.5-8.6v0.5C123.5-8.3,123.5-8.5,123.5-8.6L123.5-8.6z"/>
		<path class="st0" d="M171.5-8.6c0,0.2,0,0.3,0,0.5L171.5-8.6L171.5-8.6z"/>
	</g>
</g>
<g id="trans">
	<circle class="st0" cx="74.7" cy="11.5" r="4"/>
	<line class="st0" x1="78.7" y1="11.5" x2="103.8" y2="11.5"/>
	<circle class="st0" cx="107.8" cy="11.5" r="4"/>
</g>
<g>
	<g id="Shape_353">
		<g>
			<path d="M-231.3,23.4h47.8c1.1,0,2-0.9,2-2V-6.4c0-1.1-0.9-2-2-2h-47.8c-1.1,0-2,0.9-2,2v27.9C-233.3,22.5-232.4,23.4-231.3,23.4
				z M-231.3-5.4c0-0.6,0.4-1,1-1h45.8c0.5,0,1,0.4,1,1v25.9c0,0.5-0.4,1-1,1h-45.8c-0.5,0-1-0.4-1-1V-5.4z M-178.5,25.4h-57.7
				c-0.5,0-1,0.4-1,1c0,0.6,0.4,1,1,1h57.7c0.5,0,1-0.4,1-1C-177.5,25.9-178,25.4-178.5,25.4z"/>
		</g>
	</g>
</g>
<path class="st0" d="M-198.9,129h-16.8c-1.2,0-2.1-0.9-2.1-2.1V94.4c0-1.2,0.9-2.1,2.1-2.1h16.8c1.2,0,2.1,0.9,2.1,2.1v32.4
	C-196.8,128-197.8,129-198.9,129z"/>
<circle cx="-207.3" cy="124.8" r="1"/>
<g>
	<path d="M-197.6,152.9h-19.5c-0.4,0-0.8,0.4-0.8,0.8V170c0,0.4,0.4,0.8,0.8,0.8h3.5v5.5c0,1.3,1,2.3,2.3,2.3l0,0
		c1.3,0,2.3-1,2.3-2.3v-5.5h3.2v5.5c0,1.3,1,2.3,2.3,2.3l0,0c1.3,0,2.3-1,2.3-2.3v-5.5h3.5c0.4,0,0.8-0.4,0.8-0.8v-16.3
		C-196.8,153.3-197.2,152.9-197.6,152.9z"/>
	<path d="M-221.8,152.9L-221.8,152.9c-1.3,0-2.3,1-2.3,2.3v9.4c0,1.3,1,2.3,2.3,2.3l0,0c1.3,0,2.3-1,2.3-2.3v-9.4
		C-219.5,153.9-220.5,152.9-221.8,152.9z"/>
	<path d="M-193,152.9L-193,152.9c-1.3,0-2.3,1-2.3,2.3v9.4c0,1.3,1,2.3,2.3,2.3l0,0c1.3,0,2.3-1,2.3-2.3v-9.4
		C-190.7,153.9-191.7,152.9-193,152.9z"/>
	<path d="M-216.9,151.5h19.1c0.5,0,0.9-0.5,0.8-0.9c-0.6-3-2.6-5.6-5.2-7l1.6-3c0.1-0.2,0-0.5-0.2-0.6c-0.2-0.1-0.5,0-0.6,0.2
		l-1.6,3c-1.3-0.6-2.9-1-4.4-1c-1.6,0-3.1,0.3-4.4,1l-1.6-3c-0.1-0.2-0.4-0.3-0.6-0.2c-0.2,0.1-0.3,0.4-0.2,0.6l1.6,3
		c-2.6,1.5-4.5,4-5.2,7C-217.8,151.1-217.4,151.5-216.9,151.5z M-201.7,147.4c0,0.6-0.5,1.1-1.1,1.1c-0.6,0-1.1-0.5-1.1-1.1
		c0-0.6,0.5-1.1,1.1-1.1C-202.2,146.3-201.7,146.8-201.7,147.4z M-211.9,146.3c0.6,0,1.2,0.5,1.2,1.2c0,0.6-0.5,1.2-1.2,1.2
		c-0.6,0-1.2-0.5-1.2-1.2C-213.1,146.8-212.5,146.3-211.9,146.3z"/>
</g>
<g id="trans_1_">
	<circle class="st0" cx="30" cy="53.5" r="4"/>
	<line class="st0" x1="1" y1="53.5" x2="26" y2="53.5"/>
	<line class="st2" x1="30" y1="49.5" x2="30" y2="39.5"/>
	<path class="st0" d="M0,53.5h-67c-0.5,0-6.6,0.1-9.9-4.9c-2-3-1.8-6.2-1.7-7.3c0.2-7.2,0.3-14.5,0.5-21.7c-0.1-1.4-0.4-3.6-1.7-5.6
		c-2.5-3.8-7.5-5.6-12.9-4.8c-21.6-0.2-43.1-0.3-64.7-0.5"/>
	<circle class="st0" cx="-161.5" cy="8.7" r="4"/>
	<path class="st0" d="M29.9,58.7c0.2,13.9,0.4,27.7,0.6,41.6c-0.1,1.4-0.4,3.5-1.7,5.4c-2.5,3.7-7.5,5.5-12.9,4.7
		c-57.6,0-115.2,0-172.9,0.1"/>
	<circle class="st0" cx="-161.5" cy="110.6" r="4"/>
</g>
</svg>
