<?xml version="1.0" encoding="utf-8"?>
<!-- Generator: Adobe Illustrator 21.0.0, SVG Export Plug-In . SVG Version: 6.00 Build 0)  -->
<svg version="1.1" id="Слой_1" xmlns="http://www.w3.org/2000/svg" xmlns:xlink="http://www.w3.org/1999/xlink" x="0px" y="0px"
	 viewBox="0 0 1920 1080" style="enable-background:new 0 0 1920 1080;" xml:space="preserve">
<style type="text/css">
	.st0{fill:none;}
	.st1{fill:#FFFFFF;}
	.st2{fill:none;stroke:#F4D3D3;stroke-width:3;stroke-linecap:round;stroke-miterlimit:10;}
	.st3{fill:none;stroke:#FFFFFF;stroke-width:3;stroke-linecap:round;stroke-miterlimit:10;}
	.st4{fill:url(#background_2_);}
	.st5{fill:#FFFFFF;stroke:#E0E0E0;stroke-miterlimit:10;}
	.st6{font-family:'Anton-Regular';}
	.st7{font-size:30.7471px;}
	.st8{font-family:'RobotoCondensed-Light';}
	.st9{font-size:26px;}
	.st10{fill:#F2B303;}
	.st11{fill:#D65600;}
	.st12{fill:#BCBCBC;}
	.st13{display:none;fill:#C1F4EE;}
	.st14{fill:#E7ECED;}
	.st15{fill:#BDCCD4;}
	.st16{font-family:'ArialMT';}
	.st17{font-size:24px;}
	.st18{fill:#E0E0E0;}
	.st19{fill:none;stroke:#BCBCBC;stroke-width:1.5;stroke-miterlimit:10;}
	.st20{fill:#808080;}
	.st21{font-size:15.2642px;}
	.st22{font-size:17.8082px;}
	.st23{opacity:0.3;stroke:#E0E0E0;stroke-miterlimit:10;enable-background:new    ;}
	.st24{opacity:0.3;enable-background:new    ;}
	.st25{fill:none;stroke:#FFFFFF;stroke-width:1.5;stroke-miterlimit:10;}
	.st26{font-size:15.3606px;}
	.st27{fill:none;stroke:#E0E0E0;stroke-miterlimit:10;}
	.st28{font-size:15.2809px;}
	.st29{font-size:17.8277px;}
	.st30{font-size:15.3774px;}
	.st31{font-size:15.2571px;}
	.st32{font-size:17.7999px;}
	.st33{font-size:15.3535px;}
	.st34{display:none;fill:#808080;enable-background:new    ;}
	.st35{font-size:15.2666px;}
	.st36{font-size:17.811px;}
	.st37{font-size:15.363px;}
	.st38{font-size:20px;}
	.st39{fill:none;stroke:#BCBCBC;stroke-miterlimit:10;}
</style>
<pattern  width="206" height="206" patternUnits="userSpaceOnUse" id="Новый_образец_узора_1" viewBox="0 -206 206 206" style="overflow:visible;">
	<g>
		<rect y="-206" class="st0" width="206" height="206"/>
		<g id="Слой_5_2_">
			<rect y="-206" class="st1" width="206" height="206"/>
			<line class="st2" x1="13.5" y1="-193.5" x2="21" y2="-184"/>
			<line class="st2" x1="42" y1="-62" x2="32.5" y2="-67.5"/>
			<line class="st3" x1="31.4" y1="-122.1" x2="39.1" y2="-131.4"/>
			<line class="st2" x1="89.4" y1="-84.7" x2="85.1" y2="-94.8"/>
			<line class="st3" x1="106.4" y1="-138.1" x2="118.1" y2="-141.4"/>
			<line class="st3" x1="89.3" y1="-52.3" x2="99.2" y2="-59.2"/>
			<line class="st2" x1="82.6" y1="-168.7" x2="71.9" y2="-170.8"/>
			<line class="st3" x1="126.3" y1="-175.5" x2="120.2" y2="-186"/>
			<line class="st2" x1="158.4" y1="-90.1" x2="150.1" y2="-97.4"/>
			<line class="st3" x1="142.4" y1="-51.1" x2="150.1" y2="-60.4"/>
			<line class="st2" x1="186.4" y1="-139.7" x2="182.1" y2="-149.8"/>
			<line class="st2" x1="116.4" y1="-17.1" x2="108.1" y2="-24.4"/>
			<line class="st3" x1="197.3" y1="-64.5" x2="191.2" y2="-75"/>
			<line class="st2" x1="180.4" y1="-11.7" x2="176.1" y2="-21.8"/>
			<line class="st3" x1="36.4" y1="-10.1" x2="48.1" y2="-13.4"/>
		</g>
	</g>
</pattern>
<pattern  id="background_2_" xlink:href="#РќРѕРІС‹Р№_РѕР±СЂР°Р·РµС†_СѓР·РѕСЂР°_1" patternTransform="matrix(1 0 0 1 1 51)">
</pattern>
<rect id="background_1_" x="-0.1" y="97.2" class="st4" width="1920.1" height="982.8"/>
<g id="nav_bar">
	<rect x="-0.5" y="-0.5" class="st5" width="1921" height="101"/>
	<g id="logo">
		<g>
			<path d="M158.7,46.2l-27.4-15.6c-1.6-0.9-3.5-1.5-5.5-1.7V27c3.1-0.8,5.4-3.6,5.4-6.9c0-3.9-3.2-7.1-7.1-7.1s-7.1,3.2-7.1,7.1
				c0,0.9,0.7,1.7,1.7,1.7s1.7-0.7,1.7-1.7c0-2.1,1.7-3.7,3.7-3.7s3.7,1.7,3.7,3.7s-1.7,3.7-3.7,3.7c-0.9,0-1.7,0.7-1.7,1.7v3.4
				c-2,0.2-3.9,0.8-5.5,1.7L89.7,46.2c-1.9,1.1-3.2,3.1-3.2,5.4c0,3.4,2.7,6.1,6.1,6.1h63.1c3.4,0,6.1-2.7,6.1-6.1
				C161.9,49.3,160.7,47.3,158.7,46.2L158.7,46.2z M155.8,54.3H92.6c-1.5,0-2.8-1.2-2.8-2.8c0-1,0.5-1.9,1.5-2.4l27.4-15.6
				c0.6-0.3,2.6-1.4,5.5-1.4s5,1,5.5,1.4l27.4,15.6c0.9,0.5,1.4,1.4,1.4,2.4C158.5,53.1,157.3,54.3,155.8,54.3z"/>
			<text transform="matrix(1 0 0 1 84 86.9761)" class="st6 st7">SHMOT</text>
		</g>
	</g>
	<text transform="matrix(1 0 0 1 300 60)" class="st8 st9">ЖЕНСКОЕ</text>
	<text transform="matrix(1 0 0 1 444 60)" class="st8 st9">МУЖСКОЕ</text>
	<text transform="matrix(1 0 0 1 600 60)" class="st8 st9">АКСЕССУАРЫ</text>
	<text transform="matrix(1 0 0 1 794 60)" class="st8 st9">БРЕНДЫ</text>
	<text transform="matrix(1 0 0 1 932 60)" class="st8 st9">ХАЙП</text>
	<g>
		<path class="st10" d="M1008.1,46.5c0.3,1.2-0.1,4.5-1.9,6.5c0.4-2.1-0.6-3.4-0.6-3.4s-0.3,1.9-1.6,3.8c-1.2,1.7-2,3.6-0.5,6.8
			c0.4,0.3,0.9,0.6,1.6,0.9c0.9,0.4,1.8,0.6,2.4,0.7c0.6-0.1,1.2-0.2,2-0.5c0.9-0.3,1.6-0.7,2.1-1.1
			C1013.9,55.6,1012.2,49.4,1008.1,46.5z"/>
		<path class="st11" d="M1003.5,60.2c-1.6-3.2-0.7-5.1,0.5-6.8c1.3-1.9,1.6-3.8,1.6-3.8s1,1.3,0.6,3.4c1.8-2,2.2-5.3,1.9-6.5
			c4.1,2.9,5.9,9.1,3.5,13.7c12.6-7.1,3.1-17.8,1.5-19c0.5,1.2,0.7,3.2-0.5,4.2c-1.9-7.1-6.5-8.6-6.5-8.6c0.5,3.7-2,7.7-4.4,10.7
			c-0.1-1.5-0.2-2.5-0.9-3.9c-0.2,2.7-2.2,4.8-2.8,7.5C997.2,54.7,998.5,57.4,1003.5,60.2z"/>
	</g>
	<polygon class="st12" points="1663.9,29.7 1670.4,42.8 1684.9,44.9 1674.4,55.1 1676.9,69.5 1663.9,62.7 1651,69.5 1653.5,55.1 
		1643,44.9 1657.5,42.8 	"/>
	<polygon class="st13" points="1663.9,29.7 1670.4,42.8 1684.9,44.9 1674.4,55.1 1676.9,69.5 1663.9,62.7 1651,69.5 1653.5,55.1 
		1643,44.9 1657.5,42.8 	"/>
	<path class="st12" d="M1761.4,65.5l-9.1-9.5c2.3-2.8,3.6-6.3,3.6-10c0-8.5-6.9-15.5-15.5-15.5c-8.5,0-15.5,6.9-15.5,15.5
		s6.9,15.5,15.5,15.5c3.2,0,6.3-1,8.9-2.8l9.2,9.6c0.4,0.4,0.9,0.6,1.5,0.6c0.5,0,1-0.2,1.4-0.6
		C1762.2,67.6,1762.2,66.4,1761.4,65.5z M1740.5,34.7c6.3,0,11.4,5.1,11.4,11.4s-5.1,11.4-11.4,11.4s-11.4-5.1-11.4-11.4
		S1734.2,34.7,1740.5,34.7z"/>
	<path class="st13" d="M1761.4,65.5l-9.1-9.5c2.3-2.8,3.6-6.3,3.6-10c0-8.5-6.9-15.5-15.5-15.5c-8.5,0-15.5,6.9-15.5,15.5
		s6.9,15.5,15.5,15.5c3.2,0,6.3-1,8.9-2.8l9.2,9.6c0.4,0.4,0.9,0.6,1.5,0.6c0.5,0,1-0.2,1.4-0.6
		C1762.2,67.6,1762.2,66.4,1761.4,65.5z M1740.5,34.7c6.3,0,11.4,5.1,11.4,11.4s-5.1,11.4-11.4,11.4s-11.4-5.1-11.4-11.4
		S1734.2,34.7,1740.5,34.7z"/>
	<g>
		<path class="st12" d="M1831.5,26c-14.6,0-26.5,11.9-26.5,26.5c0,8,3.6,15.2,9.2,20.1c0.6-0.8,1.4-1.5,2.3-1.9l9.1-3.9
			c0.5-0.2,0.9-1,1.2-1.6c0.3-0.5-0.1-1.1-0.7-1.1h-6.4c0,0-2.3-0.2-4.1-1c-1.1-0.5-1.4-1-0.8-2c1.9-2.7,5.9-9.2,6-15.9
			c0,0,0.2-10.3,10.3-10.3c5.9,0,8.7,3.5,10,6.4c0.7,1.6,1,3.4,1.2,5.1c0.4,6.4,3.7,12.2,5.2,14.6c0.5,0.8,0.3,2-0.6,2.5
			c-1.4,0.8-3.1,0.5-3.1,0.5h-6.5c-0.6,0-0.9,0.9-0.4,1.3c0.4,0.3,0.8,0.6,1,0.7l7.6,4.6c1.1,0.6,2,1.5,2.5,2.5c0,0,0.1,0,0.1,0.1
			c6.1-4.9,9.9-12.3,9.9-20.7C1858,37.9,1846.1,26,1831.5,26z"/>
		<path class="st14" d="M1816.5,70.6l9.1-3.9c0.5-0.2,0.9-1,1.2-1.6c0.3-0.5-0.1-1.1-0.7-1.1h-6.4c0,0-2.3-0.2-4.1-1
			c-1.1-0.5-1.4-1-0.8-2c1.9-2.7,5.9-9.2,6-15.9c0,0,0.2-10.3,10.3-10.3c5.9,0,8.7,3.5,10,6.4c0.7,1.6,1,3.4,1.2,5.1
			c0.4,6.4,3.7,12.2,5.2,14.6c0.5,0.8,0.3,2-0.6,2.5c-1.4,0.8-3.1,0.5-3.1,0.5h-6.5c-0.6,0-0.9,0.9-0.4,1.3c0.4,0.3,0.8,0.6,1,0.7
			l7.6,4.6c1.1,0.6,2,1.5,2.6,2.5c-4.5,3.7-10.3,5.9-16.6,5.9c-6.6,0-12.6-2.4-17.2-6.4C1814.7,71.8,1815.5,71.1,1816.5,70.6z"/>
	</g>
</g>
<g id="footer_1_">
	<g id="footer">
		<rect y="775.4" class="st15" width="1920" height="305"/>
	</g>
	<text transform="matrix(1 0 0 1 1541.8838 838.0297)" class="st1 st16 st17">Поделиться</text>
	<path class="st1" d="M1635.7,857c-14.4,0-26,11.6-26,26c0,14.4,11.6,26,26,26c14.4,0,26-11.6,26-26
		C1661.7,868.7,1650,857,1635.7,857z M1642.2,874.9h-3.4c-0.9,0-1.5,0.8-1.5,1.7v1.5h4.8l-0.8,4.8h-4v13h-4.9v-13h-3.2v-4.8h3.2
		v-2.5h0c0.1-2.8,1.1-5.5,5.8-5.7v0h3.9V874.9z"/>
	<path class="st1" d="M1705.1,857.4c-14.4,0-26,11.6-26,26s11.6,26,26,26c14.4,0,26-11.6,26-26S1719.5,857.4,1705.1,857.4z
		 M1718,879.3c0,0.3,0,0.5,0,0.8c0,8.2-6.3,17.7-17.7,17.7c-3.5,0-6.8-1-9.5-2.8c0.5,0.1,1,0.1,1.5,0.1c2.9,0,5.6-1,7.7-2.7
		c-2.7-0.1-5-1.8-5.8-4.3c0.4,0.1,0.8,0.1,1.2,0.1c0.6,0,1.1-0.1,1.6-0.2c-2.8-0.6-5-3.1-5-6.1c0,0,0-0.1,0-0.1
		c0.8,0.5,1.8,0.7,2.8,0.8c-1.7-1.1-2.8-3-2.8-5.2c0-1.1,0.3-2.2,0.8-3.1c3.1,3.8,7.6,6.2,12.8,6.5c-0.1-0.5-0.2-0.9-0.2-1.4
		c0-3.4,2.8-6.2,6.2-6.2c1.8,0,3.4,0.8,4.5,2c1.4-0.3,2.7-0.8,3.9-1.5c-0.5,1.5-1.4,2.7-2.7,3.4c1.3-0.1,2.5-0.5,3.6-1
		C1720.2,877.3,1719.2,878.4,1718,879.3z"/>
	<path class="st1" d="M1568.1,855.5c-14.4,0-26,11.6-26,26c0,14.4,11.6,26,26,26c14.4,0,26-11.6,26-26
		C1594.1,867.1,1582.5,855.5,1568.1,855.5z M1583,892.9l-4.6,0.1c0,0-1,0.2-2.3-0.7c-1.7-1.2-3.3-4.2-4.6-3.8
		c-1.3,0.4-1.2,3.1-1.2,3.1s0,0.6-0.3,0.9c-0.3,0.3-0.9,0.4-0.9,0.4h-2c0,0-4.5,0.3-8.5-3.9c-4.3-4.5-8.1-13.4-8.1-13.4
		s-0.2-0.6,0-0.9c0.3-0.3,1-0.3,1-0.3l4.9,0c0,0,0.5,0.1,0.8,0.3c0.3,0.2,0.4,0.6,0.4,0.6s0.8,2,1.8,3.8c2,3.5,3,4.3,3.7,3.9
		c1-0.6,0.7-5,0.7-5s0-1.6-0.5-2.3c-0.4-0.6-1.2-0.7-1.5-0.8c-0.3,0,0.2-0.7,0.8-1c0.9-0.4,2.4-0.5,4.3-0.4c1.4,0,1.8,0.1,2.4,0.2
		c1.7,0.4,1.1,2,1.1,5.7c0,1.2-0.2,2.9,0.7,3.5c0.4,0.2,1.3,0,3.6-3.8c1.1-1.8,1.9-4,1.9-4s0.2-0.4,0.5-0.6c0.3-0.2,0.7-0.1,0.7-0.1
		l5.1,0c0,0,1.5-0.2,1.8,0.5c0.3,0.7-0.6,2.4-2.7,5.2c-3.4,4.6-3.8,4.2-1,6.8c2.7,2.5,3.3,3.8,3.4,3.9
		C1585.4,892.7,1583,892.9,1583,892.9z"/>
	<path class="st1" d="M1776.1,855.5c-14.4,0-26,11.6-26,26s11.6,26,26,26c14.4,0,26-11.6,26-26S1790.5,855.5,1776.1,855.5z
		 M1777.9,889.7c-2.7,3.4-7.6,4.4-11.6,3.1c-3.4-1.1-6.1-4.2-7-7.7c-0.2-0.8-0.3-1.6-0.3-2.5c0-0.3,0-0.7,0-1
		c0.4-5.1,5-9.6,10.1-9.7c2.8-0.2,5.6,0.9,7.7,2.6l0,0l0,0c-0.9,1-1.8,1.9-2.7,2.8c-1.9-1.1-4.1-2-6.3-1.2c-3.5,1-5.7,5.2-4.4,8.7
		c0.3,0.9,0.8,1.7,1.4,2.4c1.9,2,5,2.8,7.6,1.7c1.8-0.6,3-2.3,3.5-4.1c-2,0-4.1,0-6.1-0.1v0h0c0-1.2,0-2.4,0-3.6c3.4,0,6.8,0,10.3,0
		v0c0,0,0,0,0,0C1780.3,884.1,1779.9,887.3,1777.9,889.7z M1792.9,881.1c0,1,0,2,0,3.1v0c-1,0-2,0-3.1,0c0,1,0,2,0,3.1
		c-1,0-2,0-3.1,0c0-1,0-2,0-3.1c-1,0-2,0-3.1,0v0c0-1,0-2,0-3.1v0c1,0,2,0,3.1,0c0-1,0-2,0-3.1c1,0,2,0,3,0c0,1,0,2,0,3.1
		C1790.8,881.1,1791.9,881.1,1792.9,881.1L1792.9,881.1z"/>
	<text transform="matrix(1 0 0 1 70.8838 831.0297)" class="st1 st16 st17">О сайте</text>
	<text transform="matrix(1 0 0 1 70.8838 878.0298)" class="st1 st16 st17">Помощь</text>
	<text transform="matrix(1 0 0 1 70.8838 928.0298)" class="st1 st16 st17">Обратная связь</text>
	<text transform="matrix(1 0 0 1 289.8838 1042.0298)" class="st1 st16 st17">Политика конфиденциальности</text>
	<g>
		<text transform="matrix(1 0 0 1 71.1455 1041.71)" class="st1 st16 st17">© 2017</text>
	</g>
	<g>
		
			<image style="overflow:visible;" width="96" height="96" xlink:href="icons8-Android OS-96.png"  transform="matrix(0.4583 0 0 0.4583 1782 998.3818)">
		</image>
	</g>
	<text transform="matrix(1 0 0 1 1540.8838 1032.0298)" class="st1 st16 st17">Скачать приложение</text>
</g>
<g id="container">
	<rect x="0.5" y="129.9" class="st1" width="1919" height="543.5"/>
	<path class="st18" d="M1919,130.5v542.3H1V130.5H1919 M1920,129.2h-1H1H0v1.3v542.3v1.3h1h1918h1v-1.3V130.5V129.2L1920,129.2z"/>
</g>
<g id="item_10_">
	<g>
		<path id="text_holed_6_" class="st5" d="M87.5,564.5h254.4v67.4c0,1.4-1.1,2.6-2.6,2.6H90.1c-1.4,0-2.6-1.1-2.6-2.6V564.5z"/>
		<polygon id="star_6_" class="st19" points="316.7,599.8 319.9,606.2 326.9,607.2 321.8,612.2 323,619.2 316.7,615.9 310.4,619.2 
			311.6,612.2 306.5,607.2 313.5,606.2 		"/>
		<text transform="matrix(0.9998 0 0 1 101.9453 615.2896)" class="st20 st16 st21">Zara</text>
		<text transform="matrix(0.9998 0 0 1 100.9453 590.2285)" class="st16 st22">Бомбер</text>
		<text transform="matrix(0.9998 0 0 1 275.4028 589.8726)" class="st16 st22">1500 ₽</text>
		
			<image style="overflow:visible;" width="963" height="963" xlink:href="8EB9BB16.jpg"  transform="matrix(0.2642 0 0 0.2642 87.5 309.5)">
		</image>
		<path id="cover_1_" class="st23" d="M342.5,564.5H88.1V312.7c0-1.4,1.1-2.6,2.6-2.6H340c1.4,0,2.6,1.1,2.6,2.6v251.8H342.5z"/>
		<path class="st24" d="M331.3,526.7h-52.1c-1.8,0-3.2,1.4-3.2,3.2v22.8c0,1.8,1.4,3.2,3.2,3.2h52.1c1.8,0,3.2-1.4,3.2-3.2v-22.8
			C334.6,528.1,333.1,526.7,331.3,526.7z"/>
		<path id="like_7_" class="st25" d="M319.8,532.1c-1.1,0-2.1,0.3-3,1c-0.8,0.7-1.4,1.5-1.7,2.1c-0.3-0.6-0.9-1.4-1.7-2.1
			c-0.9-0.7-1.9-1-3-1c-3.1,0-5.4,2.5-5.4,5.8c0,3.6,2.9,6,7.2,9.7c0.7,0.6,1.6,1.3,2.4,2.1c0.1,0.1,0.3,0.2,0.4,0.2
			s0.3-0.1,0.4-0.2c0.9-0.8,1.7-1.5,2.4-2.1c4.4-3.7,7.2-6.2,7.2-9.7C325.2,534.6,322.9,532.1,319.8,532.1z"/>
		<text transform="matrix(0.9998 0 0 1 281.5391 547.4541)" class="st1 st16 st26">20</text>
		<path id="photo_holer_6_" class="st27" d="M341.9,564.5H87.5V312.7c0-1.4,1.1-2.6,2.6-2.6h249.3c1.4,0,2.6,1.1,2.6,2.6v251.8
			H341.9z"/>
	</g>
</g>
<g id="item_1_">
	<g>
		<path id="text_holed_19_" class="st5" d="M370.1,562.9h254.7v67.5c0,1.4-1.1,2.6-2.6,2.6H372.6c-1.4,0-2.6-1.1-2.6-2.6v-67.5
			H370.1z"/>
		<polygon id="star_19_" class="st19" points="599.6,598.2 602.7,604.6 609.8,605.6 604.7,610.6 605.9,617.6 599.6,614.3 
			593.2,617.6 594.4,610.6 589.3,605.6 596.4,604.6 		"/>
		<text transform="matrix(1 0 0 1 383.5249 613.6807)" class="st20 st16 st28">5th studio</text>
		<text transform="matrix(1 0 0 1 383.5244 588.5928)" class="st16 st29">Укороченное пальто</text>
		<text transform="matrix(1 0 0 1 555.8813 588.2363)" class="st16 st29">2700 ₽</text>
		
			<image style="overflow:visible;" width="1710" height="1704" xlink:href="8EB9BB17.jpg"  transform="matrix(0.1492 0 0 0.1492 370.1199 307.3495)">
		</image>
		<path class="st24" d="M614.2,525h-52.1c-1.8,0-3.2,1.4-3.2,3.2V551c0,1.8,1.4,3.2,3.2,3.2h52.1c1.8,0,3.2-1.4,3.2-3.2v-22.8
			C617.4,526.4,616,525,614.2,525z"/>
		<path id="like_20_" class="st25" d="M602.7,530.4c-1.1,0-2.1,0.3-3,1c-0.8,0.7-1.4,1.5-1.7,2.1c-0.3-0.6-0.9-1.4-1.7-2.1
			c-0.9-0.7-1.9-1-3-1c-3.1,0-5.4,2.5-5.4,5.8c0,3.6,2.9,6,7.2,9.8c0.7,0.6,1.6,1.3,2.5,2.1c0.1,0.1,0.3,0.2,0.4,0.2
			s0.3-0.1,0.4-0.2c0.9-0.8,1.7-1.5,2.5-2.1c4.4-3.7,7.2-6.2,7.2-9.8C608,532.9,605.7,530.4,602.7,530.4z"/>
		<text id="_x33__17_" transform="matrix(1 0 0 1 564.3438 545.7715)" class="st1 st16 st30">13</text>
		<path id="photo_holer_19_" class="st27" d="M624.7,562.9H370.1V310.7c0-1.4,1.1-2.6,2.6-2.6h249.6c1.4,0,2.6,1.1,2.6,2.6v252.2
			H624.7z"/>
	</g>
</g>
<g id="item_2_">
	<g>
		<path id="text_holed_17_" class="st5" d="M658.2,562.6h254.3V630c0,1.4-1.1,2.6-2.6,2.6H660.8c-1.4,0-2.6-1.1-2.6-2.6V562.6z"/>
		<polygon id="star_17_" class="st19" points="887.4,597.8 890.5,604.2 897.6,605.3 892.5,610.2 893.7,617.3 887.4,614 881,617.3 
			882.2,610.2 877.1,605.3 884.2,604.2 		"/>
		<text transform="matrix(1 0 0 1 671.6597 613.3389)" class="st20 st16 st31">Weekday</text>
		<text transform="matrix(1 0 0 1 671.6597 588.2896)" class="st16 st32">Пальто-кокон</text>
		<text transform="matrix(1 0 0 1 843.7476 587.9336)" class="st16 st32">5800 ₽</text>
		
			<image style="overflow:visible;" width="498" height="496" xlink:href="8EB9BB12.jpg"  transform="matrix(0.5126 0 0 0.5106 658.4202 308.9231)">
		</image>
		<path class="st24" d="M902,524.8h-52c-1.8,0-3.2,1.4-3.2,3.2v22.8c0,1.8,1.4,3.2,3.2,3.2h52c1.8,0,3.2-1.4,3.2-3.2V528
			C905.2,526.2,903.7,524.8,902,524.8z"/>
		<path id="like_18_" class="st25" d="M890.5,530.2c-1.1,0-2.1,0.3-3,1c-0.8,0.7-1.4,1.5-1.7,2.1c-0.3-0.6-0.9-1.4-1.7-2.1
			c-0.9-0.7-1.9-1-3-1c-3.1,0-5.4,2.5-5.4,5.8c0,3.6,2.9,6,7.2,9.7c0.7,0.6,1.6,1.3,2.4,2.1c0.1,0.1,0.3,0.2,0.4,0.2
			s0.3-0.1,0.4-0.2c0.9-0.8,1.7-1.5,2.4-2.1c4.4-3.7,7.2-6.2,7.2-9.7C895.8,532.7,893.5,530.2,890.5,530.2z"/>
		<text id="_x33__15_" transform="matrix(1 0 0 1 852.1973 545.5361)" class="st1 st16 st33">10</text>
		<path id="photo_holer_17_" class="st27" d="M912.5,562.6H658.2V310.9c0-1.4,1.1-2.6,2.6-2.6H910c1.4,0,2.6,1.1,2.6,2.6
			L912.5,562.6L912.5,562.6z"/>
	</g>
</g>
<g id="item_6_">
	<g>
		<path id="text_holed_16_" class="st5" d="M945.3,562.7h254.4v67.4c0,1.4-1.1,2.6-2.6,2.6H947.8c-1.4,0-2.6-1.1-2.6-2.6
			L945.3,562.7L945.3,562.7z"/>
		<polygon id="star_16_" class="st19" points="1174.6,597.9 1177.7,604.3 1184.8,605.3 1179.7,610.3 1180.9,617.4 1174.6,614.1 
			1168.2,617.4 1169.4,610.3 1164.3,605.3 1171.4,604.3 		"/>
		<text transform="matrix(1 0 0 1 958.7241 613.4287)" class="st34 st16 st35">5th studio</text>
		<text transform="matrix(1 0 0 1 958.7246 588.3633)" class="st16 st36">Пиджак</text>
		<text transform="matrix(1 0 0 1 1130.9199 588.0068)" class="st16 st36">1100 ₽</text>
		
			<image style="overflow:visible;" width="516" height="514" xlink:href="8EB9BB1D.jpg"  transform="matrix(0.4985 0 0 0.4898 943.3467 309.6497)">
		</image>
		<path class="st24" d="M1189.2,524.8h-52.1c-1.8,0-3.2,1.4-3.2,3.2v22.8c0,1.8,1.4,3.2,3.2,3.2h52.1c1.8,0,3.2-1.4,3.2-3.2V528
			C1192.4,526.3,1191,524.8,1189.2,524.8z"/>
		<path id="like_17_" class="st25" d="M1177.7,530.2c-1.1,0-2.1,0.3-3,1c-0.8,0.7-1.4,1.5-1.7,2.1c-0.3-0.6-0.9-1.4-1.7-2.1
			c-0.9-0.7-1.9-1-3-1c-3.1,0-5.4,2.5-5.4,5.8c0,3.6,2.9,6,7.2,9.7c0.7,0.6,1.6,1.3,2.4,2.1c0.1,0.1,0.3,0.2,0.4,0.2
			s0.3-0.1,0.4-0.2c0.9-0.8,1.7-1.5,2.4-2.1c4.4-3.7,7.2-6.2,7.2-9.7C1183,532.7,1180.7,530.2,1177.7,530.2z"/>
		<text id="_x33__16_" transform="matrix(1 0 0 1 1147.9189 545.582)" class="st1 st16 st37">7</text>
		<path id="photo_holer_16_" class="st27" d="M1199.7,562.7H945.3V310.8c0-1.4,1.1-2.6,2.6-2.6h249.3c1.4,0,2.6,1.1,2.6,2.6
			L1199.7,562.7L1199.7,562.7z"/>
	</g>
</g>
<g id="item_9_">
	<g>
		<path id="text_holed_18_" class="st5" d="M1231.2,562.7h254.3v67.4c0,1.4-1.1,2.6-2.6,2.6h-249.2c-1.4,0-2.6-1.1-2.6-2.6
			L1231.2,562.7L1231.2,562.7z"/>
		<polygon id="star_18_" class="st19" points="1460.4,598 1463.5,604.4 1470.6,605.4 1465.5,610.4 1466.7,617.4 1460.4,614.1 
			1454,617.4 1455.2,610.4 1450.1,605.4 1457.2,604.4 		"/>
		<text transform="matrix(1 0 0 1 1244.6602 613.4658)" class="st20 st16 st31">Arny Praht</text>
		<text transform="matrix(1 0 0 1 1244.6602 588.416)" class="st16 st32">Рюкзак-трансфор...</text>
		<text transform="matrix(1 0 0 1 1416.748 588.0605)" class="st16 st32">3500 ₽</text>
		
			<image style="overflow:visible;" width="496" height="496" xlink:href="8EB9BB1E.jpg"  transform="matrix(0.5121 0 0 0.5131 1231.1284 307.8712)">
		</image>
		<path class="st24" d="M1475,524.9h-52c-1.8,0-3.2,1.4-3.2,3.2v22.8c0,1.8,1.4,3.2,3.2,3.2h52c1.8,0,3.2-1.4,3.2-3.2v-22.8
			C1478.2,526.4,1476.7,524.9,1475,524.9z"/>
		<path id="like_19_" class="st25" d="M1463.5,530.3c-1.1,0-2.1,0.3-3,1c-0.8,0.7-1.4,1.5-1.7,2.1c-0.3-0.6-0.9-1.4-1.7-2.1
			c-0.9-0.7-1.9-1-3-1c-3.1,0-5.4,2.5-5.4,5.8c0,3.6,2.9,6,7.2,9.7c0.7,0.6,1.6,1.3,2.4,2.1c0.1,0.1,0.3,0.2,0.4,0.2
			s0.3-0.1,0.4-0.2c0.9-0.8,1.7-1.5,2.4-2.1c4.4-3.7,7.2-6.2,7.2-9.7C1468.8,532.8,1466.5,530.3,1463.5,530.3z"/>
		<text id="_x33__18_" transform="matrix(1 0 0 1 1433.7354 545.6631)" class="st1 st16 st33">3</text>
		<path id="photo_holer_18_" class="st27" d="M1485.5,562.7h-254.3V311c0-1.4,1.1-2.6,2.6-2.6H1483c1.4,0,2.6,1.1,2.6,2.6
			L1485.5,562.7L1485.5,562.7z"/>
	</g>
</g>
<g id="item_11_">
	<g>
		<path id="text_holed_20_" class="st5" d="M1521.2,561.6h254.3V629c0,1.4-1.1,2.6-2.6,2.6h-249.2c-1.4,0-2.6-1.1-2.6-2.6
			L1521.2,561.6L1521.2,561.6z"/>
		<polygon id="star_20_" class="st19" points="1750.4,596.8 1753.5,603.2 1760.6,604.3 1755.5,609.2 1756.7,616.3 1750.4,613 
			1744,616.3 1745.2,609.2 1740.1,604.3 1747.2,603.2 		"/>
		<text transform="matrix(1 0 0 1 1534.6602 612.3389)" class="st20 st16 st31">Levi’s</text>
		<text transform="matrix(1 0 0 1 1534.6602 587.2896)" class="st16 st32">Утепленная джин...</text>
		<text transform="matrix(1 0 0 1 1706.748 586.9336)" class="st16 st32">6000 ₽</text>
		
			<image style="overflow:visible;" width="601" height="599" xlink:href="8EB9BB1F.jpg"  transform="matrix(0.4175 0 0 0.4304 1523.6309 305.6321)">
		</image>
		<path class="st24" d="M1765,523.8h-52c-1.8,0-3.2,1.4-3.2,3.2v22.8c0,1.8,1.4,3.2,3.2,3.2h52c1.8,0,3.2-1.4,3.2-3.2V527
			C1768.2,525.2,1766.7,523.8,1765,523.8z"/>
		<path id="like_21_" class="st25" d="M1753.5,529.2c-1.1,0-2.1,0.3-3,1c-0.8,0.7-1.4,1.5-1.7,2.1c-0.3-0.6-0.9-1.4-1.7-2.1
			c-0.9-0.7-1.9-1-3-1c-3.1,0-5.4,2.5-5.4,5.8c0,3.6,2.9,6,7.2,9.7c0.7,0.6,1.6,1.3,2.4,2.1c0.1,0.1,0.3,0.2,0.4,0.2
			s0.3-0.1,0.4-0.2c0.9-0.8,1.7-1.5,2.4-2.1c4.4-3.7,7.2-6.2,7.2-9.7C1758.8,531.7,1756.5,529.2,1753.5,529.2z"/>
		<text id="_x33__19_" transform="matrix(1 0 0 1 1723.7354 544.5361)" class="st1 st16 st33">3</text>
		<path id="photo_holer_20_" class="st27" d="M1775.5,561.6h-254.3V309.9c0-1.4,1.1-2.6,2.6-2.6H1773c1.4,0,2.6,1.1,2.6,2.6
			L1775.5,561.6L1775.5,561.6z"/>
	</g>
</g>
<g id="functions">
	<g id="edit">
		<path class="st1" d="M142,355.4l5.1,5.1l-12.9,12.9l-5.1-5.1L142,355.4z M150.9,354.2l-2.3-2.3c-0.9-0.9-2.3-0.9-3.2,0l-2.2,2.2
			l5.1,5.1l2.5-2.5C151.6,355.9,151.6,354.8,150.9,354.2z M126.5,375.4c-0.1,0.4,0.3,0.8,0.7,0.7l5.7-1.4l-5.1-5.1L126.5,375.4z"/>
	</g>
	<path class="st1" d="M147.9,414l-7.8-8.6c-0.4-0.4-1-0.6-1.6-0.6s-1.2,0.2-1.6,0.6L129,414c-0.3,0.4-0.5,0.9-0.5,1.4
		c0,1.2,1,2.2,2.2,2.2c0.6,0,1.2-0.3,1.6-0.8l4.3-4.7v18.1c0,1.1,0.9,2.1,2.1,2.1c1.1,0,2.1-0.9,2.1-2.1v-18.1l4.3,4.6
		c0.4,0.4,1,0.8,1.6,0.8c1,0,1.9-1,1.9-2.2C148.5,414.8,148.2,414.3,147.9,414z"/>
	<text transform="matrix(0.9998 0 0 1 167.9453 372.2285)" class="st1 st16 st38">Редактировать</text>
	<text transform="matrix(0.9998 0 0 1 167.9453 427.2285)" class="st1 st16 st38">Продвинуть</text>
	<g>
		<path class="st1" d="M142.3,469.9l5.9-5.9c0.9-0.9,0.9-2.5,0-3.4c-0.9-0.9-2.5-0.9-3.4,0l-5.9,5.9l-5.9-5.9
			c-0.9-0.9-2.5-0.9-3.4,0c-0.9,0.9-0.9,2.5,0,3.4l5.9,5.9l-5.9,5.9c-0.9,0.9-0.9,2.5,0,3.4c0.5,0.5,1.1,0.7,1.7,0.7
			c0.6,0,1.2-0.2,1.7-0.7l5.9-5.9l5.9,5.9c0.5,0.5,1.1,0.7,1.7,0.7s1.2-0.2,1.7-0.7c0.9-0.9,0.9-2.5,0-3.4L142.3,469.9z"/>
	</g>
	<text transform="matrix(0.9998 0 0 1 167.9453 475.2285)" class="st1 st16 st38">Удалить</text>
</g>
<g id="header">
	<g>
		<text transform="matrix(1 0 0 1 87 190.9897)" class="st8 st9">МОИ ОБЪЯВЛЕНИЯ</text>
	</g>
	<g id="add">
		<circle class="st12" cx="357.7" cy="177.7" r="26.5"/>
		<path class="st1" d="M360.1,180.1l8.4,0c1.3,0,2.4-1.1,2.4-2.4c0-1.3-1.1-2.4-2.4-2.4l-8.4,0l0-8.4c0-1.3-1.1-2.4-2.4-2.4
			c-1.3,0-2.4,1.1-2.4,2.4v8.4h-8.4c-1.3,0-2.4,1.1-2.4,2.4c0,0.7,0.3,1.3,0.7,1.7c0.4,0.4,1,0.7,1.7,0.7l8.4,0v8.4
			c0,0.7,0.3,1.3,0.7,1.7c0.4,0.4,1,0.7,1.7,0.7c1.3,0,2.4-1.1,2.4-2.4V180.1z"/>
	</g>
	<text transform="matrix(0.9998 0 0 1 85 252.1133)" class="st12 st16 st17">На продаже</text>
	<text transform="matrix(0.9998 0 0 1 238.0127 252.1113)" class="st12 st16 st17">6</text>
	<path class="st12" d="M270.6,239.7l-3.8-3.8c-0.2-0.2-0.4-0.3-0.6-0.3c0,0,0,0,0,0c0,0-0.1,0-0.1,0c0,0-0.1,0-0.1,0h-1.1
		c-0.3,0-0.6,0.1-0.7,0.4c-0.3,0.5-1.1,0.9-2,0.9s-1.6-0.3-2-0.9c-0.2-0.2-0.4-0.4-0.7-0.4h-1.1c0,0-0.1,0-0.1,0
		c-0.3,0-0.5,0.1-0.7,0.2l-3.8,3.8c-0.3,0.3-0.3,0.9,0,1.2l2.1,2.1c0.2,0.2,0.4,0.3,0.6,0.3c0.2,0,0.4-0.1,0.6-0.3l0.5-0.5v7.7
		c0,0.5,0.4,0.9,0.9,0.9h7.5c0.5,0,0.9-0.4,0.9-0.9v-7.7l0.5,0.5c0.2,0.2,0.4,0.3,0.6,0.3c0,0,0,0,0,0c0.2,0,0.4-0.1,0.6-0.3
		l2.1-2.1C271,240.5,271,240,270.6,239.7z"/>
	<text transform="matrix(0.9998 0 0 1 352.1582 250.9424)" class="st12 st16 st17">Продано</text>
	<text transform="matrix(0.9998 0 0 1 478.2197 252.1113)" class="st12 st16 st17">3</text>
	<path class="st12" d="M510.8,239.7l-3.8-3.8c-0.2-0.2-0.4-0.3-0.6-0.3c0,0,0,0,0,0c0,0-0.1,0-0.1,0c0,0-0.1,0-0.1,0h-1.1
		c-0.3,0-0.6,0.1-0.7,0.4c-0.3,0.5-1.1,0.9-2,0.9c-0.8,0-1.6-0.3-2-0.9c-0.2-0.2-0.4-0.4-0.7-0.4h-1.1c0,0-0.1,0-0.1,0
		c-0.3,0-0.5,0.1-0.7,0.2l-3.8,3.8c-0.3,0.3-0.3,0.9,0,1.2l2.1,2.1c0.2,0.2,0.4,0.3,0.6,0.3c0.2,0,0.4-0.1,0.6-0.3l0.5-0.5v7.7
		c0,0.5,0.4,0.9,0.9,0.9h7.5c0.5,0,0.9-0.4,0.9-0.9v-7.7l0.5,0.5c0.2,0.2,0.4,0.3,0.6,0.3c0,0,0,0,0,0c0.2,0,0.4-0.1,0.6-0.3
		l2.1-2.1C511.2,240.5,511.2,240,510.8,239.7z"/>
	<line class="st39" x1="313" y1="228.4" x2="313" y2="257.7"/>
	<path class="st12" d="M1695,243.1l7.1-7.1c1.1-1.1,1.1-3,0-4.1c-1.1-1.1-3-1.1-4.1,0l-7.1,7.1l-7.1-7.1c-1.1-1.1-3-1.1-4.1,0
		c-1.1,1.1-1.1,3,0,4.1l7.1,7.1l-7.1,7.1c-1.1,1.1-1.1,3,0,4.1c0.6,0.6,1.3,0.8,2,0.8c0.7,0,1.5-0.3,2-0.8l7.1-7.1l7.1,7.1
		c0.6,0.6,1.3,0.8,2,0.8s1.5-0.3,2-0.8c1.1-1.1,1.1-3,0-4.1L1695,243.1z"/>
	<text transform="matrix(0.9998 0 0 1 1715.9404 249.4785)" class="st12 st16 st17">Удалить все</text>
</g>
</svg>
